<svg xmlns="http://www.w3.org/2000/svg" xmlns:xlink="http://www.w3.org/1999/xlink">

<symbol id="dribbble" fill-rule="evenodd" clip-rule="evenodd" stroke-linejoin="round" stroke-miterlimit="1.414"><path d="M8 16c-4.41 0-8-3.59-8-8s3.59-8 8-8 8 3.59 8 8-3.59 8-8 8zm6.747-6.905c-.234-.074-2.115-.635-4.257-.292.894 2.456 1.258 4.456 1.328 4.872 1.533-1.037 2.624-2.68 2.93-4.58zM10.67 14.3c-.102-.6-.5-2.688-1.46-5.18l-.044.014C5.312 10.477 3.93 13.15 3.806 13.4c1.158.905 2.614 1.444 4.194 1.444.947 0 1.85-.194 2.67-.543zm-7.747-1.72c.155-.266 2.03-3.37 5.555-4.51.09-.03.18-.056.27-.08-.173-.39-.36-.778-.555-1.16-3.413 1.02-6.723.977-7.023.97l-.003.208c0 1.755.665 3.358 1.756 4.57zM1.31 6.61c.307.005 3.122.017 6.318-.832-1.132-2.012-2.353-3.705-2.533-3.952-1.912.902-3.34 2.664-3.784 4.785zM6.4 1.368c.188.253 1.43 1.943 2.548 4 2.43-.91 3.46-2.293 3.582-2.468C11.323 1.827 9.736 1.176 8 1.176c-.55 0-1.087.066-1.6.19zm6.89 2.322c-.145.194-1.29 1.662-3.816 2.694.16.325.31.656.453.99.05.117.1.235.147.352 2.274-.286 4.533.172 4.758.22-.015-1.613-.59-3.094-1.543-4.257z"/></symbol>

<symbol id="facebook" fill-rule="evenodd" clip-rule="evenodd" stroke-linejoin="round" stroke-miterlimit="1.414"><path d="M15.117 0H.883C.395 0 0 .395 0 .883v14.234c0 .488.395.883.883.883h7.663V9.804H6.46V7.39h2.086V5.607c0-2.066 1.262-3.19 3.106-3.19.883 0 1.642.064 1.863.094v2.16h-1.28c-1 0-1.195.48-1.195 1.18v1.54h2.39l-.31 2.42h-2.08V16h4.077c.488 0 .883-.395.883-.883V.883C16 .395 15.605 0 15.117 0" fill-rule="nonzero"/></symbol>

<symbol id="flickr" fill-rule="evenodd" clip-rule="evenodd" stroke-linejoin="round" stroke-miterlimit="1.414"><path d="M0 8c0 2.05 1.662 3.71 3.71 3.71 2.05 0 3.713-1.66 3.713-3.71S5.76 4.29 3.71 4.29C1.663 4.29 0 5.95 0 8zm8.577 0c0 2.05 1.662 3.71 3.712 3.71C14.33 11.71 16 10.05 16 8s-1.662-3.71-3.71-3.71c-2.05 0-3.713 1.66-3.713 3.71z"/></symbol>

<symbol id="github" fill-rule="evenodd" clip-rule="evenodd" stroke-linejoin="round" stroke-miterlimit="1.414"><path d="M8 0C3.58 0 0 3.582 0 8c0 3.535 2.292 6.533 5.47 7.59.4.075.547-.172.547-.385 0-.19-.007-.693-.01-1.36-2.226.483-2.695-1.073-2.695-1.073-.364-.924-.89-1.17-.89-1.17-.725-.496.056-.486.056-.486.803.056 1.225.824 1.225.824.714 1.223 1.873.87 2.33.665.072-.517.278-.87.507-1.07-1.777-.2-3.644-.888-3.644-3.953 0-.873.31-1.587.823-2.147-.09-.202-.36-1.015.07-2.117 0 0 .67-.215 2.2.82.64-.178 1.32-.266 2-.27.68.004 1.36.092 2 .27 1.52-1.035 2.19-.82 2.19-.82.43 1.102.16 1.915.08 2.117.51.56.82 1.274.82 2.147 0 3.073-1.87 3.75-3.65 3.947.28.24.54.73.54 1.48 0 1.07-.01 1.93-.01 2.19 0 .21.14.46.55.38C13.71 14.53 16 11.53 16 8c0-4.418-3.582-8-8-8"/></symbol>

<symbol id="instagram" fill-rule="evenodd" clip-rule="evenodd" stroke-linejoin="round" stroke-miterlimit="1.414"><path d="M8 0C5.827 0 5.555.01 4.702.048 3.85.088 3.27.222 2.76.42c-.526.204-.973.478-1.417.923-.445.444-.72.89-.923 1.417-.198.51-.333 1.09-.372 1.942C.008 5.555 0 5.827 0 8s.01 2.445.048 3.298c.04.852.174 1.433.372 1.942.204.526.478.973.923 1.417.444.445.89.72 1.417.923.51.198 1.09.333 1.942.372.853.04 1.125.048 3.298.048s2.445-.01 3.298-.048c.852-.04 1.433-.174 1.942-.372.526-.204.973-.478 1.417-.923.445-.444.72-.89.923-1.417.198-.51.333-1.09.372-1.942.04-.853.048-1.125.048-3.298s-.01-2.445-.048-3.298c-.04-.852-.174-1.433-.372-1.942-.204-.526-.478-.973-.923-1.417-.444-.445-.89-.72-1.417-.923-.51-.198-1.09-.333-1.942-.372C10.445.008 10.173 0 8 0zm0 1.44c2.136 0 2.39.01 3.233.048.78.036 1.203.166 1.485.276.374.145.64.318.92.598.28.28.453.546.598.92.11.282.24.705.276 1.485.038.844.047 1.097.047 3.233s-.01 2.39-.05 3.233c-.04.78-.17 1.203-.28 1.485-.15.374-.32.64-.6.92-.28.28-.55.453-.92.598-.28.11-.71.24-1.49.276-.85.038-1.1.047-3.24.047s-2.39-.01-3.24-.05c-.78-.04-1.21-.17-1.49-.28-.38-.15-.64-.32-.92-.6-.28-.28-.46-.55-.6-.92-.11-.28-.24-.71-.28-1.49-.03-.84-.04-1.1-.04-3.23s.01-2.39.04-3.24c.04-.78.17-1.21.28-1.49.14-.38.32-.64.6-.92.28-.28.54-.46.92-.6.28-.11.7-.24 1.48-.28.85-.03 1.1-.04 3.24-.04zm0 2.452c-2.27 0-4.108 1.84-4.108 4.108 0 2.27 1.84 4.108 4.108 4.108 2.27 0 4.108-1.84 4.108-4.108 0-2.27-1.84-4.108-4.108-4.108zm0 6.775c-1.473 0-2.667-1.194-2.667-2.667 0-1.473 1.194-2.667 2.667-2.667 1.473 0 2.667 1.194 2.667 2.667 0 1.473-1.194 2.667-2.667 2.667zm5.23-6.937c0 .53-.43.96-.96.96s-.96-.43-.96-.96.43-.96.96-.96.96.43.96.96z"/></symbol>

<symbol id="linkedin" fill-rule="evenodd" clip-rule="evenodd" stroke-linejoin="round" stroke-miterlimit="1.414"><path d="M13.632 13.635h-2.37V9.922c0-.886-.018-2.025-1.234-2.025-1.235 0-1.424.964-1.424 1.96v3.778h-2.37V6H8.51v1.04h.03c.318-.6 1.092-1.233 2.247-1.233 2.4 0 2.845 1.58 2.845 3.637v4.188zM3.558 4.955c-.762 0-1.376-.617-1.376-1.377 0-.758.614-1.375 1.376-1.375.76 0 1.376.617 1.376 1.375 0 .76-.617 1.377-1.376 1.377zm1.188 8.68H2.37V6h2.376v7.635zM14.816 0H1.18C.528 0 0 .516 0 1.153v13.694C0 15.484.528 16 1.18 16h13.635c.652 0 1.185-.516 1.185-1.153V1.153C16 .516 15.467 0 14.815 0z" fill-rule="nonzero"/></symbol>

<symbol id="pinterest" fill-rule="evenodd" clip-rule="evenodd" stroke-linejoin="round" stroke-miterlimit="1.414"><path d="M8 0C3.582 0 0 3.582 0 8c0 3.39 2.108 6.285 5.084 7.45-.07-.633-.133-1.604.028-2.295.146-.625.938-3.977.938-3.977s-.24-.48-.24-1.188c0-1.11.646-1.943 1.448-1.943.683 0 1.012.513 1.012 1.127 0 .687-.436 1.713-.662 2.664-.19.797.4 1.445 1.185 1.445 1.42 0 2.514-1.498 2.514-3.662 0-1.91-1.376-3.25-3.342-3.25-2.276 0-3.61 1.71-3.61 3.47 0 .69.263 1.43.593 1.83.066.08.075.15.057.23-.06.25-.196.8-.223.91-.035.15-.115.18-.268.11C3.516 10.46 2.89 9 2.89 7.82c0-2.52 1.834-4.84 5.287-4.84 2.774 0 4.932 1.98 4.932 4.62 0 2.76-1.74 4.98-4.16 4.98-.81 0-1.57-.42-1.84-.92l-.5 1.9c-.18.698-.67 1.57-1 2.1.75.23 1.54.357 2.37.357 4.41 0 8-3.58 8-8s-3.59-8-8-8z" fill-rule="nonzero"/></symbol>

<symbol id="rss" fill-rule="evenodd" clip-rule="evenodd" stroke-linejoin="round" stroke-miterlimit="1.414"><path d="M12.8 16C12.8 8.978 7.022 3.2 0 3.2V0c8.777 0 16 7.223 16 16h-3.2zM2.194 11.61c1.21 0 2.195.985 2.195 2.196 0 1.21-.99 2.194-2.2 2.194C.98 16 0 15.017 0 13.806c0-1.21.983-2.195 2.194-2.195zM10.606 16h-3.11c0-4.113-3.383-7.497-7.496-7.497v-3.11c5.818 0 10.606 4.79 10.606 10.607z"/></symbol>

<symbol id="stackoverflow" class="svg-icon" fill-rule="evenodd" clip-rule="evenodd" stroke-linejoin="round" stroke-miterlimit="1.414"><path d="M12.658 14.577v-4.27h1.423V16H1.23v-5.693h1.42v4.27h10.006zm-8.583-1.423h7.16V11.73h-7.16v1.424zm.173-3.235l6.987 1.46.3-1.38L4.55 8.54l-.302 1.38zm.906-3.37l6.47 3.02.602-1.3-6.47-3.02-.602 1.29zm1.81-3.19l5.478 4.57.906-1.08L7.87 2.28l-.9 1.078zM10.502 0L9.338.863l4.27 5.735 1.164-.862L10.5 0z"/></symbol>

<symbol id="twitter" fill-rule="evenodd" clip-rule="evenodd" stroke-linejoin="round" stroke-miterlimit="1.414"><path d="M16 3.038c-.59.26-1.22.437-1.885.517.677-.407 1.198-1.05 1.443-1.816-.634.37-1.337.64-2.085.79-.598-.64-1.45-1.04-2.396-1.04-1.812 0-3.282 1.47-3.282 3.28 0 .26.03.51.085.75-2.728-.13-5.147-1.44-6.766-3.42C.83 2.58.67 3.14.67 3.75c0 1.14.58 2.143 1.46 2.732-.538-.017-1.045-.165-1.487-.41v.04c0 1.59 1.13 2.918 2.633 3.22-.276.074-.566.114-.865.114-.21 0-.41-.02-.61-.058.42 1.304 1.63 2.253 3.07 2.28-1.12.88-2.54 1.404-4.07 1.404-.26 0-.52-.015-.78-.045 1.46.93 3.18 1.474 5.04 1.474 6.04 0 9.34-5 9.34-9.33 0-.14 0-.28-.01-.42.64-.46 1.2-1.04 1.64-1.7z" fill-rule="nonzero"/></symbol>

<symbol id="youtube" fill-rule="evenodd" clip-rule="evenodd" stroke-linejoin="round" stroke-miterlimit="1.414"><path d="M0 7.345c0-1.294.16-2.59.16-2.59s.156-1.1.636-1.587c.608-.637 1.408-.617 1.764-.684C3.84 2.36 8 2.324 8 2.324s3.362.004 5.6.166c.314.038.996.04 1.604.678.48.486.636 1.588.636 1.588S16 6.05 16 7.346v1.258c0 1.296-.16 2.59-.16 2.59s-.156 1.102-.636 1.588c-.608.638-1.29.64-1.604.678-2.238.162-5.6.166-5.6.166s-4.16-.037-5.44-.16c-.356-.067-1.156-.047-1.764-.684-.48-.487-.636-1.587-.636-1.587S0 9.9 0 8.605v-1.26zm6.348 2.73V5.58l4.323 2.255-4.32 2.24z"/></symbol>

<symbol id="mastodon" fill-rule="evenodd" clip-rule="evenodd" stroke-linejoin="round" stroke-miterlimit="1.414">
  <path transform="scale(0.07)" d="M211.80734 139.0875c-3.18125 16.36625-28.4925 34.2775-57.5625 37.74875-15.15875 1.80875-30.08375 3.47125-45.99875 2.74125-26.0275-1.1925-46.565-6.2125-46.565-6.2125 0 2.53375.15625 4.94625.46875 7.2025 3.38375 25.68625 25.47 27.225 46.39125 27.9425 21.11625.7225 39.91875-5.20625 39.91875-5.20625l.8675 19.09s-14.77 7.93125-41.08125 9.39c-14.50875.7975-32.52375-.365-53.50625-5.91875C9.23234 213.82 1.40609 165.31125.20859 116.09125c-.365-14.61375-.14-28.39375-.14-39.91875 0-50.33 32.97625-65.0825 32.97625-65.0825C49.67234 3.45375 78.20359.2425 107.86484 0h.72875c29.66125.2425 58.21125 3.45375 74.8375 11.09 0 0 32.975 14.7525 32.975 65.0825 0 0 .41375 37.13375-4.59875 62.915"/>
  <path transform="scale(0.07)" fill="#FFF" d="M177.50984 80.077v60.94125h-24.14375v-59.15c0-12.46875-5.24625-18.7975-15.74-18.7975-11.6025 0-17.4175 7.5075-17.4175 22.3525v32.37625H96.20734V85.42325c0-14.845-5.81625-22.3525-17.41875-22.3525-10.49375 0-15.74 6.32875-15.74 18.7975v59.15H38.90484V80.077c0-12.455 3.17125-22.3525 9.54125-29.675 6.56875-7.3225 15.17125-11.07625 25.85-11.07625 12.355 0 21.71125 4.74875 27.8975 14.2475l6.01375 10.08125 6.015-10.08125c6.185-9.49875 15.54125-14.2475 27.8975-14.2475 10.6775 0 19.28 3.75375 25.85 11.07625 6.36875 7.3225 9.54 17.22 9.54 29.675"/>
</symbol>

<symbol id="microdotblog" fill-rule="evenodd" clip-rule="evenodd" stroke-linejoin="round" stroke-miterlimit="1.414">
        <path d="M13.8958184,12.3539692 C13.7934913,12.5766333 13.7214973,12.7460692 13.6798363,12.8622768 C13.534018,13.2690171 13.4876062,13.5959963 13.4737723,13.8031622 C13.4047037,14.8374843 13.8695637,15.452098 13.9792411,15.6152902 C14.143626,15.8598834 14.2103299,15.996999 14.1793527,16.0266369 C14.1187128,16.1331597 13.9329861,16.1331597 13.6221726,16.0266369 C13.1559524,15.8668527 11.8671503,15.3666667 11.3815104,14.6616443 C11.1859547,14.3777486 11.0620507,14.2565499 10.9838025,14.2130531 C10.0617698,14.5547858 9.05472096,14.7428571 8,14.7428571 C3.581722,14.7428571 0,11.4425562 0,7.37142857 C0,3.30030099 3.581722,0 8,0 C12.418278,0 16,3.30030099 16,7.37142857 C16,9.29250872 15.2024583,11.041949 13.8958184,12.3539692 Z M7.94285714,9.78095238 C9.51605596,10.7990263 10.3706771,11.2483272 10.5067204,11.1288551 C10.6427638,11.0093829 10.4795457,10.0577483 10.0170661,8.27395135 C11.4827084,7.15954158 12.1741114,6.48559023 12.0912751,6.2520973 C12.0084388,6.01860437 11.0529434,5.87976276 9.22478879,5.83557246 C8.61970046,4.10392098 8.19238991,3.23809524 7.94285714,3.23809524 C7.69332437,3.23809524 7.26601382,4.10392098 6.6609255,5.83557246 C4.82960347,5.88951121 3.87410803,6.02835282 3.7944392,6.2520973 C3.71477036,6.47584178 4.40617335,7.14979313 5.86864817,8.27395135 C5.36780472,9.99753359 5.20458662,10.9491682 5.37899385,11.1288551 C5.55340109,11.308542 6.40802218,10.8592411 7.94285714,9.78095238 Z"></path>
</symbol>

<symbol id="telegram" fill-rule="evenodd" clip-rule="evenodd" stroke-linejoin="round" stroke-miterlimit="1.414" viewBox="0 0 1792 1792">
        <path d="M1189 1307l147-693q9-44-10.5-63t-51.5-7l-864 333q-29 11-39.5 25t-2.5 26.5 32 19.5l221 69 513-323q21-14 32-6 7 5-4 15l-415 375-16 228q23 0 45-22l108-104 224 165q64 36 81-38zm603-411q0 182-71 348t-191 286-286 191-348 71-348-71-286-191-191-286-71-348 71-348 191-286 286-191 348-71 348 71 286 191 191 286 71 348z"/>
</symbol>

<symbol id="keybase" fill-rule="evenodd" clip-rule="evenodd" stroke-linejoin="round" stroke-miterlimit="1.414" viewBox="0 0 50 50">
  <path d="M31.5 40A1.5 1.5 0 1 0 31.5 43 1.5 1.5 0 1 0 31.5 40zM20.5 40A1.5 1.5 0 1 0 20.5 43 1.5 1.5 0 1 0 20.5 40z"/><path fill="none" stroke="#000" stroke-linecap="round" stroke-miterlimit="10" stroke-width="2" d="M7.167 39c.289 2.14.955 4.157 1.91 6M19.25 13h-4.5C14.336 13 14 12.664 14 12.25v-4.5C14 7.336 14.336 7 14.75 7h4.5C19.664 7 20 7.336 20 7.75v3"/><path d="M25.5,23c-4.136,0-7.5-3.364-7.5-7.5c0-6.863,5.59-12.023,5.827-12.24c0.345-0.313,0.858-0.346,1.242-0.082c0.383,0.265,0.531,0.76,0.359,1.192C25,5.45,24.614,7.253,25.007,7.831C25.041,7.882,25.122,8,25.5,8c4.136,0,7.5,3.364,7.5,7.5S29.636,23,25.5,23z"/><path d="M44.938,34.942c-0.482-6.158-3.811-11.592-8.878-14.837c-0.041-0.026-0.081-0.054-0.122-0.08c-0.336-0.211-0.681-0.41-1.031-0.602c-0.123-0.068-0.244-0.137-0.369-0.202c-0.082-0.043-0.168-0.08-0.251-0.121c-0.63,1.531-1.649,2.862-2.932,3.871l3.352,3.352c0.391,0.391,0.391,1.023,0,1.414c-0.195,0.195-0.451,0.293-0.707,0.293s-0.512-0.098-0.707-0.293l-0.837-0.837l-1.808,1.808C30.453,28.902,30.197,29,29.941,29s-0.512-0.098-0.707-0.293c-0.391-0.391-0.391-1.023,0-1.414l1.808-1.808L30,24.443l-1.293,1.293c-0.195,0.195-0.451,0.293-0.707,0.293s-0.512-0.098-0.707-0.293c-0.236-0.236-0.311-0.557-0.263-0.862C26.532,24.955,26.021,25,25.5,25c-4.033,0-7.478-2.53-8.854-6.083C9.218,22.402,5,30.302,5,41v3l1.8-2.4c1.86-2.48,4.12-4.968,6.266-6.95c-0.528,1.41-0.882,2.821-1.058,4.226l-0.314,2.514l1.947-1.622C13.697,39.721,19.437,35,26,35c3.219,0,4.979,0.298,6.531,0.562C33.861,35.787,35.118,36,37,36c3.1,0,4.797-1.585,5.537-3.485c0.197,0.844,0.336,1.707,0.407,2.586C42.98,35.564,43,36.03,43,36.5c0,2.818-0.662,5.522-1.968,8.04c-0.254,0.49-0.063,1.094,0.427,1.348C41.606,45.964,41.764,46,41.919,46c0.361,0,0.711-0.196,0.889-0.54C44.263,42.656,45,39.642,45,36.5C45,35.977,44.979,35.457,44.938,34.942z"/>
</symbol>

<symbol id="devto" fill-rule="evenodd" clip-rule="evenodd" stroke-linejoin="round" stroke-miterlimit="1.414">
  <path transform="scale(0.039)" d="M10.5 2.5C5.6 4.2 2.4 7.8 1 12.9.3 15.6.1 77.2.2 207.1.5 396.6.5 397.5 2.5 401c1.2 1.9 3.6 4.3 5.5 5.5 3.5 2 4.2 2 196 2s192.5 0 196-2c1.9-1.2 4.3-3.6 5.5-5.5 2-3.5 2-4.2 2-196s0-192.5-2-196c-1.2-1.9-3.6-4.3-5.5-5.5-3.5-2-4.4-2-194.5-2.2-162.9-.2-191.6 0-195 1.2zm96.8 124c9 1.9 15.5 5.6 22.2 12.6 6.1 6.4 9.9 13.7 11.5 21.9 1.3 6.9 1.3 81.1 0 88.1-3.4 18.2-18.9 32.4-38.1 34.9-4 .5-17.4 1-29.6 1H51V125h24.8c17.6 0 26.6.4 31.5 1.5zm130.7 13V154h-51v36h31v29h-31l.2 18.2.3 18.3 25.3.3 25.2.2v29h-29.5c-32.8 0-37.9-.6-43.1-5.2-7.3-6.4-6.9-2.3-7.2-72.6-.2-43.8.1-64.5.8-67.3 1.4-5.2 7.3-11.6 12.5-13.4 3.1-1.1 10.9-1.4 35.3-1.5H238v14.5zm48.9-12.3c.4 1.3 6.8 25.6 14.2 54 7.4 28.5 13.6 51.2 13.8 50.5.3-.7 6.6-24.8 14.1-53.7l13.7-52.5 15.6-.3c11.8-.2 15.7.1 15.7 1s-34.6 132.4-36.6 139c-1.4 4.6-8.9 14-13.1 16.5-5.3 3-13.1 3.5-17.9 1-4.3-2.2-10-8.8-12.9-15-1.8-3.8-31.2-112-38-140l-.7-2.7h15.6c15.3 0 15.7 0 16.5 2.2z"/>
  <path transform="scale(0.039)" d="M80 205v51.2l10.3-.4c8.9-.3 10.8-.7 14.8-3 7.8-4.6 7.9-4.9 7.9-48.4 0-42.4 0-42.4-7.3-47.2-3.6-2.4-5.1-2.7-14.9-3.1l-10.8-.3V205z"/>
</symbol>

<symbol id="gitlab" fill-rule="evenodd" clip-rule="evenodd" stroke-linejoin="round" stroke-miterlimit="1.414" viewBox="0 0 1792 1792">
  <path d="M104 706l792 1015-868-630q-18-13-25-34.5t0-42.5l101-308zm462 0h660l-330 1015zm-198-612l198 612h-462l198-612q8-23 33-23t33 23zm1320 612l101 308q7 21 0 42.5t-25 34.5l-868 630 792-1015zm0 0h-462l198-612q8-23 33-23t33 23z"/>
</symbol>
<symbol id="strava">
  <rect id="backgroundrect" width="100" height="100" fill="none"/>
  <g class="currentLayer">
    <path d="M0 0h16v16H0z" id="svg_1" class="selected" fill="#828282"/>
    <g id="svg_2" style="fill-rule:evenodd;fill:#fff">
      <path d="M6.9 8.8l2.5 4.5 2.4-4.5h-1.5l-0.9 1.7-1-1.7z" id="svg_3" style="fill:#fff;opacity:0.6"/>
      <path d="M7.2 2.5l3.1 6.3H4zm0 3.8l1.2 2.5H5.9z" id="svg_4" fill="#fff"/>
    </g>
  </g>
</symbol>
<symbol id="27crags">
  <rect width="100" height="100" class="a"/><g class="currentLayer"><path d="M646.8 202.4C642.3 202.7 639.5 203 631 204.4 628.9 204.7 620 207.1 618.8 207.6 618.4 207.8 616.2 208.6 614.1 209.4 586.6 219.5 560.1 245.8 551.4 271.4 551 272.7 550.2 274.8 549.8 276 549.3 277.2 548.8 278.8 548.6 279.6 548.4 280.4 547.9 282.4 547.4 284.2 546.3 288.2 545.5 292.4 545 296.8 544.8 298.6 544.5 300.3 544.4 300.4 544 301.1 544.2 319.7 544.6 322.7 545.5 329.3 546.3 333.6 547.3 337.2 547.8 339.3 548.4 341.7 548.7 342.6 548.9 343.5 549.2 344.4 549.4 344.6 549.6 344.8 549.8 345.3 549.8 345.6 549.8 346 550.4 347.7 551 349.5 554.6 358.6 559.7 368 564.7 374.6 567.5 378.4 570.7 382.4 571.4 383.2 571.7 383.5 573.1 385.1 574.4 386.6 575.6 388.1 578.3 391.2 580.4 393.4 582.4 395.6 585.1 398.5 586.4 400 589.4 403.3 613.1 427 618.2 431.8 627.5 440.6 633.9 446.6 638.2 450.4 640.7 452.7 643.3 455.1 643.8 455.6 645.2 456.9 650 461.1 650.9 461.8 652.2 462.9 653.9 462.5 655.8 460.7 656.9 459.8 659.2 457.7 661 456 662.8 454.4 664.5 452.8 664.8 452.6 665 452.3 667.8 449.8 671 447 674.2 444.2 676.9 441.7 677 441.6 677.1 441.5 679.2 439.6 681.6 437.4 689.4 430.3 691.4 428.4 703.6 416.2 719.6 400.2 722.8 396.8 733.5 384 737.3 379.6 744.2 369.9 746.2 366.3 746.9 365 748 363 748.6 361.9 749.3 360.9 749.8 359.9 749.8 359.7 749.8 359.6 750.6 357.8 751.6 355.8 752.6 353.7 753.4 351.8 753.4 351.5 753.4 351.2 753.6 350.8 753.7 350.6 753.9 350.4 754.5 348.9 755 347.4 755.5 345.9 756.1 344 756.4 343.2 756.9 341.8 758.9 333.9 759.8 329.6 762.6 315.8 760.9 290.4 756.4 278.4 756.1 277.6 755.3 275.4 754.6 273.4 750.5 261.9 743.1 249.4 734.4 239.4 729.4 233.6 725.1 229.7 715.6 222.3 714.9 221.8 712.4 220.1 710 218.7 707.6 217.2 705.3 215.8 705 215.6 704 215 694.6 210.6 692.6 209.8 691.6 209.4 690.2 208.9 689.5 208.6 688.8 208.3 687.9 208 687.5 208 687.1 208 686.6 207.8 686.4 207.6 685.8 207.1 677.1 204.9 672 204 663.3 202.5 655.6 202 646.8 202.4M663.2 237.2C666.2 237.7 669 238.2 669.4 238.4 669.8 238.6 670.5 238.8 671 238.8 674.7 238.8 689.3 245.5 696 250.4 703.4 255.7 715.8 269 715.8 271.6 715.8 271.8 716 272.1 716.3 272.4 716.9 272.8 720.8 280.6 722 283.6 722.4 284.6 722.9 286 723.2 286.6 723.7 287.8 724.1 289.5 725.6 295.8 728.3 307.6 727.6 318.2 723 332 721.7 335.9 720.2 340 719.8 340.7 719.6 341.1 719.2 342.2 718.8 343.2 715.2 352.3 714.7 352.7 710.5 349.3 707.9 347.2 697.1 338.5 692.7 335 691.3 333.9 688 331.3 685.4 329.2 682.9 327.1 680.1 324.9 679.2 324.2 678.4 323.5 676.6 322.1 675.2 321 673.9 319.9 671.9 318.3 670.8 317.4 669.6 316.5 667.9 315.2 666.9 314.4 666 313.6 663.4 311.5 661.2 309.8 659 308 657.1 306.5 657 306.4 655.1 304.4 648.8 300 647.8 300 647.2 300 643.2 302.4 641.2 304 641 304.2 638.9 305.8 636.5 307.5 634.1 309.2 630.2 312 627.9 313.7 625.5 315.4 621.4 318.3 618.8 320.2 613.2 324.2 613.7 323.8 607.8 328.1 605.3 329.9 602.7 331.7 602.1 332.1 601.5 332.5 600.6 333.1 600.3 333.4 599.9 333.7 598.1 335.1 596.2 336.4 594.3 337.7 592.5 339.1 592.2 339.4 591.8 339.7 591.4 340 591.2 340 591.1 340 590.1 340.6 589.1 341.4 585.9 343.8 585.4 343.4 583.2 336.6 577.6 318.9 576.8 307.4 580.3 293.4 580.7 291.6 581.2 289.5 581.5 288.6 581.7 287.7 582 286.8 582.2 286.6 582.3 286.4 582.6 285.7 582.8 285 582.9 284.3 583.9 282.1 584.8 280.1 585.8 278 586.6 276.3 586.6 276.2 586.6 275.8 589.2 271.8 589.5 271.7 589.7 271.6 589.8 271.3 589.8 271.1 589.8 268.4 602.8 254.7 609.8 250 610.3 249.7 611.1 249.1 611.6 248.7 612.1 248.3 612.7 248 612.9 248 613.2 248 613.4 247.9 613.5 247.7 614.5 245.4 633.4 238.3 640.8 237.4 642.1 237.2 644 237 645 236.8 648.8 236.2 657.6 236.4 663.2 237.2M656.4 310.7C662.1 315.2 668.2 320 669.2 320.9 669.6 321.2 672.3 323.4 675.2 325.6 678.1 327.9 680.5 329.9 680.6 330 680.7 330.1 682.2 331.4 684 332.7 687.8 335.7 690.2 337.6 692.4 339.4 694.5 341.2 703.8 348.5 706.8 350.8 710.2 353.5 711.8 355 711.8 355.8 711.8 356.7 710.2 358.5 677.8 391.7 673 396.6 668.2 401.6 667 402.9 663.9 406.3 662.4 406.2 661.6 402.6 661.4 402 661.1 401.2 661 400.8 660.2 399.3 658.6 393.9 658.6 392.7 658.6 391.3 660.1 388.2 667.6 373.6 671.4 366.3 671.4 366.2 665.3 359.4 664.9 359 662.6 356.3 660.3 353.4 657.9 350.6 655.3 347.5 654.5 346.5 653.6 345.5 652.5 344 651.9 343.1L650.9 341.6 651.6 339.1C652 337.7 652.5 336 652.8 335.2 653.1 334.4 653.7 332.6 654.1 331.2 654.6 329.8 655.3 327.8 655.6 326.8 656.5 324.3 655.9 320.9 652.8 312.4 650.5 306.1 650.6 306 656.4 310.7" class="a"/><path d="M451 334L451 534 651 534 851 534 851 334 851 134 651 134 451 134 451 334M665.6 203C672.6 204 675 204.5 681.8 206.2 684.1 206.8 686.2 207.4 686.4 207.6 686.6 207.8 687.1 208 687.5 208 687.9 208 688.8 208.3 689.5 208.6 690.2 208.9 691.6 209.4 692.6 209.8 694.6 210.6 704 215 705 215.6 705.3 215.8 707.6 217.2 710 218.7 712.4 220.1 714.9 221.8 715.6 222.3 725.1 229.7 729.4 233.6 734.4 239.4 743.1 249.4 750.5 261.9 754.6 273.4 755.3 275.4 756.1 277.6 756.4 278.4 760.9 290.4 762.6 315.8 759.8 329.6 758.9 333.9 756.9 341.8 756.4 343.2 756.1 344 755.5 345.9 755 347.4 754.5 348.9 753.9 350.4 753.7 350.6 753.6 350.8 753.4 351.2 753.4 351.5 753.4 351.8 752.6 353.7 751.6 355.8 750.6 357.8 749.8 359.6 749.8 359.7 749.8 359.9 749.3 360.9 748.6 361.9 748 363 746.9 365 746.2 366.3 744.2 369.9 737.3 379.6 733.5 384 722.8 396.8 719.6 400.2 703.6 416.2 691.4 428.4 689.4 430.3 681.6 437.4 679.2 439.6 677.1 441.5 677 441.6 676.9 441.7 674.2 444.2 671 447 667.8 449.8 665 452.3 664.8 452.6 664.5 452.8 662.8 454.4 661 456 659.2 457.7 656.9 459.8 655.8 460.7 653.9 462.5 652.2 462.9 650.9 461.8 650 461.1 645.2 456.9 643.8 455.6 643.3 455.1 640.7 452.7 638.2 450.4 633.9 446.6 627.5 440.6 618.2 431.8 613.1 427 589.4 403.3 586.4 400 585.1 398.5 582.4 395.6 580.4 393.4 578.3 391.2 575.6 388.1 574.4 386.6 573.1 385.1 571.7 383.5 571.4 383.2 570.7 382.4 567.5 378.4 564.7 374.6 559.7 368 554.6 358.6 551 349.5 550.4 347.7 549.8 346 549.8 345.6 549.8 345.3 549.6 344.8 549.4 344.6 549.2 344.4 548.9 343.5 548.7 342.6 548.4 341.7 547.8 339.3 547.3 337.2 546.3 333.6 545.5 329.3 544.6 322.7 544.2 319.7 544 301.1 544.4 300.4 544.5 300.3 544.8 298.6 545 296.8 545.5 292.4 546.3 288.2 547.4 284.2 547.9 282.4 548.4 280.4 548.6 279.6 548.8 278.8 549.3 277.2 549.8 276 550.2 274.8 551 272.7 551.4 271.4 560.1 245.8 586.6 219.5 614.1 209.4 616.2 208.6 618.4 207.8 618.8 207.6 620 207.1 628.9 204.7 631 204.4 639.5 203 642.3 202.7 646.8 202.4 653.6 202.1 660.1 202.3 665.6 203M645 236.8C644 237 642.1 237.2 640.8 237.4 637.6 237.8 632 239.3 626.8 241.1 622.4 242.7 613.8 246.9 613.5 247.7 613.4 247.9 613.2 248 612.9 248 612.7 248 612.1 248.3 611.6 248.7 611.1 249.1 610.3 249.7 609.8 250 602.8 254.7 589.8 268.4 589.8 271.1 589.8 271.3 589.7 271.6 589.5 271.7 589.2 271.8 586.6 275.8 586.6 276.2 586.6 276.3 585.8 278 584.8 280.1 583.9 282.1 582.9 284.3 582.8 285 582.6 285.7 582.3 286.4 582.2 286.6 582 286.8 581.7 287.7 581.5 288.6 581.2 289.5 580.7 291.6 580.3 293.4 576.8 307.4 577.6 318.9 583.2 336.6 585.4 343.4 585.9 343.8 589.1 341.4 590.1 340.6 591.1 340 591.2 340 591.4 340 591.8 339.7 592.2 339.4 592.5 339.1 594.3 337.7 596.2 336.4 598.1 335.1 599.9 333.7 600.3 333.4 600.6 333.1 601.5 332.5 602.1 332.1 602.7 331.7 605.3 329.9 607.8 328.1 613.7 323.8 613.2 324.2 618.8 320.2 621.4 318.3 625.5 315.4 627.9 313.7 630.2 312 634.1 309.2 636.5 307.5 638.9 305.8 641 304.2 641.2 304 643.2 302.4 647.2 300 647.8 300 648.8 300 655.1 304.4 657 306.4 657.1 306.5 659 308 661.2 309.8 663.4 311.5 666 313.6 666.9 314.4 667.9 315.2 669.6 316.5 670.8 317.4 671.9 318.3 673.9 319.9 675.2 321 676.6 322.1 678.4 323.5 679.2 324.2 680.1 324.9 682.9 327.1 685.4 329.2 688 331.3 691.3 333.9 692.7 335 697.1 338.5 707.9 347.2 710.5 349.3 714.7 352.7 715.2 352.3 718.8 343.2 719.2 342.2 719.6 341.1 719.8 340.7 720.2 340 721.7 335.9 723 332 724.6 327.2 725.7 322.8 726.7 317.6 727.6 312.4 727.1 302.4 725.6 295.8 724.1 289.5 723.7 287.8 723.2 286.6 722.9 286 722.4 284.6 722 283.6 720.8 280.6 716.9 272.8 716.3 272.4 716 272.1 715.8 271.8 715.8 271.6 715.8 269 703.4 255.7 696 250.4 689.3 245.5 674.7 238.8 671 238.8 670.5 238.8 669.8 238.6 669.4 238.4 666.8 237 650.5 235.9 645 236.8M651.4 307.7C651.4 308.2 652 310 652.8 312.4 655.9 320.9 656.5 324.3 655.6 326.8 655.3 327.8 654.6 329.8 654.1 331.2 653.7 332.6 653.1 334.4 652.8 335.2 652.5 336 652 337.7 651.6 339.1L650.9 341.6 651.9 343.1C652.5 344 653.6 345.5 654.5 346.5 655.3 347.5 657.9 350.6 660.3 353.4 662.6 356.3 664.9 359 665.3 359.4 671.4 366.2 671.4 366.3 667.6 373.6 660.1 388.2 658.6 391.3 658.6 392.7 658.6 393.9 660.2 399.3 661 400.8 661.1 401.2 661.4 402 661.6 402.6 662.4 406.2 663.9 406.3 667 402.9 668.2 401.6 673 396.6 677.8 391.7 710.2 358.5 711.8 356.7 711.8 355.8 711.8 355 710.2 353.5 706.8 350.8 703.8 348.5 694.5 341.2 692.4 339.4 690.2 337.6 687.8 335.7 684 332.7 682.2 331.4 680.7 330.1 680.6 330 680.5 329.9 678.1 327.9 675.2 325.6 672.3 323.4 669.6 321.2 669.2 320.9 668.7 320.5 666.7 318.8 664.6 317.2 651.4 306.6 651.4 306.6 651.4 307.7" class="b"/><g class="selected"><path d="M646.8 202.4C642.3 202.7 639.5 203 631 204.4 628.9 204.7 620 207.1 618.8 207.6 618.4 207.8 616.2 208.6 614.1 209.4 586.6 219.5 560.1 245.8 551.4 271.4 551 272.7 550.2 274.8 549.8 276 549.3 277.2 548.8 278.8 548.6 279.6 548.4 280.4 547.9 282.4 547.4 284.2 546.3 288.2 545.5 292.4 545 296.8 544.8 298.6 544.5 300.3 544.4 300.4 544 301.1 544.2 319.7 544.6 322.7 545.5 329.3 546.3 333.6 547.3 337.2 547.8 339.3 548.4 341.7 548.7 342.6 548.9 343.5 549.2 344.4 549.4 344.6 549.6 344.8 549.8 345.3 549.8 345.6 549.8 346 550.4 347.7 551 349.5 554.6 358.6 559.7 368 564.7 374.6 567.5 378.4 570.7 382.4 571.4 383.2 571.7 383.5 573.1 385.1 574.4 386.6 575.6 388.1 578.3 391.2 580.4 393.4 582.4 395.6 585.1 398.5 586.4 400 589.4 403.3 613.1 427 618.2 431.8 627.5 440.6 633.9 446.6 638.2 450.4 640.7 452.7 643.3 455.1 643.8 455.6 645.2 456.9 650 461.1 650.9 461.8 652.2 462.9 653.9 462.5 655.8 460.7 656.9 459.8 659.2 457.7 661 456 662.8 454.4 664.5 452.8 664.8 452.6 665 452.3 667.8 449.8 671 447 674.2 444.2 676.9 441.7 677 441.6 677.1 441.5 679.2 439.6 681.6 437.4 689.4 430.3 691.4 428.4 703.6 416.2 719.6 400.2 722.8 396.8 733.5 384 737.3 379.6 744.2 369.9 746.2 366.3 746.9 365 748 363 748.6 361.9 749.3 360.9 749.8 359.9 749.8 359.7 749.8 359.6 750.6 357.8 751.6 355.8 752.6 353.7 753.4 351.8 753.4 351.5 753.4 351.2 753.6 350.8 753.7 350.6 753.9 350.4 754.5 348.9 755 347.4 755.5 345.9 756.1 344 756.4 343.2 756.9 341.8 758.9 333.9 759.8 329.6 762.6 315.8 760.9 290.4 756.4 278.4 756.1 277.6 755.3 275.4 754.6 273.4 750.5 261.9 743.1 249.4 734.4 239.4 729.4 233.6 725.1 229.7 715.6 222.3 714.9 221.8 712.4 220.1 710 218.7 707.6 217.2 705.3 215.8 705 215.6 704 215 694.6 210.6 692.6 209.8 691.6 209.4 690.2 208.9 689.5 208.6 688.8 208.3 687.9 208 687.5 208 687.1 208 686.6 207.8 686.4 207.6 685.8 207.1 677.1 204.9 672 204 663.3 202.5 655.6 202 646.8 202.4M663.2 237.2C666.2 237.7 669 238.2 669.4 238.4 669.8 238.6 670.5 238.8 671 238.8 674.7 238.8 689.3 245.5 696 250.4 703.4 255.7 715.8 269 715.8 271.6 715.8 271.8 716 272.1 716.3 272.4 716.9 272.8 720.8 280.6 722 283.6 722.4 284.6 722.9 286 723.2 286.6 723.7 287.8 724.1 289.5 725.6 295.8 728.3 307.6 727.6 318.2 723 332 721.7 335.9 720.2 340 719.8 340.7 719.6 341.1 719.2 342.2 718.8 343.2 715.2 352.3 714.7 352.7 710.5 349.3 707.9 347.2 697.1 338.5 692.7 335 691.3 333.9 688 331.3 685.4 329.2 682.9 327.1 680.1 324.9 679.2 324.2 678.4 323.5 676.6 322.1 675.2 321 673.9 319.9 671.9 318.3 670.8 317.4 669.6 316.5 667.9 315.2 666.9 314.4 666 313.6 663.4 311.5 661.2 309.8 659 308 657.1 306.5 657 306.4 655.1 304.4 648.8 300 647.8 300 647.2 300 643.2 302.4 641.2 304 641 304.2 638.9 305.8 636.5 307.5 634.1 309.2 630.2 312 627.9 313.7 625.5 315.4 621.4 318.3 618.8 320.2 613.2 324.2 613.7 323.8 607.8 328.1 605.3 329.9 602.7 331.7 602.1 332.1 601.5 332.5 600.6 333.1 600.3 333.4 599.9 333.7 598.1 335.1 596.2 336.4 594.3 337.7 592.5 339.1 592.2 339.4 591.8 339.7 591.4 340 591.2 340 591.1 340 590.1 340.6 589.1 341.4 585.9 343.8 585.4 343.4 583.2 336.6 577.6 318.9 576.8 307.4 580.3 293.4 580.7 291.6 581.2 289.5 581.5 288.6 581.7 287.7 582 286.8 582.2 286.6 582.3 286.4 582.6 285.7 582.8 285 582.9 284.3 583.9 282.1 584.8 280.1 585.8 278 586.6 276.3 586.6 276.2 586.6 275.8 589.2 271.8 589.5 271.7 589.7 271.6 589.8 271.3 589.8 271.1 589.8 268.4 602.8 254.7 609.8 250 610.3 249.7 611.1 249.1 611.6 248.7 612.1 248.3 612.7 248 612.9 248 613.2 248 613.4 247.9 613.5 247.7 614.5 245.4 633.4 238.3 640.8 237.4 642.1 237.2 644 237 645 236.8 648.8 236.2 657.6 236.4 663.2 237.2M656.4 310.7C662.1 315.2 668.2 320 669.2 320.9 669.6 321.2 672.3 323.4 675.2 325.6 678.1 327.9 680.5 329.9 680.6 330 680.7 330.1 682.2 331.4 684 332.7 687.8 335.7 690.2 337.6 692.4 339.4 694.5 341.2 703.8 348.5 706.8 350.8 710.2 353.5 711.8 355 711.8 355.8 711.8 356.7 710.2 358.5 677.8 391.7 673 396.6 668.2 401.6 667 402.9 663.9 406.3 662.4 406.2 661.6 402.6 661.4 402 661.1 401.2 661 400.8 660.2 399.3 658.6 393.9 658.6 392.7 658.6 391.3 660.1 388.2 667.6 373.6 671.4 366.3 671.4 366.2 665.3 359.4 664.9 359 662.6 356.3 660.3 353.4 657.9 350.6 655.3 347.5 654.5 346.5 653.6 345.5 652.5 344 651.9 343.1L650.9 341.6 651.6 339.1C652 337.7 652.5 336 652.8 335.2 653.1 334.4 653.7 332.6 654.1 331.2 654.6 329.8 655.3 327.8 655.6 326.8 656.5 324.3 655.9 320.9 652.8 312.4 650.5 306.1 650.6 306 656.4 310.7" class="a"/><path d="M451 334L451 534 651 534 851 534 851 334 851 134 651 134 451 134 451 334M665.6 203C672.6 204 675 204.5 681.8 206.2 684.1 206.8 686.2 207.4 686.4 207.6 686.6 207.8 687.1 208 687.5 208 687.9 208 688.8 208.3 689.5 208.6 690.2 208.9 691.6 209.4 692.6 209.8 694.6 210.6 704 215 705 215.6 705.3 215.8 707.6 217.2 710 218.7 712.4 220.1 714.9 221.8 715.6 222.3 725.1 229.7 729.4 233.6 734.4 239.4 743.1 249.4 750.5 261.9 754.6 273.4 755.3 275.4 756.1 277.6 756.4 278.4 760.9 290.4 762.6 315.8 759.8 329.6 758.9 333.9 756.9 341.8 756.4 343.2 756.1 344 755.5 345.9 755 347.4 754.5 348.9 753.9 350.4 753.7 350.6 753.6 350.8 753.4 351.2 753.4 351.5 753.4 351.8 752.6 353.7 751.6 355.8 750.6 357.8 749.8 359.6 749.8 359.7 749.8 359.9 749.3 360.9 748.6 361.9 748 363 746.9 365 746.2 366.3 744.2 369.9 737.3 379.6 733.5 384 722.8 396.8 719.6 400.2 703.6 416.2 691.4 428.4 689.4 430.3 681.6 437.4 679.2 439.6 677.1 441.5 677 441.6 676.9 441.7 674.2 444.2 671 447 667.8 449.8 665 452.3 664.8 452.6 664.5 452.8 662.8 454.4 661 456 659.2 457.7 656.9 459.8 655.8 460.7 653.9 462.5 652.2 462.9 650.9 461.8 650 461.1 645.2 456.9 643.8 455.6 643.3 455.1 640.7 452.7 638.2 450.4 633.9 446.6 627.5 440.6 618.2 431.8 613.1 427 589.4 403.3 586.4 400 585.1 398.5 582.4 395.6 580.4 393.4 578.3 391.2 575.6 388.1 574.4 386.6 573.1 385.1 571.7 383.5 571.4 383.2 570.7 382.4 567.5 378.4 564.7 374.6 559.7 368 554.6 358.6 551 349.5 550.4 347.7 549.8 346 549.8 345.6 549.8 345.3 549.6 344.8 549.4 344.6 549.2 344.4 548.9 343.5 548.7 342.6 548.4 341.7 547.8 339.3 547.3 337.2 546.3 333.6 545.5 329.3 544.6 322.7 544.2 319.7 544 301.1 544.4 300.4 544.5 300.3 544.8 298.6 545 296.8 545.5 292.4 546.3 288.2 547.4 284.2 547.9 282.4 548.4 280.4 548.6 279.6 548.8 278.8 549.3 277.2 549.8 276 550.2 274.8 551 272.7 551.4 271.4 560.1 245.8 586.6 219.5 614.1 209.4 616.2 208.6 618.4 207.8 618.8 207.6 620 207.1 628.9 204.7 631 204.4 639.5 203 642.3 202.7 646.8 202.4 653.6 202.1 660.1 202.3 665.6 203M645 236.8C644 237 642.1 237.2 640.8 237.4 637.6 237.8 632 239.3 626.8 241.1 622.4 242.7 613.8 246.9 613.5 247.7 613.4 247.9 613.2 248 612.9 248 612.7 248 612.1 248.3 611.6 248.7 611.1 249.1 610.3 249.7 609.8 250 602.8 254.7 589.8 268.4 589.8 271.1 589.8 271.3 589.7 271.6 589.5 271.7 589.2 271.8 586.6 275.8 586.6 276.2 586.6 276.3 585.8 278 584.8 280.1 583.9 282.1 582.9 284.3 582.8 285 582.6 285.7 582.3 286.4 582.2 286.6 582 286.8 581.7 287.7 581.5 288.6 581.2 289.5 580.7 291.6 580.3 293.4 576.8 307.4 577.6 318.9 583.2 336.6 585.4 343.4 585.9 343.8 589.1 341.4 590.1 340.6 591.1 340 591.2 340 591.4 340 591.8 339.7 592.2 339.4 592.5 339.1 594.3 337.7 596.2 336.4 598.1 335.1 599.9 333.7 600.3 333.4 600.6 333.1 601.5 332.5 602.1 332.1 602.7 331.7 605.3 329.9 607.8 328.1 613.7 323.8 613.2 324.2 618.8 320.2 621.4 318.3 625.5 315.4 627.9 313.7 630.2 312 634.1 309.2 636.5 307.5 638.9 305.8 641 304.2 641.2 304 643.2 302.4 647.2 300 647.8 300 648.8 300 655.1 304.4 657 306.4 657.1 306.5 659 308 661.2 309.8 663.4 311.5 666 313.6 666.9 314.4 667.9 315.2 669.6 316.5 670.8 317.4 671.9 318.3 673.9 319.9 675.2 321 676.6 322.1 678.4 323.5 679.2 324.2 680.1 324.9 682.9 327.1 685.4 329.2 688 331.3 691.3 333.9 692.7 335 697.1 338.5 707.9 347.2 710.5 349.3 714.7 352.7 715.2 352.3 718.8 343.2 719.2 342.2 719.6 341.1 719.8 340.7 720.2 340 721.7 335.9 723 332 724.6 327.2 725.7 322.8 726.7 317.6 727.6 312.4 727.1 302.4 725.6 295.8 724.1 289.5 723.7 287.8 723.2 286.6 722.9 286 722.4 284.6 722 283.6 720.8 280.6 716.9 272.8 716.3 272.4 716 272.1 715.8 271.8 715.8 271.6 715.8 269 703.4 255.7 696 250.4 689.3 245.5 674.7 238.8 671 238.8 670.5 238.8 669.8 238.6 669.4 238.4 666.8 237 650.5 235.9 645 236.8M651.4 307.7C651.4 308.2 652 310 652.8 312.4 655.9 320.9 656.5 324.3 655.6 326.8 655.3 327.8 654.6 329.8 654.1 331.2 653.7 332.6 653.1 334.4 652.8 335.2 652.5 336 652 337.7 651.6 339.1L650.9 341.6 651.9 343.1C652.5 344 653.6 345.5 654.5 346.5 655.3 347.5 657.9 350.6 660.3 353.4 662.6 356.3 664.9 359 665.3 359.4 671.4 366.2 671.4 366.3 667.6 373.6 660.1 388.2 658.6 391.3 658.6 392.7 658.6 393.9 660.2 399.3 661 400.8 661.1 401.2 661.4 402 661.6 402.6 662.4 406.2 663.9 406.3 667 402.9 668.2 401.6 673 396.6 677.8 391.7 710.2 358.5 711.8 356.7 711.8 355.8 711.8 355 710.2 353.5 706.8 350.8 703.8 348.5 694.5 341.2 692.4 339.4 690.2 337.6 687.8 335.7 684 332.7 682.2 331.4 680.7 330.1 680.6 330 680.5 329.9 678.1 327.9 675.2 325.6 672.3 323.4 669.6 321.2 669.2 320.9 668.7 320.5 666.7 318.8 664.6 317.2 651.4 306.6 651.4 306.6 651.4 307.7" class="b"/></g></g>
</symbol>
</svg>
