<svg xmlns="http://www.w3.org/2000/svg" width="NaN" height="NaN"><style>.a{fill:none;}.b{fill:#828282;}</style><rect width="100" height="100" class="a"/><g class="currentLayer"><title>  Layer 1</title><path d="M646.8 202.4C642.3 202.7 639.5 203 631 204.4 628.9 204.7 620 207.1 618.8 207.6 618.4 207.8 616.2 208.6 614.1 209.4 586.6 219.5 560.1 245.8 551.4 271.4 551 272.7 550.2 274.8 549.8 276 549.3 277.2 548.8 278.8 548.6 279.6 548.4 280.4 547.9 282.4 547.4 284.2 546.3 288.2 545.5 292.4 545 296.8 544.8 298.6 544.5 300.3 544.4 300.4 544 301.1 544.2 319.7 544.6 322.7 545.5 329.3 546.3 333.6 547.3 337.2 547.8 339.3 548.4 341.7 548.7 342.6 548.9 343.5 549.2 344.4 549.4 344.6 549.6 344.8 549.8 345.3 549.8 345.6 549.8 346 550.4 347.7 551 349.5 554.6 358.6 559.7 368 564.7 374.6 567.5 378.4 570.7 382.4 571.4 383.2 571.7 383.5 573.1 385.1 574.4 386.6 575.6 388.1 578.3 391.2 580.4 393.4 582.4 395.6 585.1 398.5 586.4 400 589.4 403.3 613.1 427 618.2 431.8 627.5 440.6 633.9 446.6 638.2 450.4 640.7 452.7 643.3 455.1 643.8 455.6 645.2 456.9 650 461.1 650.9 461.8 652.2 462.9 653.9 462.5 655.8 460.7 656.9 459.8 659.2 457.7 661 456 662.8 454.4 664.5 452.8 664.8 452.6 665 452.3 667.8 449.8 671 447 674.2 444.2 676.9 441.7 677 441.6 677.1 441.5 679.2 439.6 681.6 437.4 689.4 430.3 691.4 428.4 703.6 416.2 719.6 400.2 722.8 396.8 733.5 384 737.3 379.6 744.2 369.9 746.2 366.3 746.9 365 748 363 748.6 361.9 749.3 360.9 749.8 359.9 749.8 359.7 749.8 359.6 750.6 357.8 751.6 355.8 752.6 353.7 753.4 351.8 753.4 351.5 753.4 351.2 753.6 350.8 753.7 350.6 753.9 350.4 754.5 348.9 755 347.4 755.5 345.9 756.1 344 756.4 343.2 756.9 341.8 758.9 333.9 759.8 329.6 762.6 315.8 760.9 290.4 756.4 278.4 756.1 277.6 755.3 275.4 754.6 273.4 750.5 261.9 743.1 249.4 734.4 239.4 729.4 233.6 725.1 229.7 715.6 222.3 714.9 221.8 712.4 220.1 710 218.7 707.6 217.2 705.3 215.8 705 215.6 704 215 694.6 210.6 692.6 209.8 691.6 209.4 690.2 208.9 689.5 208.6 688.8 208.3 687.9 208 687.5 208 687.1 208 686.6 207.8 686.4 207.6 685.8 207.1 677.1 204.9 672 204 663.3 202.5 655.6 202 646.8 202.4M663.2 237.2C666.2 237.7 669 238.2 669.4 238.4 669.8 238.6 670.5 238.8 671 238.8 674.7 238.8 689.3 245.5 696 250.4 703.4 255.7 715.8 269 715.8 271.6 715.8 271.8 716 272.1 716.3 272.4 716.9 272.8 720.8 280.6 722 283.6 722.4 284.6 722.9 286 723.2 286.6 723.7 287.8 724.1 289.5 725.6 295.8 728.3 307.6 727.6 318.2 723 332 721.7 335.9 720.2 340 719.8 340.7 719.6 341.1 719.2 342.2 718.8 343.2 715.2 352.3 714.7 352.7 710.5 349.3 707.9 347.2 697.1 338.5 692.7 335 691.3 333.9 688 331.3 685.4 329.2 682.9 327.1 680.1 324.9 679.2 324.2 678.4 323.5 676.6 322.1 675.2 321 673.9 319.9 671.9 318.3 670.8 317.4 669.6 316.5 667.9 315.2 666.9 314.4 666 313.6 663.4 311.5 661.2 309.8 659 308 657.1 306.5 657 306.4 655.1 304.4 648.8 300 647.8 300 647.2 300 643.2 302.4 641.2 304 641 304.2 638.9 305.8 636.5 307.5 634.1 309.2 630.2 312 627.9 313.7 625.5 315.4 621.4 318.3 618.8 320.2 613.2 324.2 613.7 323.8 607.8 328.1 605.3 329.9 602.7 331.7 602.1 332.1 601.5 332.5 600.6 333.1 600.3 333.4 599.9 333.7 598.1 335.1 596.2 336.4 594.3 337.7 592.5 339.1 592.2 339.4 591.8 339.7 591.4 340 591.2 340 591.1 340 590.1 340.6 589.1 341.4 585.9 343.8 585.4 343.4 583.2 336.6 577.6 318.9 576.8 307.4 580.3 293.4 580.7 291.6 581.2 289.5 581.5 288.6 581.7 287.7 582 286.8 582.2 286.6 582.3 286.4 582.6 285.7 582.8 285 582.9 284.3 583.9 282.1 584.8 280.1 585.8 278 586.6 276.3 586.6 276.2 586.6 275.8 589.2 271.8 589.5 271.7 589.7 271.6 589.8 271.3 589.8 271.1 589.8 268.4 602.8 254.7 609.8 250 610.3 249.7 611.1 249.1 611.6 248.7 612.1 248.3 612.7 248 612.9 248 613.2 248 613.4 247.9 613.5 247.7 614.5 245.4 633.4 238.3 640.8 237.4 642.1 237.2 644 237 645 236.8 648.8 236.2 657.6 236.4 663.2 237.2M656.4 310.7C662.1 315.2 668.2 320 669.2 320.9 669.6 321.2 672.3 323.4 675.2 325.6 678.1 327.9 680.5 329.9 680.6 330 680.7 330.1 682.2 331.4 684 332.7 687.8 335.7 690.2 337.6 692.4 339.4 694.5 341.2 703.8 348.5 706.8 350.8 710.2 353.5 711.8 355 711.8 355.8 711.8 356.7 710.2 358.5 677.8 391.7 673 396.6 668.2 401.6 667 402.9 663.9 406.3 662.4 406.2 661.6 402.6 661.4 402 661.1 401.2 661 400.8 660.2 399.3 658.6 393.9 658.6 392.7 658.6 391.3 660.1 388.2 667.6 373.6 671.4 366.3 671.4 366.2 665.3 359.4 664.9 359 662.6 356.3 660.3 353.4 657.9 350.6 655.3 347.5 654.5 346.5 653.6 345.5 652.5 344 651.9 343.1L650.9 341.6 651.6 339.1C652 337.7 652.5 336 652.8 335.2 653.1 334.4 653.7 332.6 654.1 331.2 654.6 329.8 655.3 327.8 655.6 326.8 656.5 324.3 655.9 320.9 652.8 312.4 650.5 306.1 650.6 306 656.4 310.7" class="a"/><path d="M451 334L451 534 651 534 851 534 851 334 851 134 651 134 451 134 451 334M665.6 203C672.6 204 675 204.5 681.8 206.2 684.1 206.8 686.2 207.4 686.4 207.6 686.6 207.8 687.1 208 687.5 208 687.9 208 688.8 208.3 689.5 208.6 690.2 208.9 691.6 209.4 692.6 209.8 694.6 210.6 704 215 705 215.6 705.3 215.8 707.6 217.2 710 218.7 712.4 220.1 714.9 221.8 715.6 222.3 725.1 229.7 729.4 233.6 734.4 239.4 743.1 249.4 750.5 261.9 754.6 273.4 755.3 275.4 756.1 277.6 756.4 278.4 760.9 290.4 762.6 315.8 759.8 329.6 758.9 333.9 756.9 341.8 756.4 343.2 756.1 344 755.5 345.9 755 347.4 754.5 348.9 753.9 350.4 753.7 350.6 753.6 350.8 753.4 351.2 753.4 351.5 753.4 351.8 752.6 353.7 751.6 355.8 750.6 357.8 749.8 359.6 749.8 359.7 749.8 359.9 749.3 360.9 748.6 361.9 748 363 746.9 365 746.2 366.3 744.2 369.9 737.3 379.6 733.5 384 722.8 396.8 719.6 400.2 703.6 416.2 691.4 428.4 689.4 430.3 681.6 437.4 679.2 439.6 677.1 441.5 677 441.6 676.9 441.7 674.2 444.2 671 447 667.8 449.8 665 452.3 664.8 452.6 664.5 452.8 662.8 454.4 661 456 659.2 457.7 656.9 459.8 655.8 460.7 653.9 462.5 652.2 462.9 650.9 461.8 650 461.1 645.2 456.9 643.8 455.6 643.3 455.1 640.7 452.7 638.2 450.4 633.9 446.6 627.5 440.6 618.2 431.8 613.1 427 589.4 403.3 586.4 400 585.1 398.5 582.4 395.6 580.4 393.4 578.3 391.2 575.6 388.1 574.4 386.6 573.1 385.1 571.7 383.5 571.4 383.2 570.7 382.4 567.5 378.4 564.7 374.6 559.7 368 554.6 358.6 551 349.5 550.4 347.7 549.8 346 549.8 345.6 549.8 345.3 549.6 344.8 549.4 344.6 549.2 344.4 548.9 343.5 548.7 342.6 548.4 341.7 547.8 339.3 547.3 337.2 546.3 333.6 545.5 329.3 544.6 322.7 544.2 319.7 544 301.1 544.4 300.4 544.5 300.3 544.8 298.6 545 296.8 545.5 292.4 546.3 288.2 547.4 284.2 547.9 282.4 548.4 280.4 548.6 279.6 548.8 278.8 549.3 277.2 549.8 276 550.2 274.8 551 272.7 551.4 271.4 560.1 245.8 586.6 219.5 614.1 209.4 616.2 208.6 618.4 207.8 618.8 207.6 620 207.1 628.9 204.7 631 204.4 639.5 203 642.3 202.7 646.8 202.4 653.6 202.1 660.1 202.3 665.6 203M645 236.8C644 237 642.1 237.2 640.8 237.4 637.6 237.8 632 239.3 626.8 241.1 622.4 242.7 613.8 246.9 613.5 247.7 613.4 247.9 613.2 248 612.9 248 612.7 248 612.1 248.3 611.6 248.7 611.1 249.1 610.3 249.7 609.8 250 602.8 254.7 589.8 268.4 589.8 271.1 589.8 271.3 589.7 271.6 589.5 271.7 589.2 271.8 586.6 275.8 586.6 276.2 586.6 276.3 585.8 278 584.8 280.1 583.9 282.1 582.9 284.3 582.8 285 582.6 285.7 582.3 286.4 582.2 286.6 582 286.8 581.7 287.7 581.5 288.6 581.2 289.5 580.7 291.6 580.3 293.4 576.8 307.4 577.6 318.9 583.2 336.6 585.4 343.4 585.9 343.8 589.1 341.4 590.1 340.6 591.1 340 591.2 340 591.4 340 591.8 339.7 592.2 339.4 592.5 339.1 594.3 337.7 596.2 336.4 598.1 335.1 599.9 333.7 600.3 333.4 600.6 333.1 601.5 332.5 602.1 332.1 602.7 331.7 605.3 329.9 607.8 328.1 613.7 323.8 613.2 324.2 618.8 320.2 621.4 318.3 625.5 315.4 627.9 313.7 630.2 312 634.1 309.2 636.5 307.5 638.9 305.8 641 304.2 641.2 304 643.2 302.4 647.2 300 647.8 300 648.8 300 655.1 304.4 657 306.4 657.1 306.5 659 308 661.2 309.8 663.4 311.5 666 313.6 666.9 314.4 667.9 315.2 669.6 316.5 670.8 317.4 671.9 318.3 673.9 319.9 675.2 321 676.6 322.1 678.4 323.5 679.2 324.2 680.1 324.9 682.9 327.1 685.4 329.2 688 331.3 691.3 333.9 692.7 335 697.1 338.5 707.9 347.2 710.5 349.3 714.7 352.7 715.2 352.3 718.8 343.2 719.2 342.2 719.6 341.1 719.8 340.7 720.2 340 721.7 335.9 723 332 724.6 327.2 725.7 322.8 726.7 317.6 727.6 312.4 727.1 302.4 725.6 295.8 724.1 289.5 723.7 287.8 723.2 286.6 722.9 286 722.4 284.6 722 283.6 720.8 280.6 716.9 272.8 716.3 272.4 716 272.1 715.8 271.8 715.8 271.6 715.8 269 703.4 255.7 696 250.4 689.3 245.5 674.7 238.8 671 238.8 670.5 238.8 669.8 238.6 669.4 238.4 666.8 237 650.5 235.9 645 236.8M651.4 307.7C651.4 308.2 652 310 652.8 312.4 655.9 320.9 656.5 324.3 655.6 326.8 655.3 327.8 654.6 329.8 654.1 331.2 653.7 332.6 653.1 334.4 652.8 335.2 652.5 336 652 337.7 651.6 339.1L650.9 341.6 651.9 343.1C652.5 344 653.6 345.5 654.5 346.5 655.3 347.5 657.9 350.6 660.3 353.4 662.6 356.3 664.9 359 665.3 359.4 671.4 366.2 671.4 366.3 667.6 373.6 660.1 388.2 658.6 391.3 658.6 392.7 658.6 393.9 660.2 399.3 661 400.8 661.1 401.2 661.4 402 661.6 402.6 662.4 406.2 663.9 406.3 667 402.9 668.2 401.6 673 396.6 677.8 391.7 710.2 358.5 711.8 356.7 711.8 355.8 711.8 355 710.2 353.5 706.8 350.8 703.8 348.5 694.5 341.2 692.4 339.4 690.2 337.6 687.8 335.7 684 332.7 682.2 331.4 680.7 330.1 680.6 330 680.5 329.9 678.1 327.9 675.2 325.6 672.3 323.4 669.6 321.2 669.2 320.9 668.7 320.5 666.7 318.8 664.6 317.2 651.4 306.6 651.4 306.6 651.4 307.7" class="b"/><g class="selected"><path d="M646.8 202.4C642.3 202.7 639.5 203 631 204.4 628.9 204.7 620 207.1 618.8 207.6 618.4 207.8 616.2 208.6 614.1 209.4 586.6 219.5 560.1 245.8 551.4 271.4 551 272.7 550.2 274.8 549.8 276 549.3 277.2 548.8 278.8 548.6 279.6 548.4 280.4 547.9 282.4 547.4 284.2 546.3 288.2 545.5 292.4 545 296.8 544.8 298.6 544.5 300.3 544.4 300.4 544 301.1 544.2 319.7 544.6 322.7 545.5 329.3 546.3 333.6 547.3 337.2 547.8 339.3 548.4 341.7 548.7 342.6 548.9 343.5 549.2 344.4 549.4 344.6 549.6 344.8 549.8 345.3 549.8 345.6 549.8 346 550.4 347.7 551 349.5 554.6 358.6 559.7 368 564.7 374.6 567.5 378.4 570.7 382.4 571.4 383.2 571.7 383.5 573.1 385.1 574.4 386.6 575.6 388.1 578.3 391.2 580.4 393.4 582.4 395.6 585.1 398.5 586.4 400 589.4 403.3 613.1 427 618.2 431.8 627.5 440.6 633.9 446.6 638.2 450.4 640.7 452.7 643.3 455.1 643.8 455.6 645.2 456.9 650 461.1 650.9 461.8 652.2 462.9 653.9 462.5 655.8 460.7 656.9 459.8 659.2 457.7 661 456 662.8 454.4 664.5 452.8 664.8 452.6 665 452.3 667.8 449.8 671 447 674.2 444.2 676.9 441.7 677 441.6 677.1 441.5 679.2 439.6 681.6 437.4 689.4 430.3 691.4 428.4 703.6 416.2 719.6 400.2 722.8 396.8 733.5 384 737.3 379.6 744.2 369.9 746.2 366.3 746.9 365 748 363 748.6 361.9 749.3 360.9 749.8 359.9 749.8 359.7 749.8 359.6 750.6 357.8 751.6 355.8 752.6 353.7 753.4 351.8 753.4 351.5 753.4 351.2 753.6 350.8 753.7 350.6 753.9 350.4 754.5 348.9 755 347.4 755.5 345.9 756.1 344 756.4 343.2 756.9 341.8 758.9 333.9 759.8 329.6 762.6 315.8 760.9 290.4 756.4 278.4 756.1 277.6 755.3 275.4 754.6 273.4 750.5 261.9 743.1 249.4 734.4 239.4 729.4 233.6 725.1 229.7 715.6 222.3 714.9 221.8 712.4 220.1 710 218.7 707.6 217.2 705.3 215.8 705 215.6 704 215 694.6 210.6 692.6 209.8 691.6 209.4 690.2 208.9 689.5 208.6 688.8 208.3 687.9 208 687.5 208 687.1 208 686.6 207.8 686.4 207.6 685.8 207.1 677.1 204.9 672 204 663.3 202.5 655.6 202 646.8 202.4M663.2 237.2C666.2 237.7 669 238.2 669.4 238.4 669.8 238.6 670.5 238.8 671 238.8 674.7 238.8 689.3 245.5 696 250.4 703.4 255.7 715.8 269 715.8 271.6 715.8 271.8 716 272.1 716.3 272.4 716.9 272.8 720.8 280.6 722 283.6 722.4 284.6 722.9 286 723.2 286.6 723.7 287.8 724.1 289.5 725.6 295.8 728.3 307.6 727.6 318.2 723 332 721.7 335.9 720.2 340 719.8 340.7 719.6 341.1 719.2 342.2 718.8 343.2 715.2 352.3 714.7 352.7 710.5 349.3 707.9 347.2 697.1 338.5 692.7 335 691.3 333.9 688 331.3 685.4 329.2 682.9 327.1 680.1 324.9 679.2 324.2 678.4 323.5 676.6 322.1 675.2 321 673.9 319.9 671.9 318.3 670.8 317.4 669.6 316.5 667.9 315.2 666.9 314.4 666 313.6 663.4 311.5 661.2 309.8 659 308 657.1 306.5 657 306.4 655.1 304.4 648.8 300 647.8 300 647.2 300 643.2 302.4 641.2 304 641 304.2 638.9 305.8 636.5 307.5 634.1 309.2 630.2 312 627.9 313.7 625.5 315.4 621.4 318.3 618.8 320.2 613.2 324.2 613.7 323.8 607.8 328.1 605.3 329.9 602.7 331.7 602.1 332.1 601.5 332.5 600.6 333.1 600.3 333.4 599.9 333.7 598.1 335.1 596.2 336.4 594.3 337.7 592.5 339.1 592.2 339.4 591.8 339.7 591.4 340 591.2 340 591.1 340 590.1 340.6 589.1 341.4 585.9 343.8 585.4 343.4 583.2 336.6 577.6 318.9 576.8 307.4 580.3 293.4 580.7 291.6 581.2 289.5 581.5 288.6 581.7 287.7 582 286.8 582.2 286.6 582.3 286.4 582.6 285.7 582.8 285 582.9 284.3 583.9 282.1 584.8 280.1 585.8 278 586.6 276.3 586.6 276.2 586.6 275.8 589.2 271.8 589.5 271.7 589.7 271.6 589.8 271.3 589.8 271.1 589.8 268.4 602.8 254.7 609.8 250 610.3 249.7 611.1 249.1 611.6 248.7 612.1 248.3 612.7 248 612.9 248 613.2 248 613.4 247.9 613.5 247.7 614.5 245.4 633.4 238.3 640.8 237.4 642.1 237.2 644 237 645 236.8 648.8 236.2 657.6 236.4 663.2 237.2M656.4 310.7C662.1 315.2 668.2 320 669.2 320.9 669.6 321.2 672.3 323.4 675.2 325.6 678.1 327.9 680.5 329.9 680.6 330 680.7 330.1 682.2 331.4 684 332.7 687.8 335.7 690.2 337.6 692.4 339.4 694.5 341.2 703.8 348.5 706.8 350.8 710.2 353.5 711.8 355 711.8 355.8 711.8 356.7 710.2 358.5 677.8 391.7 673 396.6 668.2 401.6 667 402.9 663.9 406.3 662.4 406.2 661.6 402.6 661.4 402 661.1 401.2 661 400.8 660.2 399.3 658.6 393.9 658.6 392.7 658.6 391.3 660.1 388.2 667.6 373.6 671.4 366.3 671.4 366.2 665.3 359.4 664.9 359 662.6 356.3 660.3 353.4 657.9 350.6 655.3 347.5 654.5 346.5 653.6 345.5 652.5 344 651.9 343.1L650.9 341.6 651.6 339.1C652 337.7 652.5 336 652.8 335.2 653.1 334.4 653.7 332.6 654.1 331.2 654.6 329.8 655.3 327.8 655.6 326.8 656.5 324.3 655.9 320.9 652.8 312.4 650.5 306.1 650.6 306 656.4 310.7" class="a"/><path d="M451 334L451 534 651 534 851 534 851 334 851 134 651 134 451 134 451 334M665.6 203C672.6 204 675 204.5 681.8 206.2 684.1 206.8 686.2 207.4 686.4 207.6 686.6 207.8 687.1 208 687.5 208 687.9 208 688.8 208.3 689.5 208.6 690.2 208.9 691.6 209.4 692.6 209.8 694.6 210.6 704 215 705 215.6 705.3 215.8 707.6 217.2 710 218.7 712.4 220.1 714.9 221.8 715.6 222.3 725.1 229.7 729.4 233.6 734.4 239.4 743.1 249.4 750.5 261.9 754.6 273.4 755.3 275.4 756.1 277.6 756.4 278.4 760.9 290.4 762.6 315.8 759.8 329.6 758.9 333.9 756.9 341.8 756.4 343.2 756.1 344 755.5 345.9 755 347.4 754.5 348.9 753.9 350.4 753.7 350.6 753.6 350.8 753.4 351.2 753.4 351.5 753.4 351.8 752.6 353.7 751.6 355.8 750.6 357.8 749.8 359.6 749.8 359.7 749.8 359.9 749.3 360.9 748.6 361.9 748 363 746.9 365 746.2 366.3 744.2 369.9 737.3 379.6 733.5 384 722.8 396.8 719.6 400.2 703.6 416.2 691.4 428.4 689.4 430.3 681.6 437.4 679.2 439.6 677.1 441.5 677 441.6 676.9 441.7 674.2 444.2 671 447 667.8 449.8 665 452.3 664.8 452.6 664.5 452.8 662.8 454.4 661 456 659.2 457.7 656.9 459.8 655.8 460.7 653.9 462.5 652.2 462.9 650.9 461.8 650 461.1 645.2 456.9 643.8 455.6 643.3 455.1 640.7 452.7 638.2 450.4 633.9 446.6 627.5 440.6 618.2 431.8 613.1 427 589.4 403.3 586.4 400 585.1 398.5 582.4 395.6 580.4 393.4 578.3 391.2 575.6 388.1 574.4 386.6 573.1 385.1 571.7 383.5 571.4 383.2 570.7 382.4 567.5 378.4 564.7 374.6 559.7 368 554.6 358.6 551 349.5 550.4 347.7 549.8 346 549.8 345.6 549.8 345.3 549.6 344.8 549.4 344.6 549.2 344.4 548.9 343.5 548.7 342.6 548.4 341.7 547.8 339.3 547.3 337.2 546.3 333.6 545.5 329.3 544.6 322.7 544.2 319.7 544 301.1 544.4 300.4 544.5 300.3 544.8 298.6 545 296.8 545.5 292.4 546.3 288.2 547.4 284.2 547.9 282.4 548.4 280.4 548.6 279.6 548.8 278.8 549.3 277.2 549.8 276 550.2 274.8 551 272.7 551.4 271.4 560.1 245.8 586.6 219.5 614.1 209.4 616.2 208.6 618.4 207.8 618.8 207.6 620 207.1 628.9 204.7 631 204.4 639.5 203 642.3 202.7 646.8 202.4 653.6 202.1 660.1 202.3 665.6 203M645 236.8C644 237 642.1 237.2 640.8 237.4 637.6 237.8 632 239.3 626.8 241.1 622.4 242.7 613.8 246.9 613.5 247.7 613.4 247.9 613.2 248 612.9 248 612.7 248 612.1 248.3 611.6 248.7 611.1 249.1 610.3 249.7 609.8 250 602.8 254.7 589.8 268.4 589.8 271.1 589.8 271.3 589.7 271.6 589.5 271.7 589.2 271.8 586.6 275.8 586.6 276.2 586.6 276.3 585.8 278 584.8 280.1 583.9 282.1 582.9 284.3 582.8 285 582.6 285.7 582.3 286.4 582.2 286.6 582 286.8 581.7 287.7 581.5 288.6 581.2 289.5 580.7 291.6 580.3 293.4 576.8 307.4 577.6 318.9 583.2 336.6 585.4 343.4 585.9 343.8 589.1 341.4 590.1 340.6 591.1 340 591.2 340 591.4 340 591.8 339.7 592.2 339.4 592.5 339.1 594.3 337.7 596.2 336.4 598.1 335.1 599.9 333.7 600.3 333.4 600.6 333.1 601.5 332.5 602.1 332.1 602.7 331.7 605.3 329.9 607.8 328.1 613.7 323.8 613.2 324.2 618.8 320.2 621.4 318.3 625.5 315.4 627.9 313.7 630.2 312 634.1 309.2 636.5 307.5 638.9 305.8 641 304.2 641.2 304 643.2 302.4 647.2 300 647.8 300 648.8 300 655.1 304.4 657 306.4 657.1 306.5 659 308 661.2 309.8 663.4 311.5 666 313.6 666.9 314.4 667.9 315.2 669.6 316.5 670.8 317.4 671.9 318.3 673.9 319.9 675.2 321 676.6 322.1 678.4 323.5 679.2 324.2 680.1 324.9 682.9 327.1 685.4 329.2 688 331.3 691.3 333.9 692.7 335 697.1 338.5 707.9 347.2 710.5 349.3 714.7 352.7 715.2 352.3 718.8 343.2 719.2 342.2 719.6 341.1 719.8 340.7 720.2 340 721.7 335.9 723 332 724.6 327.2 725.7 322.8 726.7 317.6 727.6 312.4 727.1 302.4 725.6 295.8 724.1 289.5 723.7 287.8 723.2 286.6 722.9 286 722.4 284.6 722 283.6 720.8 280.6 716.9 272.8 716.3 272.4 716 272.1 715.8 271.8 715.8 271.6 715.8 269 703.4 255.7 696 250.4 689.3 245.5 674.7 238.8 671 238.8 670.5 238.8 669.8 238.6 669.4 238.4 666.8 237 650.5 235.9 645 236.8M651.4 307.7C651.4 308.2 652 310 652.8 312.4 655.9 320.9 656.5 324.3 655.6 326.8 655.3 327.8 654.6 329.8 654.1 331.2 653.7 332.6 653.1 334.4 652.8 335.2 652.5 336 652 337.7 651.6 339.1L650.9 341.6 651.9 343.1C652.5 344 653.6 345.5 654.5 346.5 655.3 347.5 657.9 350.6 660.3 353.4 662.6 356.3 664.9 359 665.3 359.4 671.4 366.2 671.4 366.3 667.6 373.6 660.1 388.2 658.6 391.3 658.6 392.7 658.6 393.9 660.2 399.3 661 400.8 661.1 401.2 661.4 402 661.6 402.6 662.4 406.2 663.9 406.3 667 402.9 668.2 401.6 673 396.6 677.8 391.7 710.2 358.5 711.8 356.7 711.8 355.8 711.8 355 710.2 353.5 706.8 350.8 703.8 348.5 694.5 341.2 692.4 339.4 690.2 337.6 687.8 335.7 684 332.7 682.2 331.4 680.7 330.1 680.6 330 680.5 329.9 678.1 327.9 675.2 325.6 672.3 323.4 669.6 321.2 669.2 320.9 668.7 320.5 666.7 318.8 664.6 317.2 651.4 306.6 651.4 306.6 651.4 307.7" class="b"/></g></g></svg>