
<svg xmlns="http://www.w3.org/2000/svg" xml:space="preserve" width="225mm" height="137mm" fill-rule="evenodd" clip-rule="evenodd" image-rendering="optimizeQuality" shape-rendering="geometricPrecision" text-rendering="geometricPrecision" viewBox="0 0 2250 1370">
<!--  <rect width="100%" height="100%" fill="#111"/> -->
  
  <g stroke="#fff" stroke-width="40"
     stroke-linejoin="round" stroke-linecap="round"
     fill="none">
    <path fill="#fff" fill-rule="nonzero" d="M1937.203 1264.388c.527 3.978.947 7.752-.245 11.608-1.299 4.136-4.496 7.43-4.316 12.289.034.362-.39.763-.6 1.166-1.544 2.61-2.984 5.261-4.596 7.831a7196 7196 0 0 1-17.026 27.431c-.282.362-.878.483-1.333.724-.844.482-1.898.763-2.563 1.485-2.07 2.249-4.179 4.339-6.811 5.986-4.351 2.69-8.847 3.212-13.477 2.289-2.773-.524-5.585-1.647-8.041-3.214-2.212-1.365-4.072-3.535-5.826-5.662-5.053-6.147-6.704-13.376-4.458-21.487.349-1.246-.316-3.857 1.861-3.535 1.264.2 2.456 1.486 3.545 2.489.386.362.492 1.326.455 2.008-.104 1.527-.49 3.013-.596 4.54-.631 7.429 3.579 17.11 12.671 20 7.303 2.33 14.534-.562 19.168-8.032 7.335-11.848 14.39-23.978 21.87-35.745 3.858-6.065 7.227-12.089 5.653-20.242 1.505-.642 2.946-1.205 4.665-1.929"/><path fill-rule="nonzero" d="m1947.559 1226.073-.069-.08c.947.723 1.822 1.567 2.666 2.451 0 .199 2.315 3.293 2.564 3.734.561.965 1.088 1.928 1.612 2.892.107.281.317.683.527 1.125.351 2.891 1.299 5.662 2.88 8.072v.042c-.21.561-.458 1.083-.703 1.645-.21.482-.386.843-.493 1.085a44 44 0 0 1-2.246 3.614c-.176.282-.489.602-.771.964a11.9 11.9 0 0 0-3.128 2.088c-.349-.04-.524-.079-.628 0-2.563 2.331-5.16 4.62-7.651 7.069-.458.483-.737 1.607-.669 2.41.176 2.651.772 5.302.738 7.953 0 2.169-.596 4.337-1.158 6.386-.809 2.811-1.615 5.703-2.88 8.273-1.509 2.932-3.579 5.502-5.336 8.313-3.508 5.583-6.915 11.246-10.425 16.869-1.685 2.73-3.511 5.342-5.161 8.113-2.139 3.493-4.141 7.068-6.246 10.563a23.8 23.8 0 0 1-8.74 8.433c-2.949 1.647-6.284 3.053-9.516 3.294-3.858.241-7.827.081-11.689-1.647-3.789-1.726-6.773-4.418-9.653-7.471-2.735-2.971-4.316-6.786-5.684-10.723-1.406-4.056-1.792-8.273-1.582-12.529.211-4.339 2.774-8.234 2.143-12.854-.034-.281.386-.682.593-1.044 1.406-2.368 2.846-4.738 4.251-7.109 2.949-4.94 5.826-9.96 8.847-14.86a764 764 0 0 1 10.318-16.306c.527-.802 1.547-1.204 2.353-1.846.493-.081.596-.763.913-1.167 3.965-4.738 7.583-9.999 13.477-11.766a49 49 0 0 1 7.9-1.768c3.3-.442 6.425.161 9.302-3.374 3.651-4.498 8.388-7.751 12.671-11.525.878-.764.951-1.406.175-2.452l.879-.079c-.562.12 3.335.362 3.824.482.458.079.917.2 1.337.281q.263.12 1.157.482c.596.281 2.984 1.928 3.301 1.967m.737 23.897c1.753-1.445 1.929-2.892.665-4.94-3.053 2.973-6.036 5.824-8.951 8.795-.527.523-.665 1.608-.981 2.41l.565.643c1.154-.562 2.453-.924 3.472-1.766 1.826-1.567 3.369-3.615 5.23-5.142m-3.58-18.555c1.192-.603 1.192-1.366.245-2.811-3.931 3.695-7.827 7.309-11.724 10.964-.947.844-1.967 1.647-2.739 2.732-.454.601-.42 1.686-.63 2.57l.63-.081c1.017-.963 2.071-1.928 3.087-2.932 3.022-2.971 6.039-5.984 9.096-8.955.63-.603 1.333-1.125 2.035-1.487m-.878 7.19c-1.719 0-8.74 6.105-9.653 8.675 3.755-1.969 6.387-5.583 9.653-8.675m-6.88 37.391c1.192-3.856.772-7.63.245-11.608-1.719.724-3.16 1.287-4.665 1.929 1.574 8.153-1.795 14.177-5.653 20.242-7.48 11.767-14.535 23.897-21.87 35.745-4.634 7.47-11.865 10.362-19.168 8.032-9.092-2.89-13.302-12.571-12.671-20 .106-1.527.492-3.013.596-4.54.037-.682-.069-1.646-.455-2.008-1.089-1.003-2.281-2.289-3.545-2.489-2.177-.322-1.512 2.289-1.861 3.535-2.246 8.111-.595 15.34 4.458 21.487 1.754 2.127 3.614 4.297 5.826 5.662 2.456 1.567 5.268 2.69 8.041 3.214 4.63.923 9.126.401 13.477-2.289 2.632-1.647 4.741-3.737 6.811-5.986.665-.722 1.719-1.003 2.563-1.485.455-.241 1.051-.362 1.333-.724a7196 7196 0 0 0 17.026-27.431c1.612-2.57 3.052-5.221 4.596-7.831.21-.403.634-.804.6-1.166-.18-4.859 3.017-8.153 4.316-12.289m-1.375-15.904c.248-.162.076-1.206.076-2.53-1.895 1.405-3.231 2.41-4.599 3.372.317.362.737 1.086.913 1.005 1.23-.483 2.491-1.084 3.61-1.847m-9.542 22.33c2.563-3.775 4.282-7.993 4.003-12.932-.073-.804-.317-1.567-.459-2.41-2.7.683-5.019.562-6.669-2.37-.21-.362-1.158-.362-1.754-.362-1.86 0-3.335-.681-4.213-2.69-.245-.643-.806-1.085-1.158-1.647-.702-1.164-1.546-2.289-1.967-3.574-.561-1.767-1.474-2.691-2.983-1.969-2.739 1.366-5.23 3.254-7.163 5.986l-.172.842c.21 4.177-2.67 6.627-4.354 9.721-1.578 2.89-3.511 5.582-5.265 8.394a569 569 0 0 0-4.985 8.152c-2.211 3.614-4.316 7.309-6.6 10.844-1.613 2.449-3.511 4.699-5.161 7.109-.596.802-1.261 1.888-1.261 2.851.069 5.141.244 10.323 3.859 14.217 2.773 2.974 5.897 4.82 9.901 5.101 5.932.443 10.073-2.41 13.339-7.791 2.491-4.136 5.23-8.113 7.793-12.21 3.193-5.14 6.353-10.321 9.443-15.502.947-1.608 1.543-3.415 2.491-5.02 1.013-1.647 2.246-3.133 3.335-4.74m2.352-29.881c.421-.362.913-.602 1.613-1.084-4.809-5.423-10.952-6.747-16.988-6.988-7.968-.362-13.305 5.381-17.942 12.731a348 348 0 0 1 5.271 3.373c4.386-7.511 10.246-10.723 17.759-9.679 1.933.282 4.004.964 5.613 2.129 1.901 1.405 3.2.802 4.674-.482"/><path fill="#fff" fill-rule="nonzero" d="M1930.006 1251.457c-.7.482-1.192.722-1.613 1.084-1.474 1.284-2.773 1.887-4.674.482-1.609-1.165-3.68-1.847-5.613-2.129-7.513-1.044-13.373 2.168-17.759 9.679-1.65-1.084-3.3-2.128-5.271-3.373 4.637-7.35 9.974-13.093 17.942-12.731 6.036.241 12.179 1.565 16.988 6.988"/><path fill="none" stroke="#000" stroke-miterlimit="10" stroke-width="2.816" d="M1869.772 1301.299c-2.177-.322-1.512 2.289-1.861 3.535-2.246 8.111-.595 15.34 4.458 21.487 1.754 2.127 3.614 4.297 5.826 5.662 2.456 1.567 5.268 2.69 8.041 3.214 4.63.923 9.126.401 13.477-2.289 2.632-1.647 4.741-3.737 6.811-5.986.665-.722 1.719-1.003 2.563-1.485.455-.241 1.051-.362 1.333-.724a7196 7196 0 0 0 17.026-27.431c1.612-2.57 3.052-5.221 4.596-7.831.21-.403.634-.804.6-1.166-.18-4.859 3.017-8.153 4.316-12.289 1.192-3.856.772-7.63.245-11.608-1.719.724-3.16 1.287-4.665 1.929 1.574 8.153-1.795 14.177-5.653 20.242-7.48 11.767-14.535 23.897-21.87 35.745-4.634 7.47-11.865 10.362-19.168 8.032-9.092-2.89-13.302-12.571-12.671-20 .106-1.527.492-3.013.596-4.54.037-.682-.069-1.646-.455-2.008-1.089-1.003-2.281-2.289-3.545-2.489z"/><path fill-rule="nonzero" d="M2222.715 1148.087c3.29.749 4.331 2.556 3.404 6.766-2.023 9.334-4.086 18.622-6.109 27.909a4912 4912 0 0 1-4.954 22.059c-.468 2.08-1.639 3.116-3.376 3.586-5.987 1.523-11.93 3.239-17.914 4.761-2.546.679-5.223 1.988-7.476-.708-1.313-1.562-2.591-3.171-3.983-4.587-2.297-2.358-4.633-4.62-7.427-7.352-.207 2.94-.283 4.965-.476 6.942-.189 1.834.328 2.882 1.737 3.574 3.651 1.752 7.262 3.699 10.914 5.643 3.156 1.666 3.769 3.725 2.157 7.657-2.664 6.653-5.444 13.26-8.145 19.913-3.142 7.626-6.29 15.251-9.429 22.877-1.009 2.427-2.525 3.423-4.751 3.375-6.49-.104-13.022-.014-19.513.075-2.418.004-4.203-1.066-5.615-3.491-1.895-3.33-3.831-6.611-6.036-9.647-6.064-8.249-13.233-14.932-20.998-20.546-4.923-3.554-4.999-3.552-3.628-10.949.383-1.836.29-2.99-1.357-3.484-3.738-1.173-7.435-2.588-11.217-3.663-14.094-4.034-28.457-6.185-42.995-7.033-6.828-.434-13.715.147-20.591.243l-.076.002-.079-.047c-1.017-1.036-2.033-2.074-2.932-3.259l-.3-.378-.296-.621c-.737-1.428-1.481-2.809-2.102-4.335l-.186-.431c-.072-.24-.141-.525-.255-.909-.32-1.148-.603-2.298-.889-3.447.09-.724.221-1.449.273-2.124.134-1.015.193-2.074.21-3.135.041-2.022-.073-4.09-.221-6.108a13.6 13.6 0 0 0 4.779-2.942c1.484-1.38 2.976-3.05 4.354-4.86 8.634-3.457 17.195-7.297 25.931-10.178 7.694-2.522 15.589-3.7 23.348-5.743 8.764-2.304 17.615-3.261 26.462-3.883 7.768-.55 15.575-1.053 23.34-1.457 4.262-.186 8.568-.133 12.678-.172.858-2.667 1.072-5.849 2.36-6.887 4.1-3.361 8.241-7.011 13.139-8.174 1.892-.474 3.811-.467 5.737-.603 3.806-.322 7.658-.933 11.42-.82 5.488.221 10.928.924 16.371 1.578 3.18.319 6.36.732 9.498 1.389 5.082 1.095 10.129 2.48 15.214 3.624m-1.709 8.943c.507-2.273.293-3.183-1.619-3.527-8.189-1.561-16.371-3.458-24.602-4.872-4.633-.768-9.349-1.101-14.038-1.051-4.803.054-9.657.831-14.466 1.366-.503.059-1.285.894-1.375 1.475-1.092 6.859-2.108 13.765-3.08 20.333 5.275 1.285 10.473 2.62 15.634 3.81 1.719.396 2.626 1.244 1.771 3.814 11.772 4.661 22.355 11.658 32.305 21.654 1.047-4.837 2.015-8.997 2.942-13.157 2.15-9.963 4.265-19.926 6.528-29.845m-28.277 50.287c4.599-1.494 9.305-2.557 14.132-3.862-7.99-8.065-21.491-16.926-28.181-18.421-.324.825-.765 1.702-1.051 2.67-1.519 5.135-1.089 6.668 2.267 9.87 2.601 2.448 5.164 4.994 7.455 7.786 1.613 1.939 3.018 2.777 5.378 1.957m-9.126 17.091c.723-1.749.468-2.369-.903-3.013-5.061-2.444-10.001-5.181-15.103-7.479-1.257-.6-2.984-.612-4.265-.007-5.078 2.515-9.509 3.283-14.625-.412-4.923-3.652-10.924-5.112-16.75-7.686-1.174 3.25-2.187 5.921-3.124 8.589-1.013 2.861-1.954 5.674-2.929 8.487-.568 1.648-.472 2.609 1.127 3.298 9.298 3.847 17.863 9.588 25.518 17.033 4.978 4.853 9.398 10.633 14.094 15.973.565.663 1.088 1.327 1.836 2.272 2.38-5.827 4.561-11.362 6.78-16.801 2.742-6.799 5.484-13.548 8.344-20.254m-8.775-42.855c.507-2.371.145-3.47-1.846-3.716-6.632-.823-13.216-1.84-19.848-2.565-7.665-.849-15.365.084-23.04 1.74-1.62.324-2.322 1.061-2.591 3.04-.448 3.139-1.158 6.188-1.681 9.328-.211 1.063-.231 2.122-.379 3.619 15.943-.002 31.071 2.086 45.103 11.369.727-3.771 1.367-7.202 2.012-10.683.73-4.011 1.385-8.117 2.27-12.132m-16.447-21.365 1.45-7.686-.757-.321c-1.427 2.197-4.493 1.828-5.409 5.506.885.031 1.464-.174 1.843.058.834.608 2.088 1.304 2.222 2.264.138.911-.623 2.468-1.33 3.302-1.061 1.178-3.59.845-3.141 3.388.248 1.247 2.115 1.978 3.362 3.011.603-3.287 1.202-6.43 1.76-9.522m-10.135 7.774c.134-1.208.313-2.367.534-3.864-1.227-.022-2.377-.141-3.531-.069-8.841.283-17.715.424-26.559.996-6.883.386-13.766.87-20.625 2.074-14.801 2.625-29.577 6.067-44.043 11.332-6.036 2.15-11.927 5.068-17.621 7.498.124 1.587.182 2.453.244 3.318.021.818-.037 1.687-.024 3.227 35.705-23 73.263-27.022 111.625-24.512m-26.82 8.414c.858-.596 1.605-1.478 2.204-2.742-20.525.965-40.844 3.032-60.595 11.347.031.335.031.673.02 1.011 1.344-.03 2.684.136 3.993-.037 2.543-.391 5.054-1.166 7.559-1.46 4.926-.538 9.887-.884 14.807-1.18 4.575-.193 9.147-.291 13.677-.243 3.266-.021 6.483.296 9.863.465 1.843-3.986 5.399-5.121 8.472-7.161m-7.817 30.836c1.874.44 2.842-.109 3.011-2.712-3.339-.17-4.717-2.308-4.293-6.409.279-2.462-.441-3.071-2.477-2.932-4.613.241-9.26.245-13.911.343-2.305.048-4.606-.095-6.914.098-6.115.419-12.272.982-18.39 1.545-.424.057-.889.403-1.368 1.232 2.298.385 4.63.865 6.966 1.248 3.562.552 7.166.86 10.724 1.602a1015 1015 0 0 1 26.652 5.985m-.038 8.04c-.413-.568-.779-1.524-1.275-1.61a1561 1561 0 0 0-29.035-6.029c-4.782-.958-9.564-1.916-14.394-2.391-7.706-.703-15.42-1.021-23.13-1.483-1.457-.114-2.873-.517-4.293-.487-.964.068-1.856.713-2.787 1.069l.104.625c4.454.05 8.874-.189 13.246.152 7.635.562 15.262 1.218 22.845 2.357 7.548 1.091 15.079 2.618 22.575 4.384 4.82 1.102 9.467 2.978 14.242 4.368.534.134 1.278-.605 1.902-.955m-1.147-24.193c1.078-2.092.758-3.29-1.316-3.341-3.342-.074-6.729.285-10.07.309-3.576.028-7.104-.187-10.67-.304-.424.01-.885-.03-1.309.029-9.626 1.311-19.286 2.382-28.918 3.934-5.278.834-10.532 2.341-15.816 3.609-.617.109-1.168.699-1.751 1.095.107.385.179.719.286 1.103 1.926-.282 3.848-.467 5.778-.846 4.547-.866 9.102-1.877 13.649-2.696 2.698-.539 5.433-1.03 8.13-1.328 5.616-.551 11.197-1.104 16.809-1.462 3.694-.176 7.411.179 11.1.053 3.921-.13 7.845-.503 11.765-.684.772-.063 1.533.305 2.333.529"/><path fill="#62bdff" fill-rule="nonzero" d="M2219.387 1153.503c1.912.344 2.126 1.254 1.619 3.527-2.263 9.919-4.378 19.882-6.528 29.845-.927 4.16-1.895 8.32-2.942 13.157-9.95-9.996-20.533-16.993-32.305-21.654.855-2.57-.052-3.418-1.771-3.814-5.161-1.19-10.359-2.525-15.634-3.81.972-6.568 1.988-13.474 3.08-20.333.09-.581.872-1.416 1.375-1.475 4.809-.535 9.663-1.312 14.466-1.366 4.689-.05 9.405.283 14.038 1.051 8.231 1.414 16.413 3.311 24.602 4.872"/><path fill-rule="nonzero" d="M2206.861 1203.455c-4.827 1.305-9.533 2.368-14.132 3.862-2.36.82-3.765-.018-5.378-1.957-2.291-2.792-4.854-5.338-7.455-7.786-3.356-3.202-3.786-4.735-2.267-9.87.286-.968.727-1.845 1.051-2.67 6.69 1.495 20.191 10.356 28.181 18.421"/><path fill="#44e800" fill-rule="nonzero" d="M2182.7 1221.395c1.371.644 1.626 1.264.903 3.013-2.86 6.706-5.602 13.455-8.344 20.254-2.219 5.439-4.4 10.974-6.78 16.801-.748-.945-1.271-1.609-1.836-2.272-4.696-5.34-9.116-11.12-14.094-15.973-7.655-7.445-16.22-13.186-25.518-17.033-1.599-.689-1.695-1.65-1.127-3.298.975-2.813 1.916-5.626 2.929-8.487.937-2.668 1.95-5.339 3.124-8.589 5.826 2.574 11.827 4.034 16.75 7.686 5.116 3.695 9.547 2.927 14.625.412 1.281-.605 3.008-.593 4.265.007 5.102 2.298 10.042 5.035 15.103 7.479"/><path fill="#ff6266" fill-rule="nonzero" d="M2172.982 1177.837c1.991.246 2.353 1.345 1.846 3.716-.885 4.015-1.54 8.121-2.27 12.132-.645 3.481-1.285 6.912-2.012 10.683-14.032-9.283-29.16-11.371-45.103-11.369.148-1.497.168-2.556.379-3.619.523-3.14 1.233-6.189 1.681-9.328.269-1.979.971-2.716 2.591-3.04 7.675-1.656 15.375-2.589 23.04-1.74 6.632.725 13.216 1.742 19.848 2.565"/><path fill-rule="nonzero" d="m2159.074 1152.181.757.321c-.468 2.561-.978 5.076-1.45 7.686-.558 3.092-1.157 6.235-1.76 9.522-1.247-1.033-3.114-1.764-3.362-3.011-.449-2.543 2.08-2.21 3.141-3.388.707-.834 1.468-2.391 1.33-3.302-.134-.96-1.388-1.656-2.222-2.264-.379-.232-.958-.027-1.843-.058.916-3.678 3.982-3.309 5.409-5.506M1694.585 944.37c-7.513-.743-14.993-1.342-22.048-4.799-4.799-2.364-9.171-.071-11.393 5.045-5.151 11.889-9.633 23.883-11.855 36.759-1.619 9.102-4.41 17.71-11.32 24.907-3.673 3.844-5.189 9.842-7.235 15.063-1.199 3.034-2.543 5.326-5.75 6.668-4.654 1.974-9.491 3.88-13.443 6.879-3.917 2.998-6.914 7.267-9.277 9.842-.142 7.338.427 13.582-.531 19.544-1.55 9.102 2.084 17.252 3.776 25.681.565 2.717 3.635 4.87 5.433 7.375 9.312 12.629 5.715 15.946-6.243 21.978-8.468 4.198-16.119 2.68-23.953-.882-3.811-1.73-7.621-3.564-11.569-4.975-6.811-2.434-10.904-7.479-11.644-14.287-1.906-17.497-9.244-33.443-13.23-50.307-1.802-7.548-1.87-15.485-3.176-23.142-.917-5.468-2.363-10.864-4.196-16.085-1.485-4.2-3.914-8.079-6.032-12.031-2.31-4.304-3.607-8.721-3.632-13.244v-.278c.016-2.505.422-5.042 1.265-7.61 2.084-6.42 4.058-12.876 6.845-19.013 9.106-20.251 18.807-40.182 27.626-60.574 3.383-7.901 5.816-16.545 6.839-25.082.741-6.173-.844-12.947-2.856-18.979-1.657-4.975-.6-8.643 1.764-12.629 9.029-14.957 22.048-24.025 39.053-28.293 12.699-3.211 15.097-10.019 21.66-12.17 2.153.492 3.035 2.468 4.94 3.915 3.738-1.588 4.727-3.564 3.28-7.409-6.632-17.604-7.056-35.665-1.478-53.481 4.795-15.556 10.896-30.656 16.295-46.037 3.81-10.866 7.372-21.802 10.866-32.739 5.185-16.155 14.814-28.539 29.669-37.005 10.16-5.82 20.495-11.254 29.173-19.578 5.998-5.682 13.794-9.526 21.167-13.478 7.655-4.057 14.5-8.466 18.028-16.898 1.657-3.881 2.222-7.443.424-11.324-4.059-8.995-8.079-17.956-11.996-26.987-1.764-4.128-2.787-8.573-4.761-12.523-3.39-6.668-3.776-15.453-13.478-17.921-2.47-.6-4.302-4.905-5.715-7.867-4.124-8.89-8.254-17.817-11.748-26.987-9.277-24.449-17.566-49.25-27.516-73.379-5.608-13.547-8.819-27.764-14.145-41.311-1.13-2.857-2.436-5.715-3.81-8.466-8.186-16.087-14.077-32.914-17.956-50.624-2.577-11.711-7.8-22.86-11.851-34.22-.603-1.586-1.943-3.033-2.05-4.62-.672-9.562-7.652-11.572-15.134-12.418-20.637-2.328-41.204-5.15-61.489-9.701-6.563-1.483-13.267-2.153-19.933-3.386-2.646-.531-5.219-1.554-9.419-2.824 2.787-3.421 4.41-6.668 6.987-8.183 12.981-7.692 25.294-16.652 39.825-21.52 3.142-1.058 6.211-2.646 9.033-4.481 6.842-4.339 14.535-6.631 22.224-7.197a24 24 0 0 1 1.763-.063c4.875.003 10.372 1.41 14.082 4.049 8.109 5.716 16.757 11.078 21.762 20.568 2.363 4.445 7.372 7.372 11.042 11.218 5.925 6.316 11.323 13.123 17.57 19.121 13.263 12.771 27.161 25.011 40.466 37.782 9.346 8.995 15.906 20.003 22.048 31.397 4.689 8.608 7.194 17.71 9.805 26.953.916 3.457 2.715 6.809 4.868 9.736 12.382 17.322 25.015 34.502 37.641 51.683 1.94 2.68 4.41 5.044 6.632 7.584 5.75 6.386 11.465 12.876 17.322 19.191 4.726 5.116 9.594 10.231 14.71 14.993 7.338 6.915 14.856 13.653 19.296 22.895a277 277 0 0 1 7.762 17.604c2.046 5.187 3.776 10.479 5.574 15.77.459 1.269.917 2.575 1.165 3.915.599 3.422 1.057 6.844 1.516 9.807-3.387 4.622-6.563 9.738-10.511 14.218-3.669 4.198-8.182 7.725-12.206 11.606-7.762 7.337-12.031 16.051-10.163 27.904-2.57 1.059-5.361 2.187-8.079 3.352-4.689 2.01-5.536 5.08-2.291 8.961 4.727 5.608 7.055 11.994 6.773 19.261a953 953 0 0 1-1.164 20.178c-.318 4.375.706 8.22 3.245 11.889 2.787 3.881 4.692 8.396 7.586 12.136 5.574 7.162 13.58 9.208 21.942 7.515 4.726-.953 8.395-1.342 12.633 1.375 5.605 3.598 6.311 3.21 11.179-1.835.951-.987 2.188-1.693 3.456-2.68 4.199 3.527 3.707 8.042 3.6 12.664 4.127 2.575 7.055.494 9.029-2.822 2.722-4.551 4.872-9.419 7.235-14.181.6-1.236 1.164-2.471 2.115-4.551 2.856 3.881 5.292 7.231 7.938 10.866 2.363-2.047 4.199-2.824 4.268-3.776 1.165-10.23 9.243-17.179 12.279-26.564.916-2.857 4.302-5.08 6.841-7.126 2.471-1.905 5.223-3.423 8.011-4.763 19.299-9.277 24.163-29.562 23.071-45.825-1.023-15.275-7.727-28.716-15.664-41.381-5.151-8.22-13.76-12.242-22.825-15.063-2.401-.741-4.867-1.306-7.231-1.905-2.012-1.482-10.549-3.246-11.996-3.494-4.867-.882-9.701-2.151-14.534-3.279.141-.777 0-1.623.282-1.73 8.82-4.198 17.498-9.278 26.775-12.03 5.506-1.587 13.054-1.199 17.994 1.447 11.252 6.032 22.576 12.63 30.762 23.106.633.882 1.164 2.047 2.008 2.682 17.115 13.3 24.977 31.185 27.202 52.388.951 8.854-.988 16.509-4.795 24.129-1.519 2.999-2.967 6.139-3.707 9.349-.565 2.54 0 5.362.103 8.044l.355.775c2.928 10.549-2.894 18.309-13.794 17.181-7.548-.812-11.889 2.363-14.676 8.466-2.505 5.611-4.41 11.465-6.35 17.286-1.481 4.41.882 7.55 3.845 10.444 6.666 6.454 13.722 12.523 19.686 19.508 4.692 5.467 9.418 11.57 11.892 18.238 6.594 18.204 12.13 36.583 11.286 56.656-.741 17.215-2.825 33.902-7.021 50.624-2.256 9.244-4.41 18.733-2.222 28.963 2.89 13.865 2.963 28.327 5.677 42.263 2.085 10.971 6.246 21.483 9.423 32.244 1.798 6.208 3.279 12.489 5.043 18.662 4.128 14.392 7.904 28.751 5.154 43.991-.881 4.656-1.343 9.455-1.45 14.181-.034 5.857.569 11.748.706 17.605.107 4.232.527 8.571-.282 12.664-2.116 10.301-.776 20.496-.565 30.761.248 8.961-.741 17.958-1.092 26.919-.39 8.678-.92 17.426-.707 26.105.386 13.723 1.13 27.445 2.15 41.134.462 5.785 4.975 23.248 2.753 31.044 3.669 3.386 11.079 16.616 11.82 29.387a74 74 0 0 1 .124 3.885v.33c-.008 5.68-.804 9.874-2.067 16.352-.386 1.834-1.551 10.795-2.047 12.664-.42 1.623-2.856 5.045-7.334 11.148-2.825 2.61-9.667 7.972-17.077 8.255-7.9.282-15.345 4.656-18.732 4.762-1.832.106-8.327.741-15.875 1.764-4.55.634-9.102 3.034-14.321.882-8.575-7.62-12.137-9.489-14.993-18.308-4.871-15.629-4.41-23.214-3.989-24.66 3.107-10.618 10.514-13.583 8.857-22.719-.882-4.763 1.233-7.161 3.349-11.254 2.401-4.655 7.055-6.772 9.949-7.866 5.399-2.011 7.025-2.117 8.43-5.609 4.166-10.513 4.2-21.873-1.092-32.703-3.245-6.563-5.433-13.582-8.396-20.25-3.352-7.62-7.655-14.499-16.191-18.345.599-3.633 1.267-7.124 1.87-10.652 1.516-8.856 3.456-17.639 4.407-26.529.389-4.022-.986-8.291-1.727-12.384-1.164-6.385-1.764-12.946-3.81-18.979-2.894-8.29-7.021-16.052-15.558-19.368-2.329-9.207 1.692-16.65 5.292-23.742 3.844-7.548 3.951-13.828-2.222-19.861-2.646-2.609-3.211-5.856-2.257-9.384 3.986-15.24-.213-28.963-8.327-41.627-2.504-3.916-6.311-7.338-10.266-9.807-3.952-2.47-4.303-4.587-3.318-8.89 2.402-10.373 3.99-20.92 5.681-31.398.848-5.468 1.592-10.971 1.837-16.475.068-3.245-.531-6.668-1.554-9.772-3.528-10.937-7.197-21.801-11.183-32.561-.599-1.587-3.211-2.999-5.147-3.492-9.14-2.224-18.521-1.412-27.485.493-20.14 4.305-36.511 15.241-49.988 30.516-7.269 8.255-7.938 18.451-5.468 28.503 2.047 8.362 12.982 16.618 25.718 13.865 10.652-2.293 31.853.812 37.042 8.255 6.383 9.172 5.643 22.26 6.807 33.409.989 9.772 2.791 19.578 2.791 29.35-.038 12.666-6.952 22.014-17.36 28.999-12.171 8.15-24.66 8.642-38.557 4.374-10.198-3.104-20.709-2.788-30.941 3.14-10.725 6.173-21.8 11.606-31.361 19.58-4.94 4.127-8.254 9.171-10.232 15.239-1.622 5.08-3.314 10.16-4.868 15.276-2.046 6.878.848 13.264 2.364 19.756a48.6 48.6 0 0 0 3.073 8.783c4.124 9.031.561 16.299-5.719 22.472-3.669 3.704-8.392 6.491-12.557 9.736-2.436 1.871-4.73 3.881-7.197 5.681-4.94 3.599-10.022 5.502-16.264 3.209-3.242-1.198-6.915-1.057-10.194-2.117-3.036-.987-7.022-1.974-8.538-4.303-4.375-6.809-8.361-14.076-7.269-22.86.71-5.679.71-5.82 8.327-8.607a501 501 0 0 1 5.467 7.901c4.269 6.14 13.054 5.786 17.784.283 1.054-1.199 2.925-2.929 2.646-5.292-1.344-10.654-1.099-19.403-7.483-28.751-4.058-5.927-9.736-9.243-16.615-10.583-5.75-1.128-8.61-4.198-9.244-10.266-.809-8.854-2.291-17.639-3.7-26.423-1.839-11.289 5.006-19.086 10.756-27.27 1.905-2.752 4.692-4.94 6.666-7.656 3.318-4.586 2.542-8.642-2.467-11.076-3.21-1.588-6.845-2.787-10.373-3.104"/><path fill="none" stroke="#000" stroke-miterlimit="10" stroke-width="7.056" d="M2024.891 1171.064c3.669 3.386 11.079 16.616 11.82 29.387.458 8.079-.389 12.593-1.943 20.567-.386 1.834-1.551 10.795-2.047 12.664-.42 1.623-2.856 5.045-7.334 11.148-2.825 2.61-9.667 7.972-17.077 8.255-7.9.282-15.345 4.656-18.732 4.762-1.832.106-8.327.741-15.875 1.764-4.55.634-9.102 3.034-14.321.882-8.575-7.62-12.137-9.489-14.993-18.308-4.871-15.629-4.41-23.214-3.989-24.66 3.107-10.618 10.514-13.583 8.857-22.719-.882-4.763 1.233-7.161 3.349-11.254 2.401-4.655 7.055-6.772 9.949-7.866 5.399-2.011 7.025-2.117 8.43-5.609 4.166-10.513 4.2-21.873-1.092-32.703-3.245-6.563-5.433-13.582-8.396-20.25-3.352-7.62-7.655-14.499-16.191-18.345.599-3.633 1.267-7.124 1.87-10.652 1.516-8.856 3.456-17.639 4.407-26.529.389-4.022-.986-8.291-1.727-12.384-1.164-6.385-1.764-12.946-3.81-18.979-2.894-8.29-7.021-16.052-15.558-19.368-2.329-9.207 1.692-16.65 5.292-23.742 3.844-7.548 3.951-13.828-2.222-19.861-2.646-2.609-3.211-5.856-2.257-9.384 3.986-15.24-.213-28.963-8.327-41.627-2.504-3.916-6.311-7.338-10.266-9.807-3.952-2.47-4.303-4.587-3.318-8.89 2.402-10.373 3.99-20.92 5.681-31.398.848-5.468 1.592-10.971 1.837-16.475.068-3.245-.531-6.668-1.554-9.772-3.528-10.937-7.197-21.801-11.183-32.561-.599-1.587-3.211-2.999-5.147-3.492-9.14-2.224-18.521-1.412-27.485.493-20.14 4.305-36.511 15.241-49.988 30.516-7.269 8.255-7.938 18.451-5.468 28.503 2.047 8.362 12.982 16.618 25.718 13.865 10.652-2.293 31.853.812 37.042 8.255 6.383 9.172 5.643 22.26 6.807 33.409.989 9.772 2.791 19.578 2.791 29.35-.038 12.666-6.952 22.014-17.36 28.999-12.171 8.15-24.66 8.642-38.557 4.374-10.198-3.104-20.709-2.788-30.941 3.14-10.725 6.173-21.8 11.606-31.361 19.58-4.94 4.127-8.254 9.171-10.232 15.239-1.622 5.08-3.314 10.16-4.868 15.276-2.046 6.878.848 13.264 2.364 19.756a48.6 48.6 0 0 0 3.073 8.783c4.124 9.031.561 16.299-5.719 22.472-3.669 3.704-8.392 6.491-12.557 9.736-2.436 1.871-4.73 3.881-7.197 5.681-4.94 3.599-10.022 5.502-16.264 3.209-3.242-1.198-6.915-1.057-10.194-2.117-3.036-.987-7.022-1.974-8.538-4.303-4.375-6.809-8.361-14.076-7.269-22.86.71-5.679.71-5.82 8.327-8.607a501 501 0 0 1 5.467 7.901c4.269 6.14 13.054 5.786 17.784.283 1.054-1.199 2.925-2.929 2.646-5.292-1.344-10.654-1.099-19.403-7.483-28.751-4.058-5.927-9.736-9.243-16.615-10.583-5.75-1.128-8.61-4.198-9.244-10.266-.809-8.854-2.291-17.639-3.7-26.423-1.839-11.289 5.006-19.086 10.756-27.27 1.905-2.752 4.692-4.94 6.666-7.656 3.318-4.586 2.542-8.642-2.467-11.076-3.21-1.588-6.845-2.787-10.373-3.104-7.513-.743-14.993-1.342-22.048-4.799-4.799-2.364-9.171-.071-11.393 5.045-5.151 11.889-9.633 23.883-11.855 36.759-1.619 9.102-4.41 17.71-11.32 24.907-3.673 3.844-5.189 9.842-7.235 15.063-1.199 3.034-2.543 5.326-5.75 6.668-4.654 1.974-9.491 3.88-13.443 6.879-3.917 2.998-6.914 7.267-9.277 9.842-.142 7.338.427 13.582-.531 19.544-1.55 9.102 2.084 17.252 3.776 25.681.565 2.717 3.635 4.87 5.433 7.375 9.312 12.629 5.715 15.946-6.243 21.978-8.468 4.198-16.119 2.68-23.953-.882-3.811-1.73-7.621-3.564-11.569-4.975-6.811-2.434-10.904-7.479-11.644-14.287-1.906-17.497-9.244-33.443-13.23-50.307-1.802-7.548-1.87-15.485-3.176-23.142-.917-5.468-2.363-10.864-4.196-16.085-1.485-4.2-3.914-8.079-6.032-12.031-3.635-6.773-4.765-13.828-2.367-21.132 2.084-6.42 4.058-12.876 6.845-19.013 9.106-20.251 18.807-40.182 27.626-60.574 3.383-7.901 5.816-16.545 6.839-25.082.741-6.173-.844-12.947-2.856-18.979-1.657-4.975-.6-8.643 1.764-12.629 9.029-14.957 22.048-24.025 39.053-28.293 12.699-3.211 15.097-10.019 21.66-12.17 2.153.492 3.035 2.468 4.94 3.915 3.738-1.588 4.727-3.564 3.28-7.409-6.632-17.604-7.056-35.665-1.478-53.481 4.795-15.556 10.896-30.656 16.295-46.037 3.81-10.866 7.372-21.802 10.866-32.739 5.185-16.155 14.814-28.539 29.669-37.005 10.16-5.82 20.495-11.254 29.173-19.578 5.998-5.682 13.794-9.526 21.167-13.478 7.655-4.057 14.5-8.466 18.028-16.898 1.657-3.881 2.222-7.443.424-11.324-4.059-8.995-8.079-17.956-11.996-26.987-1.764-4.128-2.787-8.573-4.761-12.523-3.39-6.668-3.776-15.453-13.478-17.921-2.47-.6-4.302-4.905-5.715-7.867-4.124-8.89-8.254-17.817-11.748-26.987-9.277-24.449-17.566-49.25-27.516-73.379-5.608-13.547-8.819-27.764-14.145-41.311-1.13-2.857-2.436-5.715-3.81-8.466-8.186-16.087-14.077-32.914-17.956-50.624-2.577-11.711-7.8-22.86-11.851-34.22-.603-1.586-1.943-3.033-2.05-4.62-.672-9.562-7.652-11.572-15.134-12.418-20.637-2.328-41.204-5.15-61.489-9.701-6.563-1.483-13.267-2.153-19.933-3.386-2.646-.531-5.219-1.554-9.419-2.824 2.787-3.421 4.41-6.668 6.987-8.183 12.981-7.692 25.294-16.652 39.825-21.52 3.142-1.058 6.211-2.646 9.033-4.481 6.842-4.339 14.535-6.631 22.224-7.197 5.261-.387 11.679 1.023 15.845 3.986 8.109 5.716 16.757 11.078 21.762 20.568 2.363 4.445 7.372 7.372 11.042 11.218 5.925 6.316 11.323 13.123 17.57 19.121 13.263 12.771 27.161 25.011 40.466 37.782 9.346 8.995 15.906 20.003 22.048 31.397 4.689 8.608 7.194 17.71 9.805 26.953.916 3.457 2.715 6.809 4.868 9.736 12.382 17.322 25.015 34.502 37.641 51.683 1.94 2.68 4.41 5.044 6.632 7.584 5.75 6.386 11.465 12.876 17.322 19.191 4.726 5.116 9.594 10.231 14.71 14.993 7.338 6.915 14.856 13.653 19.296 22.895a277 277 0 0 1 7.762 17.604c2.046 5.187 3.776 10.479 5.574 15.77.459 1.269.917 2.575 1.165 3.915.599 3.422 1.057 6.844 1.516 9.807-3.387 4.622-6.563 9.738-10.511 14.218-3.669 4.198-8.182 7.725-12.206 11.606-7.762 7.337-12.031 16.051-10.163 27.904-2.57 1.059-5.361 2.187-8.079 3.352-4.689 2.01-5.536 5.08-2.291 8.961 4.727 5.608 7.055 11.994 6.773 19.261a953 953 0 0 1-1.164 20.178c-.318 4.375.706 8.22 3.245 11.889 2.787 3.881 4.692 8.396 7.586 12.136 5.574 7.162 13.58 9.208 21.942 7.515 4.726-.953 8.395-1.342 12.633 1.375 5.605 3.598 6.311 3.21 11.179-1.835.951-.987 2.188-1.693 3.456-2.68 4.199 3.527 3.707 8.042 3.6 12.664 4.127 2.575 7.055.494 9.029-2.822 2.722-4.551 4.872-9.419 7.235-14.181.6-1.236 1.164-2.471 2.115-4.551 2.856 3.881 5.292 7.231 7.938 10.866 2.363-2.047 4.199-2.824 4.268-3.776 1.165-10.23 9.243-17.179 12.279-26.564.916-2.857 4.302-5.08 6.841-7.126 2.471-1.905 5.223-3.423 8.011-4.763 19.299-9.277 24.163-29.562 23.071-45.825-1.023-15.275-7.727-28.716-15.664-41.381-5.151-8.22-13.76-12.242-22.825-15.063-2.401-.741-4.867-1.306-7.231-1.905-2.012-1.482-10.549-3.246-11.996-3.494-4.867-.882-9.701-2.151-14.534-3.279.141-.777 0-1.623.282-1.73 8.82-4.198 17.498-9.278 26.775-12.03 5.506-1.587 13.054-1.199 17.994 1.447 11.252 6.032 22.576 12.63 30.762 23.106.633.882 1.164 2.047 2.008 2.682 17.115 13.3 24.977 31.185 27.202 52.388.951 8.854-.988 16.509-4.795 24.129-1.519 2.999-2.967 6.139-3.707 9.349-.565 2.54 0 5.362.103 8.044M1995.08 605.35l.355.775"/><path fill="none" stroke="#000" stroke-miterlimit="10" stroke-width="7.056" d="M1995.435 606.125c2.928 10.549-2.894 18.309-13.794 17.181-7.548-.812-11.889 2.363-14.676 8.466-2.505 5.611-4.41 11.465-6.35 17.286-1.481 4.41.882 7.55 3.845 10.444 6.666 6.454 13.722 12.523 19.686 19.508 4.692 5.467 9.418 11.57 11.892 18.238 6.594 18.204 12.13 36.583 11.286 56.656-.741 17.215-2.825 33.902-7.021 50.624-2.256 9.244-4.41 18.733-2.222 28.963 2.89 13.865 2.963 28.327 5.677 42.263 2.085 10.971 6.246 21.483 9.423 32.244 1.798 6.208 3.279 12.489 5.043 18.662 4.128 14.392 7.904 28.751 5.154 43.991-.881 4.656-1.343 9.455-1.45 14.181-.034 5.857.569 11.748.706 17.605.107 4.232.527 8.571-.282 12.664-2.116 10.301-.776 20.496-.565 30.761.248 8.961-.741 17.958-1.092 26.919-.39 8.678-.92 17.426-.707 26.105.386 13.723 1.13 27.445 2.15 41.134.462 5.785 4.975 23.248 2.753 31.044"/><path fill-rule="nonzero" d="M810.57 444.325c2.153.811 4.482 4.974 4.303 7.408-.702 10.584-2.608 21.096-3.421 31.643-.423 5.433-3.138 7.197-7.903 7.692-24.87 2.47-49.74 4.904-74.576 7.796-2.435.282-5.574 3.174-6.597 5.609-6.666 15.945-12.523 32.244-19.33 48.119-2.26 5.291-1.696 8.502 2.149 12.735a854 854 0 0 1 7.48 8.29c14.183 15.911 27.939 32.139 42.439 47.696 2.398 2.575 1.482 6.139.352 7.832-5.75 8.713-11.679 17.286-18.238 25.752-3.494 4.517-7.125 4.975-12.733 2.929-23.003-8.432-45.51-17.815-67.169-26.741-3.353-1.376-6.388-.634-8.678 1.34-10.656 9.173-20.534 18.591-31.189 26.989-5.009 3.95-5.643 7.972-4.268 13.017 3.352 12.311 7.055 24.553 10.583 36.83 3.352 11.57 7.235 23.035 9.88 34.396.703 2.928-.179 5.715-3.424 7.513-12.21 6.703-32.666 17.956-35.664 19.121-21.625-56.409-43.253-112.818-64.912-169.297 67.276-42.687 103.363-102.73 104.951-183.057-120.933 46.355-240.946 92.392-361.597 138.641 17.711 21.202 39.016 36.724 62.725 48.436 43.639 21.627 89.71 27.165 139.133 16.793a758253 758253 0 0 1 64.982 169.439c-2.966 1.164-26.104 6.526-40.146 10.125-5.891 1.481-7.372-1.023-9.595-5.433-11.113-22.049-21.766-44.239-32.841-66.005-1.871-3.703-4.41-5.009-8.61-4.833-.458 0-29.211.107-43.108.635-2.364.071-5.719 2.117-6.773 4.198-11.824 23.072-23.213 46.356-35.034 69.428-.882 1.693-4.337 3.315-6.246 2.962-9.381-1.657-18.693-3.986-28.008-6.103-10.935-2.504-10.9-2.857-10.828-14.04.141-21.661 1.764-43.391.103-64.947-.668-8.749-1.836-11.395-11.251-15.627-3.211-1.447-6.598-2.717-10.091-4.41-10.759-5.186-20.884-11.677-31.326-17.534-3.776-2.08-6.598-1.764-10.515 1.13-19.895 14.745-40.287 28.751-60.324 43.285-3.668 2.646-5.925 2.894-9.418-.176-7.796-6.949-16.051-13.371-23.778-20.214-4.269-3.81-4.868-6.069-2.257-10.866 11.782-21.837 23.141-43.427 33.69-64.134 1.939-3.776 2.012-7.727-.706-11.854-9.488-14.429-18.804-28.152-27.94-41.945-2.891-4.375-6.102-6.562-11.889-5.327-8.041 1.764-16.334 2.292-24.481 3.528-14.89 2.221-29.81 4.48-44.697 6.738l-12.454-6.032c-3.81-9.808-7.796-19.792-11.396-29.67-1.268-3.562-.104-7.09 2.859-8.96 12.84-8.043 46.285-30.374 63.252-42.122 2.68-1.834 3.986-3.986 3.283-8.22-2.611-15.205-4.589-30.585-6.07-45.966-1.199-12.736-2.15-13.935-13.828-17.921-20.991-7.197-42.017-14.323-62.905-22.472-5.463-2.117-6.029-4.128-5.391-9.102 1.374-10.83 3.104-21.379 4.337-31.997.565-4.797 2.787-5.645 7.128-6.069 24.233-2.468 48.469-5.291 71.648-7.901 4.833-.565 8.044-2.47 9.808-6.738 6.949-16.969 13.512-33.619 20.068-50.271 1.24-3.104.286-5.857-2.746-9.207-16.406-18.238-32.773-36.796-49.038-55.492-3.493-3.986-2.153-7.409-1.233-8.785 6.453-9.631 12.382-18.027 18.979-27.092 2.646-3.635 5.536-4.059 9.736-2.365 22.93 9.313 45.93 17.78 67.803 26.74 3.986 1.659 8.044 1.447 11.324-1.481 10.797-9.701 21.342-18.874 31.643-28.222 3.459-3.14 3.566-5.574 2.508-8.995-2.508-8.186-4.165-16.545-6.421-24.765-4.445-16.334-8.854-32.669-13.764-48.826-1.512-5.009.71-6.208 4.448-8.184l33.338-17.427c.989-.388 1.94-1.023 2.928-1.411 21.663 56.55 43.357 113.101 64.947 169.368-67.699 41.841-103.046 100.437-106.963 178.894 120.013-46.037 238.831-91.581 358.917-137.618-55.28-55.562-120.754-75.671-197.132-61.983-21.8-56.833-43.425-113.242-65.053-169.652 2.966-1.128 28.787-7.901 38.843-9.594 2.329-.39 6.491.775 7.338 2.468 11.076 21.873 21.553 43.992 32.491 65.9 1.974 3.986 3.314 8.783 10.053 8.466 14.252-.67 28.539-.706 42.932-.706 4.341 0 6.773-2.293 8.396-5.467 10.9-21.45 21.556-43.428 32.456-65.335 1.13-2.258 8.609-5.679 11.183-5.114 8.923 2.01 17.673 4.02 26.493 5.538 6.811 1.164 9.384 3.915 9.278 11.112-.421 23.954-.138 47.942-.176 71.932 0 4.656 1.019 7.584 6.139 9.877 15.699 7.162 30.868 15.522 46.46 22.967 2.612 1.233 7.27 1.515 9.454.034 15.63-10.866 30.833-22.436 46.323-33.548 6.49-4.658 13.015-11.502 20.071-12.243 4.94-.528 25.469 19.192 27.554 21.591 3.421 3.881 4.902 8.008 3.489 11.358-1.092 2.682-2.928 6.422-5.818 11.677-.355.636-18.521 32.421-28.329 52.425-2.615 5.255-2.398 7.477.282 11.394 10.125 14.781 19.544 29.492 29.173 44.061 2.646 4.023 5.964 4.41 10.656 3.705 25.259-3.739 50.588-7.126 75.882-10.337 1.622-.211 4.55 1.589 5.222 3.141 4.231 10.301 8.114 20.743 12.065 31.08 1.764 4.585.706 7.406-2.611 9.735-20.709 14.606-41.627 27.976-62.019 42.122-2.539 1.764-5.398 5.786-5.116 8.432 1.905 18.696 4.551 37.324 7.163 55.95.209 1.623 1.446 3.881 2.787 4.446 5.749 2.505 11.675 4.515 17.566 6.632 18.876 6.843 37.82 13.511 56.551 20.743"/><path fill-rule="nonzero" d="M712.675 573.617c14.252 15.804 28.187 31.891 42.439 47.696-14.5-15.557-28.256-31.785-42.439-47.696"/><path fill="none" stroke="#000" stroke-linecap="round" stroke-linejoin="round" stroke-miterlimit="10" stroke-width="14.111" d="M539.848 791.246c-2.966 1.164-26.104 6.526-40.146 10.125-5.891 1.481-7.372-1.023-9.595-5.433-11.113-22.049-21.766-44.239-32.841-66.005-1.871-3.703-4.41-5.009-8.61-4.833-.458 0-29.211.107-43.108.635-2.364.071-5.719 2.117-6.773 4.198-11.824 23.072-23.213 46.356-35.034 69.428-.882 1.693-4.337 3.315-6.246 2.962-9.381-1.657-18.693-3.986-28.008-6.103-10.935-2.504-10.9-2.857-10.828-14.04.141-21.661 1.764-43.391.103-64.947-.668-8.749-1.836-11.395-11.251-15.627-3.211-1.447-6.598-2.717-10.091-4.41-10.759-5.186-20.884-11.677-31.326-17.534-3.776-2.08-6.598-1.764-10.515 1.13-19.895 14.745-40.287 28.751-60.324 43.285-3.668 2.646-5.925 2.894-9.418-.176-7.796-6.949-16.051-13.371-23.778-20.214-4.269-3.81-4.868-6.069-2.257-10.866 11.782-21.837 23.141-43.427 33.69-64.134 1.939-3.776 2.012-7.727-.706-11.854-9.488-14.429-18.804-28.152-27.94-41.945M623.774 709.261c3.352 11.57 7.235 23.035 9.88 34.396.703 2.928-.179 5.715-3.424 7.513-12.21 6.703-32.666 17.956-35.664 19.121M712.675 573.617c14.252 15.804 28.187 31.891 42.439 47.696M383.392 219.535c-21.8-56.833-43.425-113.242-65.053-169.652 2.966-1.128 28.787-7.901 38.843-9.594M260.695 72.285c.989-.388 1.94-1.023 2.928-1.411M71.325 573.795c-3.81-9.808-7.796-19.792-11.396-29.67-1.268-3.562-.104-7.09 2.859-8.96 12.84-8.043 46.285-30.374 63.252-42.122 2.68-1.834 3.986-3.986 3.283-8.22-2.611-15.205-4.589-30.585-6.07-45.966"/><path fill="none" stroke="#000" stroke-linecap="round" stroke-linejoin="round" stroke-miterlimit="10" stroke-width="14.111" d="M623.774 709.261c-3.528-12.277-7.231-24.519-10.583-36.83-1.375-5.045-.741-9.067 4.268-13.017 10.655-8.398 20.533-17.816 31.189-26.989 2.29-1.974 5.325-2.716 8.678-1.34 21.659 8.926 44.166 18.309 67.169 26.741 5.608 2.046 9.239 1.588 12.733-2.929 6.559-8.466 12.488-17.039 18.238-25.752 1.13-1.693 2.046-5.257-.352-7.832-14.5-15.557-28.256-31.785-42.439-47.696a854 854 0 0 0-7.48-8.29c-3.845-4.233-4.409-7.444-2.149-12.735 6.807-15.875 12.664-32.174 19.33-48.119 1.023-2.435 4.162-5.327 6.597-5.609 24.836-2.892 49.706-5.326 74.576-7.796 4.765-.495 7.48-2.259 7.903-7.692.813-10.547 2.719-21.059 3.421-31.643.179-2.434-2.15-6.597-4.303-7.408-18.731-7.232-37.675-13.9-56.551-20.743-5.891-2.117-11.817-4.127-17.566-6.632-1.341-.565-2.578-2.823-2.787-4.446-2.612-18.626-5.258-37.254-7.163-55.95-.282-2.646 2.577-6.668 5.116-8.432 20.392-14.146 41.31-27.516 62.019-42.122 3.317-2.329 4.375-5.15 2.611-9.735-3.951-10.337-7.834-20.779-12.065-31.08-.672-1.552-3.6-3.352-5.222-3.141-25.294 3.211-50.623 6.598-75.882 10.337-4.692.705-8.01.318-10.656-3.705-9.629-14.569-19.048-29.28-29.173-44.061-2.68-3.917-2.897-6.139-.282-11.394 9.808-20.004 27.974-51.789 28.329-52.425 2.89-5.255 4.726-8.995 5.818-11.677 1.413-3.35-.068-7.477-3.489-11.358-2.085-2.399-22.614-22.119-27.554-21.591-7.056.741-13.581 7.585-20.071 12.243-15.49 11.112-30.693 22.682-46.323 33.548-2.184 1.481-6.842 1.199-9.454-.034-15.592-7.445-30.761-15.805-46.46-22.967-5.12-2.293-6.139-5.221-6.139-9.877.038-23.99-.245-47.978.176-71.932.106-7.197-2.467-9.948-9.278-11.112-8.82-1.518-17.57-3.528-26.493-5.538-2.574-.565-10.053 2.856-11.183 5.114-10.9 21.907-21.556 43.885-32.456 65.335-1.623 3.174-4.055 5.467-8.396 5.467-14.393 0-28.68.036-42.932.706-6.739.317-8.079-4.48-10.053-8.466-10.938-21.908-21.415-44.027-32.491-65.9-.847-1.693-5.009-2.858-7.338-2.468M227.357 89.712c-3.738 1.976-5.96 3.175-4.448 8.184 4.91 16.157 9.319 32.492 13.764 48.826 2.256 8.22 3.913 16.579 6.421 24.765 1.058 3.421.951 5.855-2.508 8.995-10.301 9.348-20.846 18.521-31.643 28.222-3.28 2.928-7.338 3.14-11.324 1.481-21.873-8.96-44.873-17.427-67.803-26.74-4.2-1.694-7.09-1.27-9.736 2.365-6.597 9.065-12.526 17.461-18.979 27.092-.92 1.376-2.26 4.799 1.233 8.785 16.265 18.696 32.632 37.254 49.038 55.492 3.032 3.35 3.986 6.103 2.746 9.207-6.556 16.652-13.119 33.302-20.068 50.271-1.764 4.268-4.975 6.173-9.808 6.738-23.179 2.61-47.415 5.433-71.648 7.901-4.341.424-6.563 1.272-7.128 6.069-1.233 10.618-2.963 21.167-4.337 31.997-.638 4.974-.072 6.985 5.391 9.102 20.888 8.149 41.914 15.275 62.905 22.472 11.678 3.986 12.629 5.185 13.828 17.921M152.957 569.561c5.787-1.235 8.998.952 11.889 5.327M83.779 579.827a18391 18391 0 0 1 44.697-6.738c8.147-1.236 16.44-1.764 24.481-3.528"/><path fill="none" stroke="#000" stroke-linecap="round" stroke-linejoin="round" stroke-miterlimit="10" stroke-width="14.111" d="M539.848 791.246a758253 758253 0 0 0-64.982-169.439c-49.423 10.372-95.494 4.834-139.133-16.793-23.709-11.712-45.014-27.234-62.725-48.436 120.651-46.249 240.664-92.286 361.597-138.641-1.588 80.327-37.675 140.37-104.951 183.057 21.659 56.479 43.287 112.888 64.912 169.297M383.392 219.535c76.378-13.688 141.852 6.421 197.132 61.983-120.086 46.037-238.904 91.581-358.917 137.618 3.917-78.457 39.264-137.053 106.963-178.894a330694 330694 0 0 1-64.947-169.368"/><path fill-rule="nonzero" d="m260.709 72.271-33.349 17.44z"/><path fill="none" stroke="#000" stroke-linecap="round" stroke-linejoin="round" stroke-miterlimit="10" stroke-width="14.111" d="m260.709 72.271-33.349 17.44z"/><path fill-rule="nonzero" d="M71.312 573.801c1.75 4.231 5.863 7.097 12.478 6.022z"/><path fill="none" stroke="#000" stroke-linecap="round" stroke-linejoin="round" stroke-miterlimit="10" stroke-width="14.111" d="M71.312 573.801c1.75 4.231 5.863 7.097 12.478 6.022"/><path fill="#ffe600" fill-rule="nonzero" d="m384.129 211.191 204.577-26.851.844 74.108 42.775-77.822 227.617-35.143 1.626 121.281 77.611-133.47 81.594-9.718 84.921 12.099 51.022 106.581-.468-98.892 253.304 38.734-.041 254.144 43.511-.22.331-249.515 49.527 24.271 108.61 23.475 31.481 48.386 102.898 256.35-97.613 13.71-35.857-85.437-31.157 32.336v62.914l-233.144 31.933-66.735-81.139-.382 88.952-257.438 41.281-82.889-12.532-57.327-120.977-24.267 23.805 1.175 85.304-273.958-36.601-.461-181.718-37.059-.303-.279 173.605-144.343-15.731V400.82h-69.377l-1.061-120.361z"/><path fill="#836b23" fill-rule="nonzero" d="m1571.537 337.451 31.044 62.122-44.628-7.442.462-40.113z"/><path fill="none" stroke="#836b23" stroke-linecap="square" stroke-miterlimit="10" stroke-width="3.528" d="m1557.953 392.131.462-40.113 13.122-14.567 31.044 62.122z"/><path fill="#836b23" fill-rule="nonzero" d="m862.347 618.288-1.633-84.674 22.637-22.048 44.39 90.251z"/><path fill="none" stroke="#836b23" stroke-linecap="round" stroke-linejoin="round" stroke-miterlimit="10" stroke-width="10.583" d="m862.347 618.288-1.633-84.674 22.637-22.048 44.39 90.251z"/><path fill="#836b23" fill-rule="nonzero" d="m587.47 400.599-37.059-.303-.279 173.605 37.289-13.558z"/><path fill="none" stroke="#836b23" stroke-linecap="round" stroke-linejoin="round" stroke-miterlimit="10" stroke-width="10.583" d="m587.47 400.599-37.059-.303-.279 173.605 37.289-13.558z"/><path fill="#836b23" fill-rule="nonzero" d="m861.899 144.098 56.451 22.207-55.907 96.234z"/><path fill="none" stroke="#836b23" stroke-linecap="round" stroke-linejoin="round" stroke-miterlimit="10" stroke-width="10.583" d="m861.899 144.098 56.451 22.207-55.907 96.234z"/><path fill="#836b23" fill-rule="nonzero" d="m1645.713 552.111-62.825-9.078-2.053-43.215 30.276-33.81z"/><path fill="none" stroke="#836b23" stroke-linecap="round" stroke-linejoin="round" stroke-miterlimit="10" stroke-width="10.583" d="m1645.713 552.111-62.825-9.078-2.053-43.215 30.276-33.81z"/><path fill="#836b23" fill-rule="nonzero" d="m1452.953 185.549-43.487 20.84.045 229.853 43.511-.22z"/><path fill="none" stroke="#836b23" stroke-linecap="round" stroke-linejoin="round" stroke-miterlimit="10" stroke-width="10.583" d="m1452.953 185.549-43.487 20.84.045 229.853 43.511-.22z"/><path fill="#836b23" fill-rule="nonzero" d="m1022.123 293.66-49.099 106.571 49.258 92.439z"/><path fill="none" stroke="#836b23" stroke-linecap="round" stroke-miterlimit="10" stroke-width="10.583" d="m1022.123 293.66-49.099 106.571 49.258 92.439z"/><path fill="#836b23" fill-rule="nonzero" d="m1121.632 157.768 9.115 23.076 25.28 68.646.221-106.126z"/><path fill="none" stroke="#836b23" stroke-linecap="round" stroke-linejoin="round" stroke-miterlimit="10" stroke-width="10.583" d="m1121.632 157.768 9.115 23.076 25.28 68.646.221-106.126z"/><path fill="#836b23" fill-rule="nonzero" d="m1280.922 507.132 69.588 85.855-69.588-15.41z"/><path fill="none" stroke="#836b23" stroke-linecap="round" stroke-linejoin="round" stroke-miterlimit="10" stroke-width="10.583" d="m1280.922 507.132 69.588 85.855-69.588-15.41z"/><path fill="none" stroke="#836b23" stroke-linecap="round" stroke-linejoin="round" stroke-miterlimit="10" stroke-width="11.76" d="M1280.981 602.258V163.777"/><path fill="none" stroke="#836b23" stroke-miterlimit="10" stroke-width="11.86" d="M1156.186 144.994v475.482M750.491 159.105l.162 442.616"/><path fill="none" stroke="#836b23" stroke-miterlimit="10" stroke-width="11.575" d="M1021.689 127.865v356.212"/><path fill="none" stroke="#836b23" stroke-linecap="round" stroke-linejoin="round" stroke-miterlimit="10" stroke-width="10.583" d="m382.252 210.971 208.728-27.34.224 74.596 41.21-79.237 229.485-34.892v120.385l78.934-131.409 81.594-9.719 83.267 12.32 49.748 108.669.806-100.98 253.194 36.012.069 256.866 43.511-.22-.069-250.473 51.284 24.712 108.61 23.475 31.157 46.891 102.561 256.467-100.177 15.124-35.277-87.533-29.986 33.369.296 63.5-32.928 4.554-197.983 26.879-68.378-15.423.151 25.283-72.622 10.673-187.586 28.326-81.532-13.56-55.562-118.477-22.931 23.227.297 85.252-274.877-34.83V400.599l-37.059-.303-.279 173.605-144.929-17.938-.151-155.881-69.595 1.093-.106-120.937z"/><path fill="#836b23" fill-rule="nonzero" d="m748.555 285.051-14.111 34.688-28.222 32.925 9.405 27.637 20.581 11.761.221 10.36-23.152 28.735 14.408 34.989 20.87 10.583z"/><path fill="none" stroke="#836b23" stroke-linecap="square" stroke-miterlimit="10" stroke-width="3.528" d="m748.555 285.051-14.111 34.688-28.222 32.925 9.405 27.637 20.581 11.761.221 10.36-23.152 28.735 14.408 34.989 20.87 10.583z"/><path fill="#836b23" fill-rule="nonzero" d="m625.348 191.086-34.144 67.141-.224-74.596z"/><path fill="none" stroke="#836b23" stroke-linecap="round" stroke-linejoin="round" stroke-miterlimit="10" stroke-width="10.583" d="m625.348 191.086-34.144 67.141-.224-74.596z"/>

  </g>
<g>
<path fill="#fff" fill-rule="nonzero" d="M1937.203 1264.388c.527 3.978.947 7.752-.245 11.608-1.299 4.136-4.496 7.43-4.316 12.289.034.362-.39.763-.6 1.166-1.544 2.61-2.984 5.261-4.596 7.831a7196 7196 0 0 1-17.026 27.431c-.282.362-.878.483-1.333.724-.844.482-1.898.763-2.563 1.485-2.07 2.249-4.179 4.339-6.811 5.986-4.351 2.69-8.847 3.212-13.477 2.289-2.773-.524-5.585-1.647-8.041-3.214-2.212-1.365-4.072-3.535-5.826-5.662-5.053-6.147-6.704-13.376-4.458-21.487.349-1.246-.316-3.857 1.861-3.535 1.264.2 2.456 1.486 3.545 2.489.386.362.492 1.326.455 2.008-.104 1.527-.49 3.013-.596 4.54-.631 7.429 3.579 17.11 12.671 20 7.303 2.33 14.534-.562 19.168-8.032 7.335-11.848 14.39-23.978 21.87-35.745 3.858-6.065 7.227-12.089 5.653-20.242 1.505-.642 2.946-1.205 4.665-1.929"/><path fill-rule="nonzero" d="m1947.559 1226.073-.069-.08c.947.723 1.822 1.567 2.666 2.451 0 .199 2.315 3.293 2.564 3.734.561.965 1.088 1.928 1.612 2.892.107.281.317.683.527 1.125.351 2.891 1.299 5.662 2.88 8.072v.042c-.21.561-.458 1.083-.703 1.645-.21.482-.386.843-.493 1.085a44 44 0 0 1-2.246 3.614c-.176.282-.489.602-.771.964a11.9 11.9 0 0 0-3.128 2.088c-.349-.04-.524-.079-.628 0-2.563 2.331-5.16 4.62-7.651 7.069-.458.483-.737 1.607-.669 2.41.176 2.651.772 5.302.738 7.953 0 2.169-.596 4.337-1.158 6.386-.809 2.811-1.615 5.703-2.88 8.273-1.509 2.932-3.579 5.502-5.336 8.313-3.508 5.583-6.915 11.246-10.425 16.869-1.685 2.73-3.511 5.342-5.161 8.113-2.139 3.493-4.141 7.068-6.246 10.563a23.8 23.8 0 0 1-8.74 8.433c-2.949 1.647-6.284 3.053-9.516 3.294-3.858.241-7.827.081-11.689-1.647-3.789-1.726-6.773-4.418-9.653-7.471-2.735-2.971-4.316-6.786-5.684-10.723-1.406-4.056-1.792-8.273-1.582-12.529.211-4.339 2.774-8.234 2.143-12.854-.034-.281.386-.682.593-1.044 1.406-2.368 2.846-4.738 4.251-7.109 2.949-4.94 5.826-9.96 8.847-14.86a764 764 0 0 1 10.318-16.306c.527-.802 1.547-1.204 2.353-1.846.493-.081.596-.763.913-1.167 3.965-4.738 7.583-9.999 13.477-11.766a49 49 0 0 1 7.9-1.768c3.3-.442 6.425.161 9.302-3.374 3.651-4.498 8.388-7.751 12.671-11.525.878-.764.951-1.406.175-2.452l.879-.079c-.562.12 3.335.362 3.824.482.458.079.917.2 1.337.281q.263.12 1.157.482c.596.281 2.984 1.928 3.301 1.967m.737 23.897c1.753-1.445 1.929-2.892.665-4.94-3.053 2.973-6.036 5.824-8.951 8.795-.527.523-.665 1.608-.981 2.41l.565.643c1.154-.562 2.453-.924 3.472-1.766 1.826-1.567 3.369-3.615 5.23-5.142m-3.58-18.555c1.192-.603 1.192-1.366.245-2.811-3.931 3.695-7.827 7.309-11.724 10.964-.947.844-1.967 1.647-2.739 2.732-.454.601-.42 1.686-.63 2.57l.63-.081c1.017-.963 2.071-1.928 3.087-2.932 3.022-2.971 6.039-5.984 9.096-8.955.63-.603 1.333-1.125 2.035-1.487m-.878 7.19c-1.719 0-8.74 6.105-9.653 8.675 3.755-1.969 6.387-5.583 9.653-8.675m-6.88 37.391c1.192-3.856.772-7.63.245-11.608-1.719.724-3.16 1.287-4.665 1.929 1.574 8.153-1.795 14.177-5.653 20.242-7.48 11.767-14.535 23.897-21.87 35.745-4.634 7.47-11.865 10.362-19.168 8.032-9.092-2.89-13.302-12.571-12.671-20 .106-1.527.492-3.013.596-4.54.037-.682-.069-1.646-.455-2.008-1.089-1.003-2.281-2.289-3.545-2.489-2.177-.322-1.512 2.289-1.861 3.535-2.246 8.111-.595 15.34 4.458 21.487 1.754 2.127 3.614 4.297 5.826 5.662 2.456 1.567 5.268 2.69 8.041 3.214 4.63.923 9.126.401 13.477-2.289 2.632-1.647 4.741-3.737 6.811-5.986.665-.722 1.719-1.003 2.563-1.485.455-.241 1.051-.362 1.333-.724a7196 7196 0 0 0 17.026-27.431c1.612-2.57 3.052-5.221 4.596-7.831.21-.403.634-.804.6-1.166-.18-4.859 3.017-8.153 4.316-12.289m-1.375-15.904c.248-.162.076-1.206.076-2.53-1.895 1.405-3.231 2.41-4.599 3.372.317.362.737 1.086.913 1.005 1.23-.483 2.491-1.084 3.61-1.847m-9.542 22.33c2.563-3.775 4.282-7.993 4.003-12.932-.073-.804-.317-1.567-.459-2.41-2.7.683-5.019.562-6.669-2.37-.21-.362-1.158-.362-1.754-.362-1.86 0-3.335-.681-4.213-2.69-.245-.643-.806-1.085-1.158-1.647-.702-1.164-1.546-2.289-1.967-3.574-.561-1.767-1.474-2.691-2.983-1.969-2.739 1.366-5.23 3.254-7.163 5.986l-.172.842c.21 4.177-2.67 6.627-4.354 9.721-1.578 2.89-3.511 5.582-5.265 8.394a569 569 0 0 0-4.985 8.152c-2.211 3.614-4.316 7.309-6.6 10.844-1.613 2.449-3.511 4.699-5.161 7.109-.596.802-1.261 1.888-1.261 2.851.069 5.141.244 10.323 3.859 14.217 2.773 2.974 5.897 4.82 9.901 5.101 5.932.443 10.073-2.41 13.339-7.791 2.491-4.136 5.23-8.113 7.793-12.21 3.193-5.14 6.353-10.321 9.443-15.502.947-1.608 1.543-3.415 2.491-5.02 1.013-1.647 2.246-3.133 3.335-4.74m2.352-29.881c.421-.362.913-.602 1.613-1.084-4.809-5.423-10.952-6.747-16.988-6.988-7.968-.362-13.305 5.381-17.942 12.731a348 348 0 0 1 5.271 3.373c4.386-7.511 10.246-10.723 17.759-9.679 1.933.282 4.004.964 5.613 2.129 1.901 1.405 3.2.802 4.674-.482"/><path fill="#fff" fill-rule="nonzero" d="M1930.006 1251.457c-.7.482-1.192.722-1.613 1.084-1.474 1.284-2.773 1.887-4.674.482-1.609-1.165-3.68-1.847-5.613-2.129-7.513-1.044-13.373 2.168-17.759 9.679-1.65-1.084-3.3-2.128-5.271-3.373 4.637-7.35 9.974-13.093 17.942-12.731 6.036.241 12.179 1.565 16.988 6.988"/><path fill="none" stroke="#000" stroke-miterlimit="10" stroke-width="2.816" d="M1869.772 1301.299c-2.177-.322-1.512 2.289-1.861 3.535-2.246 8.111-.595 15.34 4.458 21.487 1.754 2.127 3.614 4.297 5.826 5.662 2.456 1.567 5.268 2.69 8.041 3.214 4.63.923 9.126.401 13.477-2.289 2.632-1.647 4.741-3.737 6.811-5.986.665-.722 1.719-1.003 2.563-1.485.455-.241 1.051-.362 1.333-.724a7196 7196 0 0 0 17.026-27.431c1.612-2.57 3.052-5.221 4.596-7.831.21-.403.634-.804.6-1.166-.18-4.859 3.017-8.153 4.316-12.289 1.192-3.856.772-7.63.245-11.608-1.719.724-3.16 1.287-4.665 1.929 1.574 8.153-1.795 14.177-5.653 20.242-7.48 11.767-14.535 23.897-21.87 35.745-4.634 7.47-11.865 10.362-19.168 8.032-9.092-2.89-13.302-12.571-12.671-20 .106-1.527.492-3.013.596-4.54.037-.682-.069-1.646-.455-2.008-1.089-1.003-2.281-2.289-3.545-2.489z"/><path fill-rule="nonzero" d="M2222.715 1148.087c3.29.749 4.331 2.556 3.404 6.766-2.023 9.334-4.086 18.622-6.109 27.909a4912 4912 0 0 1-4.954 22.059c-.468 2.08-1.639 3.116-3.376 3.586-5.987 1.523-11.93 3.239-17.914 4.761-2.546.679-5.223 1.988-7.476-.708-1.313-1.562-2.591-3.171-3.983-4.587-2.297-2.358-4.633-4.62-7.427-7.352-.207 2.94-.283 4.965-.476 6.942-.189 1.834.328 2.882 1.737 3.574 3.651 1.752 7.262 3.699 10.914 5.643 3.156 1.666 3.769 3.725 2.157 7.657-2.664 6.653-5.444 13.26-8.145 19.913-3.142 7.626-6.29 15.251-9.429 22.877-1.009 2.427-2.525 3.423-4.751 3.375-6.49-.104-13.022-.014-19.513.075-2.418.004-4.203-1.066-5.615-3.491-1.895-3.33-3.831-6.611-6.036-9.647-6.064-8.249-13.233-14.932-20.998-20.546-4.923-3.554-4.999-3.552-3.628-10.949.383-1.836.29-2.99-1.357-3.484-3.738-1.173-7.435-2.588-11.217-3.663-14.094-4.034-28.457-6.185-42.995-7.033-6.828-.434-13.715.147-20.591.243l-.076.002-.079-.047c-1.017-1.036-2.033-2.074-2.932-3.259l-.3-.378-.296-.621c-.737-1.428-1.481-2.809-2.102-4.335l-.186-.431c-.072-.24-.141-.525-.255-.909-.32-1.148-.603-2.298-.889-3.447.09-.724.221-1.449.273-2.124.134-1.015.193-2.074.21-3.135.041-2.022-.073-4.09-.221-6.108a13.6 13.6 0 0 0 4.779-2.942c1.484-1.38 2.976-3.05 4.354-4.86 8.634-3.457 17.195-7.297 25.931-10.178 7.694-2.522 15.589-3.7 23.348-5.743 8.764-2.304 17.615-3.261 26.462-3.883 7.768-.55 15.575-1.053 23.34-1.457 4.262-.186 8.568-.133 12.678-.172.858-2.667 1.072-5.849 2.36-6.887 4.1-3.361 8.241-7.011 13.139-8.174 1.892-.474 3.811-.467 5.737-.603 3.806-.322 7.658-.933 11.42-.82 5.488.221 10.928.924 16.371 1.578 3.18.319 6.36.732 9.498 1.389 5.082 1.095 10.129 2.48 15.214 3.624m-1.709 8.943c.507-2.273.293-3.183-1.619-3.527-8.189-1.561-16.371-3.458-24.602-4.872-4.633-.768-9.349-1.101-14.038-1.051-4.803.054-9.657.831-14.466 1.366-.503.059-1.285.894-1.375 1.475-1.092 6.859-2.108 13.765-3.08 20.333 5.275 1.285 10.473 2.62 15.634 3.81 1.719.396 2.626 1.244 1.771 3.814 11.772 4.661 22.355 11.658 32.305 21.654 1.047-4.837 2.015-8.997 2.942-13.157 2.15-9.963 4.265-19.926 6.528-29.845m-28.277 50.287c4.599-1.494 9.305-2.557 14.132-3.862-7.99-8.065-21.491-16.926-28.181-18.421-.324.825-.765 1.702-1.051 2.67-1.519 5.135-1.089 6.668 2.267 9.87 2.601 2.448 5.164 4.994 7.455 7.786 1.613 1.939 3.018 2.777 5.378 1.957m-9.126 17.091c.723-1.749.468-2.369-.903-3.013-5.061-2.444-10.001-5.181-15.103-7.479-1.257-.6-2.984-.612-4.265-.007-5.078 2.515-9.509 3.283-14.625-.412-4.923-3.652-10.924-5.112-16.75-7.686-1.174 3.25-2.187 5.921-3.124 8.589-1.013 2.861-1.954 5.674-2.929 8.487-.568 1.648-.472 2.609 1.127 3.298 9.298 3.847 17.863 9.588 25.518 17.033 4.978 4.853 9.398 10.633 14.094 15.973.565.663 1.088 1.327 1.836 2.272 2.38-5.827 4.561-11.362 6.78-16.801 2.742-6.799 5.484-13.548 8.344-20.254m-8.775-42.855c.507-2.371.145-3.47-1.846-3.716-6.632-.823-13.216-1.84-19.848-2.565-7.665-.849-15.365.084-23.04 1.74-1.62.324-2.322 1.061-2.591 3.04-.448 3.139-1.158 6.188-1.681 9.328-.211 1.063-.231 2.122-.379 3.619 15.943-.002 31.071 2.086 45.103 11.369.727-3.771 1.367-7.202 2.012-10.683.73-4.011 1.385-8.117 2.27-12.132m-16.447-21.365 1.45-7.686-.757-.321c-1.427 2.197-4.493 1.828-5.409 5.506.885.031 1.464-.174 1.843.058.834.608 2.088 1.304 2.222 2.264.138.911-.623 2.468-1.33 3.302-1.061 1.178-3.59.845-3.141 3.388.248 1.247 2.115 1.978 3.362 3.011.603-3.287 1.202-6.43 1.76-9.522m-10.135 7.774c.134-1.208.313-2.367.534-3.864-1.227-.022-2.377-.141-3.531-.069-8.841.283-17.715.424-26.559.996-6.883.386-13.766.87-20.625 2.074-14.801 2.625-29.577 6.067-44.043 11.332-6.036 2.15-11.927 5.068-17.621 7.498.124 1.587.182 2.453.244 3.318.021.818-.037 1.687-.024 3.227 35.705-23 73.263-27.022 111.625-24.512m-26.82 8.414c.858-.596 1.605-1.478 2.204-2.742-20.525.965-40.844 3.032-60.595 11.347.031.335.031.673.02 1.011 1.344-.03 2.684.136 3.993-.037 2.543-.391 5.054-1.166 7.559-1.46 4.926-.538 9.887-.884 14.807-1.18 4.575-.193 9.147-.291 13.677-.243 3.266-.021 6.483.296 9.863.465 1.843-3.986 5.399-5.121 8.472-7.161m-7.817 30.836c1.874.44 2.842-.109 3.011-2.712-3.339-.17-4.717-2.308-4.293-6.409.279-2.462-.441-3.071-2.477-2.932-4.613.241-9.26.245-13.911.343-2.305.048-4.606-.095-6.914.098-6.115.419-12.272.982-18.39 1.545-.424.057-.889.403-1.368 1.232 2.298.385 4.63.865 6.966 1.248 3.562.552 7.166.86 10.724 1.602a1015 1015 0 0 1 26.652 5.985m-.038 8.04c-.413-.568-.779-1.524-1.275-1.61a1561 1561 0 0 0-29.035-6.029c-4.782-.958-9.564-1.916-14.394-2.391-7.706-.703-15.42-1.021-23.13-1.483-1.457-.114-2.873-.517-4.293-.487-.964.068-1.856.713-2.787 1.069l.104.625c4.454.05 8.874-.189 13.246.152 7.635.562 15.262 1.218 22.845 2.357 7.548 1.091 15.079 2.618 22.575 4.384 4.82 1.102 9.467 2.978 14.242 4.368.534.134 1.278-.605 1.902-.955m-1.147-24.193c1.078-2.092.758-3.29-1.316-3.341-3.342-.074-6.729.285-10.07.309-3.576.028-7.104-.187-10.67-.304-.424.01-.885-.03-1.309.029-9.626 1.311-19.286 2.382-28.918 3.934-5.278.834-10.532 2.341-15.816 3.609-.617.109-1.168.699-1.751 1.095.107.385.179.719.286 1.103 1.926-.282 3.848-.467 5.778-.846 4.547-.866 9.102-1.877 13.649-2.696 2.698-.539 5.433-1.03 8.13-1.328 5.616-.551 11.197-1.104 16.809-1.462 3.694-.176 7.411.179 11.1.053 3.921-.13 7.845-.503 11.765-.684.772-.063 1.533.305 2.333.529"/><path fill="#62bdff" fill-rule="nonzero" d="M2219.387 1153.503c1.912.344 2.126 1.254 1.619 3.527-2.263 9.919-4.378 19.882-6.528 29.845-.927 4.16-1.895 8.32-2.942 13.157-9.95-9.996-20.533-16.993-32.305-21.654.855-2.57-.052-3.418-1.771-3.814-5.161-1.19-10.359-2.525-15.634-3.81.972-6.568 1.988-13.474 3.08-20.333.09-.581.872-1.416 1.375-1.475 4.809-.535 9.663-1.312 14.466-1.366 4.689-.05 9.405.283 14.038 1.051 8.231 1.414 16.413 3.311 24.602 4.872"/><path fill-rule="nonzero" d="M2206.861 1203.455c-4.827 1.305-9.533 2.368-14.132 3.862-2.36.82-3.765-.018-5.378-1.957-2.291-2.792-4.854-5.338-7.455-7.786-3.356-3.202-3.786-4.735-2.267-9.87.286-.968.727-1.845 1.051-2.67 6.69 1.495 20.191 10.356 28.181 18.421"/><path fill="#44e800" fill-rule="nonzero" d="M2182.7 1221.395c1.371.644 1.626 1.264.903 3.013-2.86 6.706-5.602 13.455-8.344 20.254-2.219 5.439-4.4 10.974-6.78 16.801-.748-.945-1.271-1.609-1.836-2.272-4.696-5.34-9.116-11.12-14.094-15.973-7.655-7.445-16.22-13.186-25.518-17.033-1.599-.689-1.695-1.65-1.127-3.298.975-2.813 1.916-5.626 2.929-8.487.937-2.668 1.95-5.339 3.124-8.589 5.826 2.574 11.827 4.034 16.75 7.686 5.116 3.695 9.547 2.927 14.625.412 1.281-.605 3.008-.593 4.265.007 5.102 2.298 10.042 5.035 15.103 7.479"/><path fill="#ff6266" fill-rule="nonzero" d="M2172.982 1177.837c1.991.246 2.353 1.345 1.846 3.716-.885 4.015-1.54 8.121-2.27 12.132-.645 3.481-1.285 6.912-2.012 10.683-14.032-9.283-29.16-11.371-45.103-11.369.148-1.497.168-2.556.379-3.619.523-3.14 1.233-6.189 1.681-9.328.269-1.979.971-2.716 2.591-3.04 7.675-1.656 15.375-2.589 23.04-1.74 6.632.725 13.216 1.742 19.848 2.565"/><path fill-rule="nonzero" d="m2159.074 1152.181.757.321c-.468 2.561-.978 5.076-1.45 7.686-.558 3.092-1.157 6.235-1.76 9.522-1.247-1.033-3.114-1.764-3.362-3.011-.449-2.543 2.08-2.21 3.141-3.388.707-.834 1.468-2.391 1.33-3.302-.134-.96-1.388-1.656-2.222-2.264-.379-.232-.958-.027-1.843-.058.916-3.678 3.982-3.309 5.409-5.506M1694.585 944.37c-7.513-.743-14.993-1.342-22.048-4.799-4.799-2.364-9.171-.071-11.393 5.045-5.151 11.889-9.633 23.883-11.855 36.759-1.619 9.102-4.41 17.71-11.32 24.907-3.673 3.844-5.189 9.842-7.235 15.063-1.199 3.034-2.543 5.326-5.75 6.668-4.654 1.974-9.491 3.88-13.443 6.879-3.917 2.998-6.914 7.267-9.277 9.842-.142 7.338.427 13.582-.531 19.544-1.55 9.102 2.084 17.252 3.776 25.681.565 2.717 3.635 4.87 5.433 7.375 9.312 12.629 5.715 15.946-6.243 21.978-8.468 4.198-16.119 2.68-23.953-.882-3.811-1.73-7.621-3.564-11.569-4.975-6.811-2.434-10.904-7.479-11.644-14.287-1.906-17.497-9.244-33.443-13.23-50.307-1.802-7.548-1.87-15.485-3.176-23.142-.917-5.468-2.363-10.864-4.196-16.085-1.485-4.2-3.914-8.079-6.032-12.031-2.31-4.304-3.607-8.721-3.632-13.244v-.278c.016-2.505.422-5.042 1.265-7.61 2.084-6.42 4.058-12.876 6.845-19.013 9.106-20.251 18.807-40.182 27.626-60.574 3.383-7.901 5.816-16.545 6.839-25.082.741-6.173-.844-12.947-2.856-18.979-1.657-4.975-.6-8.643 1.764-12.629 9.029-14.957 22.048-24.025 39.053-28.293 12.699-3.211 15.097-10.019 21.66-12.17 2.153.492 3.035 2.468 4.94 3.915 3.738-1.588 4.727-3.564 3.28-7.409-6.632-17.604-7.056-35.665-1.478-53.481 4.795-15.556 10.896-30.656 16.295-46.037 3.81-10.866 7.372-21.802 10.866-32.739 5.185-16.155 14.814-28.539 29.669-37.005 10.16-5.82 20.495-11.254 29.173-19.578 5.998-5.682 13.794-9.526 21.167-13.478 7.655-4.057 14.5-8.466 18.028-16.898 1.657-3.881 2.222-7.443.424-11.324-4.059-8.995-8.079-17.956-11.996-26.987-1.764-4.128-2.787-8.573-4.761-12.523-3.39-6.668-3.776-15.453-13.478-17.921-2.47-.6-4.302-4.905-5.715-7.867-4.124-8.89-8.254-17.817-11.748-26.987-9.277-24.449-17.566-49.25-27.516-73.379-5.608-13.547-8.819-27.764-14.145-41.311-1.13-2.857-2.436-5.715-3.81-8.466-8.186-16.087-14.077-32.914-17.956-50.624-2.577-11.711-7.8-22.86-11.851-34.22-.603-1.586-1.943-3.033-2.05-4.62-.672-9.562-7.652-11.572-15.134-12.418-20.637-2.328-41.204-5.15-61.489-9.701-6.563-1.483-13.267-2.153-19.933-3.386-2.646-.531-5.219-1.554-9.419-2.824 2.787-3.421 4.41-6.668 6.987-8.183 12.981-7.692 25.294-16.652 39.825-21.52 3.142-1.058 6.211-2.646 9.033-4.481 6.842-4.339 14.535-6.631 22.224-7.197a24 24 0 0 1 1.763-.063c4.875.003 10.372 1.41 14.082 4.049 8.109 5.716 16.757 11.078 21.762 20.568 2.363 4.445 7.372 7.372 11.042 11.218 5.925 6.316 11.323 13.123 17.57 19.121 13.263 12.771 27.161 25.011 40.466 37.782 9.346 8.995 15.906 20.003 22.048 31.397 4.689 8.608 7.194 17.71 9.805 26.953.916 3.457 2.715 6.809 4.868 9.736 12.382 17.322 25.015 34.502 37.641 51.683 1.94 2.68 4.41 5.044 6.632 7.584 5.75 6.386 11.465 12.876 17.322 19.191 4.726 5.116 9.594 10.231 14.71 14.993 7.338 6.915 14.856 13.653 19.296 22.895a277 277 0 0 1 7.762 17.604c2.046 5.187 3.776 10.479 5.574 15.77.459 1.269.917 2.575 1.165 3.915.599 3.422 1.057 6.844 1.516 9.807-3.387 4.622-6.563 9.738-10.511 14.218-3.669 4.198-8.182 7.725-12.206 11.606-7.762 7.337-12.031 16.051-10.163 27.904-2.57 1.059-5.361 2.187-8.079 3.352-4.689 2.01-5.536 5.08-2.291 8.961 4.727 5.608 7.055 11.994 6.773 19.261a953 953 0 0 1-1.164 20.178c-.318 4.375.706 8.22 3.245 11.889 2.787 3.881 4.692 8.396 7.586 12.136 5.574 7.162 13.58 9.208 21.942 7.515 4.726-.953 8.395-1.342 12.633 1.375 5.605 3.598 6.311 3.21 11.179-1.835.951-.987 2.188-1.693 3.456-2.68 4.199 3.527 3.707 8.042 3.6 12.664 4.127 2.575 7.055.494 9.029-2.822 2.722-4.551 4.872-9.419 7.235-14.181.6-1.236 1.164-2.471 2.115-4.551 2.856 3.881 5.292 7.231 7.938 10.866 2.363-2.047 4.199-2.824 4.268-3.776 1.165-10.23 9.243-17.179 12.279-26.564.916-2.857 4.302-5.08 6.841-7.126 2.471-1.905 5.223-3.423 8.011-4.763 19.299-9.277 24.163-29.562 23.071-45.825-1.023-15.275-7.727-28.716-15.664-41.381-5.151-8.22-13.76-12.242-22.825-15.063-2.401-.741-4.867-1.306-7.231-1.905-2.012-1.482-10.549-3.246-11.996-3.494-4.867-.882-9.701-2.151-14.534-3.279.141-.777 0-1.623.282-1.73 8.82-4.198 17.498-9.278 26.775-12.03 5.506-1.587 13.054-1.199 17.994 1.447 11.252 6.032 22.576 12.63 30.762 23.106.633.882 1.164 2.047 2.008 2.682 17.115 13.3 24.977 31.185 27.202 52.388.951 8.854-.988 16.509-4.795 24.129-1.519 2.999-2.967 6.139-3.707 9.349-.565 2.54 0 5.362.103 8.044l.355.775c2.928 10.549-2.894 18.309-13.794 17.181-7.548-.812-11.889 2.363-14.676 8.466-2.505 5.611-4.41 11.465-6.35 17.286-1.481 4.41.882 7.55 3.845 10.444 6.666 6.454 13.722 12.523 19.686 19.508 4.692 5.467 9.418 11.57 11.892 18.238 6.594 18.204 12.13 36.583 11.286 56.656-.741 17.215-2.825 33.902-7.021 50.624-2.256 9.244-4.41 18.733-2.222 28.963 2.89 13.865 2.963 28.327 5.677 42.263 2.085 10.971 6.246 21.483 9.423 32.244 1.798 6.208 3.279 12.489 5.043 18.662 4.128 14.392 7.904 28.751 5.154 43.991-.881 4.656-1.343 9.455-1.45 14.181-.034 5.857.569 11.748.706 17.605.107 4.232.527 8.571-.282 12.664-2.116 10.301-.776 20.496-.565 30.761.248 8.961-.741 17.958-1.092 26.919-.39 8.678-.92 17.426-.707 26.105.386 13.723 1.13 27.445 2.15 41.134.462 5.785 4.975 23.248 2.753 31.044 3.669 3.386 11.079 16.616 11.82 29.387a74 74 0 0 1 .124 3.885v.33c-.008 5.68-.804 9.874-2.067 16.352-.386 1.834-1.551 10.795-2.047 12.664-.42 1.623-2.856 5.045-7.334 11.148-2.825 2.61-9.667 7.972-17.077 8.255-7.9.282-15.345 4.656-18.732 4.762-1.832.106-8.327.741-15.875 1.764-4.55.634-9.102 3.034-14.321.882-8.575-7.62-12.137-9.489-14.993-18.308-4.871-15.629-4.41-23.214-3.989-24.66 3.107-10.618 10.514-13.583 8.857-22.719-.882-4.763 1.233-7.161 3.349-11.254 2.401-4.655 7.055-6.772 9.949-7.866 5.399-2.011 7.025-2.117 8.43-5.609 4.166-10.513 4.2-21.873-1.092-32.703-3.245-6.563-5.433-13.582-8.396-20.25-3.352-7.62-7.655-14.499-16.191-18.345.599-3.633 1.267-7.124 1.87-10.652 1.516-8.856 3.456-17.639 4.407-26.529.389-4.022-.986-8.291-1.727-12.384-1.164-6.385-1.764-12.946-3.81-18.979-2.894-8.29-7.021-16.052-15.558-19.368-2.329-9.207 1.692-16.65 5.292-23.742 3.844-7.548 3.951-13.828-2.222-19.861-2.646-2.609-3.211-5.856-2.257-9.384 3.986-15.24-.213-28.963-8.327-41.627-2.504-3.916-6.311-7.338-10.266-9.807-3.952-2.47-4.303-4.587-3.318-8.89 2.402-10.373 3.99-20.92 5.681-31.398.848-5.468 1.592-10.971 1.837-16.475.068-3.245-.531-6.668-1.554-9.772-3.528-10.937-7.197-21.801-11.183-32.561-.599-1.587-3.211-2.999-5.147-3.492-9.14-2.224-18.521-1.412-27.485.493-20.14 4.305-36.511 15.241-49.988 30.516-7.269 8.255-7.938 18.451-5.468 28.503 2.047 8.362 12.982 16.618 25.718 13.865 10.652-2.293 31.853.812 37.042 8.255 6.383 9.172 5.643 22.26 6.807 33.409.989 9.772 2.791 19.578 2.791 29.35-.038 12.666-6.952 22.014-17.36 28.999-12.171 8.15-24.66 8.642-38.557 4.374-10.198-3.104-20.709-2.788-30.941 3.14-10.725 6.173-21.8 11.606-31.361 19.58-4.94 4.127-8.254 9.171-10.232 15.239-1.622 5.08-3.314 10.16-4.868 15.276-2.046 6.878.848 13.264 2.364 19.756a48.6 48.6 0 0 0 3.073 8.783c4.124 9.031.561 16.299-5.719 22.472-3.669 3.704-8.392 6.491-12.557 9.736-2.436 1.871-4.73 3.881-7.197 5.681-4.94 3.599-10.022 5.502-16.264 3.209-3.242-1.198-6.915-1.057-10.194-2.117-3.036-.987-7.022-1.974-8.538-4.303-4.375-6.809-8.361-14.076-7.269-22.86.71-5.679.71-5.82 8.327-8.607a501 501 0 0 1 5.467 7.901c4.269 6.14 13.054 5.786 17.784.283 1.054-1.199 2.925-2.929 2.646-5.292-1.344-10.654-1.099-19.403-7.483-28.751-4.058-5.927-9.736-9.243-16.615-10.583-5.75-1.128-8.61-4.198-9.244-10.266-.809-8.854-2.291-17.639-3.7-26.423-1.839-11.289 5.006-19.086 10.756-27.27 1.905-2.752 4.692-4.94 6.666-7.656 3.318-4.586 2.542-8.642-2.467-11.076-3.21-1.588-6.845-2.787-10.373-3.104"/><path fill="none" stroke="#000" stroke-miterlimit="10" stroke-width="7.056" d="M2024.891 1171.064c3.669 3.386 11.079 16.616 11.82 29.387.458 8.079-.389 12.593-1.943 20.567-.386 1.834-1.551 10.795-2.047 12.664-.42 1.623-2.856 5.045-7.334 11.148-2.825 2.61-9.667 7.972-17.077 8.255-7.9.282-15.345 4.656-18.732 4.762-1.832.106-8.327.741-15.875 1.764-4.55.634-9.102 3.034-14.321.882-8.575-7.62-12.137-9.489-14.993-18.308-4.871-15.629-4.41-23.214-3.989-24.66 3.107-10.618 10.514-13.583 8.857-22.719-.882-4.763 1.233-7.161 3.349-11.254 2.401-4.655 7.055-6.772 9.949-7.866 5.399-2.011 7.025-2.117 8.43-5.609 4.166-10.513 4.2-21.873-1.092-32.703-3.245-6.563-5.433-13.582-8.396-20.25-3.352-7.62-7.655-14.499-16.191-18.345.599-3.633 1.267-7.124 1.87-10.652 1.516-8.856 3.456-17.639 4.407-26.529.389-4.022-.986-8.291-1.727-12.384-1.164-6.385-1.764-12.946-3.81-18.979-2.894-8.29-7.021-16.052-15.558-19.368-2.329-9.207 1.692-16.65 5.292-23.742 3.844-7.548 3.951-13.828-2.222-19.861-2.646-2.609-3.211-5.856-2.257-9.384 3.986-15.24-.213-28.963-8.327-41.627-2.504-3.916-6.311-7.338-10.266-9.807-3.952-2.47-4.303-4.587-3.318-8.89 2.402-10.373 3.99-20.92 5.681-31.398.848-5.468 1.592-10.971 1.837-16.475.068-3.245-.531-6.668-1.554-9.772-3.528-10.937-7.197-21.801-11.183-32.561-.599-1.587-3.211-2.999-5.147-3.492-9.14-2.224-18.521-1.412-27.485.493-20.14 4.305-36.511 15.241-49.988 30.516-7.269 8.255-7.938 18.451-5.468 28.503 2.047 8.362 12.982 16.618 25.718 13.865 10.652-2.293 31.853.812 37.042 8.255 6.383 9.172 5.643 22.26 6.807 33.409.989 9.772 2.791 19.578 2.791 29.35-.038 12.666-6.952 22.014-17.36 28.999-12.171 8.15-24.66 8.642-38.557 4.374-10.198-3.104-20.709-2.788-30.941 3.14-10.725 6.173-21.8 11.606-31.361 19.58-4.94 4.127-8.254 9.171-10.232 15.239-1.622 5.08-3.314 10.16-4.868 15.276-2.046 6.878.848 13.264 2.364 19.756a48.6 48.6 0 0 0 3.073 8.783c4.124 9.031.561 16.299-5.719 22.472-3.669 3.704-8.392 6.491-12.557 9.736-2.436 1.871-4.73 3.881-7.197 5.681-4.94 3.599-10.022 5.502-16.264 3.209-3.242-1.198-6.915-1.057-10.194-2.117-3.036-.987-7.022-1.974-8.538-4.303-4.375-6.809-8.361-14.076-7.269-22.86.71-5.679.71-5.82 8.327-8.607a501 501 0 0 1 5.467 7.901c4.269 6.14 13.054 5.786 17.784.283 1.054-1.199 2.925-2.929 2.646-5.292-1.344-10.654-1.099-19.403-7.483-28.751-4.058-5.927-9.736-9.243-16.615-10.583-5.75-1.128-8.61-4.198-9.244-10.266-.809-8.854-2.291-17.639-3.7-26.423-1.839-11.289 5.006-19.086 10.756-27.27 1.905-2.752 4.692-4.94 6.666-7.656 3.318-4.586 2.542-8.642-2.467-11.076-3.21-1.588-6.845-2.787-10.373-3.104-7.513-.743-14.993-1.342-22.048-4.799-4.799-2.364-9.171-.071-11.393 5.045-5.151 11.889-9.633 23.883-11.855 36.759-1.619 9.102-4.41 17.71-11.32 24.907-3.673 3.844-5.189 9.842-7.235 15.063-1.199 3.034-2.543 5.326-5.75 6.668-4.654 1.974-9.491 3.88-13.443 6.879-3.917 2.998-6.914 7.267-9.277 9.842-.142 7.338.427 13.582-.531 19.544-1.55 9.102 2.084 17.252 3.776 25.681.565 2.717 3.635 4.87 5.433 7.375 9.312 12.629 5.715 15.946-6.243 21.978-8.468 4.198-16.119 2.68-23.953-.882-3.811-1.73-7.621-3.564-11.569-4.975-6.811-2.434-10.904-7.479-11.644-14.287-1.906-17.497-9.244-33.443-13.23-50.307-1.802-7.548-1.87-15.485-3.176-23.142-.917-5.468-2.363-10.864-4.196-16.085-1.485-4.2-3.914-8.079-6.032-12.031-3.635-6.773-4.765-13.828-2.367-21.132 2.084-6.42 4.058-12.876 6.845-19.013 9.106-20.251 18.807-40.182 27.626-60.574 3.383-7.901 5.816-16.545 6.839-25.082.741-6.173-.844-12.947-2.856-18.979-1.657-4.975-.6-8.643 1.764-12.629 9.029-14.957 22.048-24.025 39.053-28.293 12.699-3.211 15.097-10.019 21.66-12.17 2.153.492 3.035 2.468 4.94 3.915 3.738-1.588 4.727-3.564 3.28-7.409-6.632-17.604-7.056-35.665-1.478-53.481 4.795-15.556 10.896-30.656 16.295-46.037 3.81-10.866 7.372-21.802 10.866-32.739 5.185-16.155 14.814-28.539 29.669-37.005 10.16-5.82 20.495-11.254 29.173-19.578 5.998-5.682 13.794-9.526 21.167-13.478 7.655-4.057 14.5-8.466 18.028-16.898 1.657-3.881 2.222-7.443.424-11.324-4.059-8.995-8.079-17.956-11.996-26.987-1.764-4.128-2.787-8.573-4.761-12.523-3.39-6.668-3.776-15.453-13.478-17.921-2.47-.6-4.302-4.905-5.715-7.867-4.124-8.89-8.254-17.817-11.748-26.987-9.277-24.449-17.566-49.25-27.516-73.379-5.608-13.547-8.819-27.764-14.145-41.311-1.13-2.857-2.436-5.715-3.81-8.466-8.186-16.087-14.077-32.914-17.956-50.624-2.577-11.711-7.8-22.86-11.851-34.22-.603-1.586-1.943-3.033-2.05-4.62-.672-9.562-7.652-11.572-15.134-12.418-20.637-2.328-41.204-5.15-61.489-9.701-6.563-1.483-13.267-2.153-19.933-3.386-2.646-.531-5.219-1.554-9.419-2.824 2.787-3.421 4.41-6.668 6.987-8.183 12.981-7.692 25.294-16.652 39.825-21.52 3.142-1.058 6.211-2.646 9.033-4.481 6.842-4.339 14.535-6.631 22.224-7.197 5.261-.387 11.679 1.023 15.845 3.986 8.109 5.716 16.757 11.078 21.762 20.568 2.363 4.445 7.372 7.372 11.042 11.218 5.925 6.316 11.323 13.123 17.57 19.121 13.263 12.771 27.161 25.011 40.466 37.782 9.346 8.995 15.906 20.003 22.048 31.397 4.689 8.608 7.194 17.71 9.805 26.953.916 3.457 2.715 6.809 4.868 9.736 12.382 17.322 25.015 34.502 37.641 51.683 1.94 2.68 4.41 5.044 6.632 7.584 5.75 6.386 11.465 12.876 17.322 19.191 4.726 5.116 9.594 10.231 14.71 14.993 7.338 6.915 14.856 13.653 19.296 22.895a277 277 0 0 1 7.762 17.604c2.046 5.187 3.776 10.479 5.574 15.77.459 1.269.917 2.575 1.165 3.915.599 3.422 1.057 6.844 1.516 9.807-3.387 4.622-6.563 9.738-10.511 14.218-3.669 4.198-8.182 7.725-12.206 11.606-7.762 7.337-12.031 16.051-10.163 27.904-2.57 1.059-5.361 2.187-8.079 3.352-4.689 2.01-5.536 5.08-2.291 8.961 4.727 5.608 7.055 11.994 6.773 19.261a953 953 0 0 1-1.164 20.178c-.318 4.375.706 8.22 3.245 11.889 2.787 3.881 4.692 8.396 7.586 12.136 5.574 7.162 13.58 9.208 21.942 7.515 4.726-.953 8.395-1.342 12.633 1.375 5.605 3.598 6.311 3.21 11.179-1.835.951-.987 2.188-1.693 3.456-2.68 4.199 3.527 3.707 8.042 3.6 12.664 4.127 2.575 7.055.494 9.029-2.822 2.722-4.551 4.872-9.419 7.235-14.181.6-1.236 1.164-2.471 2.115-4.551 2.856 3.881 5.292 7.231 7.938 10.866 2.363-2.047 4.199-2.824 4.268-3.776 1.165-10.23 9.243-17.179 12.279-26.564.916-2.857 4.302-5.08 6.841-7.126 2.471-1.905 5.223-3.423 8.011-4.763 19.299-9.277 24.163-29.562 23.071-45.825-1.023-15.275-7.727-28.716-15.664-41.381-5.151-8.22-13.76-12.242-22.825-15.063-2.401-.741-4.867-1.306-7.231-1.905-2.012-1.482-10.549-3.246-11.996-3.494-4.867-.882-9.701-2.151-14.534-3.279.141-.777 0-1.623.282-1.73 8.82-4.198 17.498-9.278 26.775-12.03 5.506-1.587 13.054-1.199 17.994 1.447 11.252 6.032 22.576 12.63 30.762 23.106.633.882 1.164 2.047 2.008 2.682 17.115 13.3 24.977 31.185 27.202 52.388.951 8.854-.988 16.509-4.795 24.129-1.519 2.999-2.967 6.139-3.707 9.349-.565 2.54 0 5.362.103 8.044M1995.08 605.35l.355.775"/><path fill="none" stroke="#000" stroke-miterlimit="10" stroke-width="7.056" d="M1995.435 606.125c2.928 10.549-2.894 18.309-13.794 17.181-7.548-.812-11.889 2.363-14.676 8.466-2.505 5.611-4.41 11.465-6.35 17.286-1.481 4.41.882 7.55 3.845 10.444 6.666 6.454 13.722 12.523 19.686 19.508 4.692 5.467 9.418 11.57 11.892 18.238 6.594 18.204 12.13 36.583 11.286 56.656-.741 17.215-2.825 33.902-7.021 50.624-2.256 9.244-4.41 18.733-2.222 28.963 2.89 13.865 2.963 28.327 5.677 42.263 2.085 10.971 6.246 21.483 9.423 32.244 1.798 6.208 3.279 12.489 5.043 18.662 4.128 14.392 7.904 28.751 5.154 43.991-.881 4.656-1.343 9.455-1.45 14.181-.034 5.857.569 11.748.706 17.605.107 4.232.527 8.571-.282 12.664-2.116 10.301-.776 20.496-.565 30.761.248 8.961-.741 17.958-1.092 26.919-.39 8.678-.92 17.426-.707 26.105.386 13.723 1.13 27.445 2.15 41.134.462 5.785 4.975 23.248 2.753 31.044"/><path fill-rule="nonzero" d="M810.57 444.325c2.153.811 4.482 4.974 4.303 7.408-.702 10.584-2.608 21.096-3.421 31.643-.423 5.433-3.138 7.197-7.903 7.692-24.87 2.47-49.74 4.904-74.576 7.796-2.435.282-5.574 3.174-6.597 5.609-6.666 15.945-12.523 32.244-19.33 48.119-2.26 5.291-1.696 8.502 2.149 12.735a854 854 0 0 1 7.48 8.29c14.183 15.911 27.939 32.139 42.439 47.696 2.398 2.575 1.482 6.139.352 7.832-5.75 8.713-11.679 17.286-18.238 25.752-3.494 4.517-7.125 4.975-12.733 2.929-23.003-8.432-45.51-17.815-67.169-26.741-3.353-1.376-6.388-.634-8.678 1.34-10.656 9.173-20.534 18.591-31.189 26.989-5.009 3.95-5.643 7.972-4.268 13.017 3.352 12.311 7.055 24.553 10.583 36.83 3.352 11.57 7.235 23.035 9.88 34.396.703 2.928-.179 5.715-3.424 7.513-12.21 6.703-32.666 17.956-35.664 19.121-21.625-56.409-43.253-112.818-64.912-169.297 67.276-42.687 103.363-102.73 104.951-183.057-120.933 46.355-240.946 92.392-361.597 138.641 17.711 21.202 39.016 36.724 62.725 48.436 43.639 21.627 89.71 27.165 139.133 16.793a758253 758253 0 0 1 64.982 169.439c-2.966 1.164-26.104 6.526-40.146 10.125-5.891 1.481-7.372-1.023-9.595-5.433-11.113-22.049-21.766-44.239-32.841-66.005-1.871-3.703-4.41-5.009-8.61-4.833-.458 0-29.211.107-43.108.635-2.364.071-5.719 2.117-6.773 4.198-11.824 23.072-23.213 46.356-35.034 69.428-.882 1.693-4.337 3.315-6.246 2.962-9.381-1.657-18.693-3.986-28.008-6.103-10.935-2.504-10.9-2.857-10.828-14.04.141-21.661 1.764-43.391.103-64.947-.668-8.749-1.836-11.395-11.251-15.627-3.211-1.447-6.598-2.717-10.091-4.41-10.759-5.186-20.884-11.677-31.326-17.534-3.776-2.08-6.598-1.764-10.515 1.13-19.895 14.745-40.287 28.751-60.324 43.285-3.668 2.646-5.925 2.894-9.418-.176-7.796-6.949-16.051-13.371-23.778-20.214-4.269-3.81-4.868-6.069-2.257-10.866 11.782-21.837 23.141-43.427 33.69-64.134 1.939-3.776 2.012-7.727-.706-11.854-9.488-14.429-18.804-28.152-27.94-41.945-2.891-4.375-6.102-6.562-11.889-5.327-8.041 1.764-16.334 2.292-24.481 3.528-14.89 2.221-29.81 4.48-44.697 6.738l-12.454-6.032c-3.81-9.808-7.796-19.792-11.396-29.67-1.268-3.562-.104-7.09 2.859-8.96 12.84-8.043 46.285-30.374 63.252-42.122 2.68-1.834 3.986-3.986 3.283-8.22-2.611-15.205-4.589-30.585-6.07-45.966-1.199-12.736-2.15-13.935-13.828-17.921-20.991-7.197-42.017-14.323-62.905-22.472-5.463-2.117-6.029-4.128-5.391-9.102 1.374-10.83 3.104-21.379 4.337-31.997.565-4.797 2.787-5.645 7.128-6.069 24.233-2.468 48.469-5.291 71.648-7.901 4.833-.565 8.044-2.47 9.808-6.738 6.949-16.969 13.512-33.619 20.068-50.271 1.24-3.104.286-5.857-2.746-9.207-16.406-18.238-32.773-36.796-49.038-55.492-3.493-3.986-2.153-7.409-1.233-8.785 6.453-9.631 12.382-18.027 18.979-27.092 2.646-3.635 5.536-4.059 9.736-2.365 22.93 9.313 45.93 17.78 67.803 26.74 3.986 1.659 8.044 1.447 11.324-1.481 10.797-9.701 21.342-18.874 31.643-28.222 3.459-3.14 3.566-5.574 2.508-8.995-2.508-8.186-4.165-16.545-6.421-24.765-4.445-16.334-8.854-32.669-13.764-48.826-1.512-5.009.71-6.208 4.448-8.184l33.338-17.427c.989-.388 1.94-1.023 2.928-1.411 21.663 56.55 43.357 113.101 64.947 169.368-67.699 41.841-103.046 100.437-106.963 178.894 120.013-46.037 238.831-91.581 358.917-137.618-55.28-55.562-120.754-75.671-197.132-61.983-21.8-56.833-43.425-113.242-65.053-169.652 2.966-1.128 28.787-7.901 38.843-9.594 2.329-.39 6.491.775 7.338 2.468 11.076 21.873 21.553 43.992 32.491 65.9 1.974 3.986 3.314 8.783 10.053 8.466 14.252-.67 28.539-.706 42.932-.706 4.341 0 6.773-2.293 8.396-5.467 10.9-21.45 21.556-43.428 32.456-65.335 1.13-2.258 8.609-5.679 11.183-5.114 8.923 2.01 17.673 4.02 26.493 5.538 6.811 1.164 9.384 3.915 9.278 11.112-.421 23.954-.138 47.942-.176 71.932 0 4.656 1.019 7.584 6.139 9.877 15.699 7.162 30.868 15.522 46.46 22.967 2.612 1.233 7.27 1.515 9.454.034 15.63-10.866 30.833-22.436 46.323-33.548 6.49-4.658 13.015-11.502 20.071-12.243 4.94-.528 25.469 19.192 27.554 21.591 3.421 3.881 4.902 8.008 3.489 11.358-1.092 2.682-2.928 6.422-5.818 11.677-.355.636-18.521 32.421-28.329 52.425-2.615 5.255-2.398 7.477.282 11.394 10.125 14.781 19.544 29.492 29.173 44.061 2.646 4.023 5.964 4.41 10.656 3.705 25.259-3.739 50.588-7.126 75.882-10.337 1.622-.211 4.55 1.589 5.222 3.141 4.231 10.301 8.114 20.743 12.065 31.08 1.764 4.585.706 7.406-2.611 9.735-20.709 14.606-41.627 27.976-62.019 42.122-2.539 1.764-5.398 5.786-5.116 8.432 1.905 18.696 4.551 37.324 7.163 55.95.209 1.623 1.446 3.881 2.787 4.446 5.749 2.505 11.675 4.515 17.566 6.632 18.876 6.843 37.82 13.511 56.551 20.743"/><path fill-rule="nonzero" d="M712.675 573.617c14.252 15.804 28.187 31.891 42.439 47.696-14.5-15.557-28.256-31.785-42.439-47.696"/><path fill="none" stroke="#000" stroke-linecap="round" stroke-linejoin="round" stroke-miterlimit="10" stroke-width="14.111" d="M539.848 791.246c-2.966 1.164-26.104 6.526-40.146 10.125-5.891 1.481-7.372-1.023-9.595-5.433-11.113-22.049-21.766-44.239-32.841-66.005-1.871-3.703-4.41-5.009-8.61-4.833-.458 0-29.211.107-43.108.635-2.364.071-5.719 2.117-6.773 4.198-11.824 23.072-23.213 46.356-35.034 69.428-.882 1.693-4.337 3.315-6.246 2.962-9.381-1.657-18.693-3.986-28.008-6.103-10.935-2.504-10.9-2.857-10.828-14.04.141-21.661 1.764-43.391.103-64.947-.668-8.749-1.836-11.395-11.251-15.627-3.211-1.447-6.598-2.717-10.091-4.41-10.759-5.186-20.884-11.677-31.326-17.534-3.776-2.08-6.598-1.764-10.515 1.13-19.895 14.745-40.287 28.751-60.324 43.285-3.668 2.646-5.925 2.894-9.418-.176-7.796-6.949-16.051-13.371-23.778-20.214-4.269-3.81-4.868-6.069-2.257-10.866 11.782-21.837 23.141-43.427 33.69-64.134 1.939-3.776 2.012-7.727-.706-11.854-9.488-14.429-18.804-28.152-27.94-41.945M623.774 709.261c3.352 11.57 7.235 23.035 9.88 34.396.703 2.928-.179 5.715-3.424 7.513-12.21 6.703-32.666 17.956-35.664 19.121M712.675 573.617c14.252 15.804 28.187 31.891 42.439 47.696M383.392 219.535c-21.8-56.833-43.425-113.242-65.053-169.652 2.966-1.128 28.787-7.901 38.843-9.594M260.695 72.285c.989-.388 1.94-1.023 2.928-1.411M71.325 573.795c-3.81-9.808-7.796-19.792-11.396-29.67-1.268-3.562-.104-7.09 2.859-8.96 12.84-8.043 46.285-30.374 63.252-42.122 2.68-1.834 3.986-3.986 3.283-8.22-2.611-15.205-4.589-30.585-6.07-45.966"/><path fill="none" stroke="#000" stroke-linecap="round" stroke-linejoin="round" stroke-miterlimit="10" stroke-width="14.111" d="M623.774 709.261c-3.528-12.277-7.231-24.519-10.583-36.83-1.375-5.045-.741-9.067 4.268-13.017 10.655-8.398 20.533-17.816 31.189-26.989 2.29-1.974 5.325-2.716 8.678-1.34 21.659 8.926 44.166 18.309 67.169 26.741 5.608 2.046 9.239 1.588 12.733-2.929 6.559-8.466 12.488-17.039 18.238-25.752 1.13-1.693 2.046-5.257-.352-7.832-14.5-15.557-28.256-31.785-42.439-47.696a854 854 0 0 0-7.48-8.29c-3.845-4.233-4.409-7.444-2.149-12.735 6.807-15.875 12.664-32.174 19.33-48.119 1.023-2.435 4.162-5.327 6.597-5.609 24.836-2.892 49.706-5.326 74.576-7.796 4.765-.495 7.48-2.259 7.903-7.692.813-10.547 2.719-21.059 3.421-31.643.179-2.434-2.15-6.597-4.303-7.408-18.731-7.232-37.675-13.9-56.551-20.743-5.891-2.117-11.817-4.127-17.566-6.632-1.341-.565-2.578-2.823-2.787-4.446-2.612-18.626-5.258-37.254-7.163-55.95-.282-2.646 2.577-6.668 5.116-8.432 20.392-14.146 41.31-27.516 62.019-42.122 3.317-2.329 4.375-5.15 2.611-9.735-3.951-10.337-7.834-20.779-12.065-31.08-.672-1.552-3.6-3.352-5.222-3.141-25.294 3.211-50.623 6.598-75.882 10.337-4.692.705-8.01.318-10.656-3.705-9.629-14.569-19.048-29.28-29.173-44.061-2.68-3.917-2.897-6.139-.282-11.394 9.808-20.004 27.974-51.789 28.329-52.425 2.89-5.255 4.726-8.995 5.818-11.677 1.413-3.35-.068-7.477-3.489-11.358-2.085-2.399-22.614-22.119-27.554-21.591-7.056.741-13.581 7.585-20.071 12.243-15.49 11.112-30.693 22.682-46.323 33.548-2.184 1.481-6.842 1.199-9.454-.034-15.592-7.445-30.761-15.805-46.46-22.967-5.12-2.293-6.139-5.221-6.139-9.877.038-23.99-.245-47.978.176-71.932.106-7.197-2.467-9.948-9.278-11.112-8.82-1.518-17.57-3.528-26.493-5.538-2.574-.565-10.053 2.856-11.183 5.114-10.9 21.907-21.556 43.885-32.456 65.335-1.623 3.174-4.055 5.467-8.396 5.467-14.393 0-28.68.036-42.932.706-6.739.317-8.079-4.48-10.053-8.466-10.938-21.908-21.415-44.027-32.491-65.9-.847-1.693-5.009-2.858-7.338-2.468M227.357 89.712c-3.738 1.976-5.96 3.175-4.448 8.184 4.91 16.157 9.319 32.492 13.764 48.826 2.256 8.22 3.913 16.579 6.421 24.765 1.058 3.421.951 5.855-2.508 8.995-10.301 9.348-20.846 18.521-31.643 28.222-3.28 2.928-7.338 3.14-11.324 1.481-21.873-8.96-44.873-17.427-67.803-26.74-4.2-1.694-7.09-1.27-9.736 2.365-6.597 9.065-12.526 17.461-18.979 27.092-.92 1.376-2.26 4.799 1.233 8.785 16.265 18.696 32.632 37.254 49.038 55.492 3.032 3.35 3.986 6.103 2.746 9.207-6.556 16.652-13.119 33.302-20.068 50.271-1.764 4.268-4.975 6.173-9.808 6.738-23.179 2.61-47.415 5.433-71.648 7.901-4.341.424-6.563 1.272-7.128 6.069-1.233 10.618-2.963 21.167-4.337 31.997-.638 4.974-.072 6.985 5.391 9.102 20.888 8.149 41.914 15.275 62.905 22.472 11.678 3.986 12.629 5.185 13.828 17.921M152.957 569.561c5.787-1.235 8.998.952 11.889 5.327M83.779 579.827a18391 18391 0 0 1 44.697-6.738c8.147-1.236 16.44-1.764 24.481-3.528"/><path fill="none" stroke="#000" stroke-linecap="round" stroke-linejoin="round" stroke-miterlimit="10" stroke-width="14.111" d="M539.848 791.246a758253 758253 0 0 0-64.982-169.439c-49.423 10.372-95.494 4.834-139.133-16.793-23.709-11.712-45.014-27.234-62.725-48.436 120.651-46.249 240.664-92.286 361.597-138.641-1.588 80.327-37.675 140.37-104.951 183.057 21.659 56.479 43.287 112.888 64.912 169.297M383.392 219.535c76.378-13.688 141.852 6.421 197.132 61.983-120.086 46.037-238.904 91.581-358.917 137.618 3.917-78.457 39.264-137.053 106.963-178.894a330694 330694 0 0 1-64.947-169.368"/><path fill-rule="nonzero" d="m260.709 72.271-33.349 17.44z"/><path fill="none" stroke="#000" stroke-linecap="round" stroke-linejoin="round" stroke-miterlimit="10" stroke-width="14.111" d="m260.709 72.271-33.349 17.44z"/><path fill-rule="nonzero" d="M71.312 573.801c1.75 4.231 5.863 7.097 12.478 6.022z"/><path fill="none" stroke="#000" stroke-linecap="round" stroke-linejoin="round" stroke-miterlimit="10" stroke-width="14.111" d="M71.312 573.801c1.75 4.231 5.863 7.097 12.478 6.022"/><path fill="#ffe600" fill-rule="nonzero" d="m384.129 211.191 204.577-26.851.844 74.108 42.775-77.822 227.617-35.143 1.626 121.281 77.611-133.47 81.594-9.718 84.921 12.099 51.022 106.581-.468-98.892 253.304 38.734-.041 254.144 43.511-.22.331-249.515 49.527 24.271 108.61 23.475 31.481 48.386 102.898 256.35-97.613 13.71-35.857-85.437-31.157 32.336v62.914l-233.144 31.933-66.735-81.139-.382 88.952-257.438 41.281-82.889-12.532-57.327-120.977-24.267 23.805 1.175 85.304-273.958-36.601-.461-181.718-37.059-.303-.279 173.605-144.343-15.731V400.82h-69.377l-1.061-120.361z"/><path fill="#836b23" fill-rule="nonzero" d="m1571.537 337.451 31.044 62.122-44.628-7.442.462-40.113z"/><path fill="none" stroke="#836b23" stroke-linecap="square" stroke-miterlimit="10" stroke-width="3.528" d="m1557.953 392.131.462-40.113 13.122-14.567 31.044 62.122z"/><path fill="#836b23" fill-rule="nonzero" d="m862.347 618.288-1.633-84.674 22.637-22.048 44.39 90.251z"/><path fill="none" stroke="#836b23" stroke-linecap="round" stroke-linejoin="round" stroke-miterlimit="10" stroke-width="10.583" d="m862.347 618.288-1.633-84.674 22.637-22.048 44.39 90.251z"/><path fill="#836b23" fill-rule="nonzero" d="m587.47 400.599-37.059-.303-.279 173.605 37.289-13.558z"/><path fill="none" stroke="#836b23" stroke-linecap="round" stroke-linejoin="round" stroke-miterlimit="10" stroke-width="10.583" d="m587.47 400.599-37.059-.303-.279 173.605 37.289-13.558z"/><path fill="#836b23" fill-rule="nonzero" d="m861.899 144.098 56.451 22.207-55.907 96.234z"/><path fill="none" stroke="#836b23" stroke-linecap="round" stroke-linejoin="round" stroke-miterlimit="10" stroke-width="10.583" d="m861.899 144.098 56.451 22.207-55.907 96.234z"/><path fill="#836b23" fill-rule="nonzero" d="m1645.713 552.111-62.825-9.078-2.053-43.215 30.276-33.81z"/><path fill="none" stroke="#836b23" stroke-linecap="round" stroke-linejoin="round" stroke-miterlimit="10" stroke-width="10.583" d="m1645.713 552.111-62.825-9.078-2.053-43.215 30.276-33.81z"/><path fill="#836b23" fill-rule="nonzero" d="m1452.953 185.549-43.487 20.84.045 229.853 43.511-.22z"/><path fill="none" stroke="#836b23" stroke-linecap="round" stroke-linejoin="round" stroke-miterlimit="10" stroke-width="10.583" d="m1452.953 185.549-43.487 20.84.045 229.853 43.511-.22z"/><path fill="#836b23" fill-rule="nonzero" d="m1022.123 293.66-49.099 106.571 49.258 92.439z"/><path fill="none" stroke="#836b23" stroke-linecap="round" stroke-miterlimit="10" stroke-width="10.583" d="m1022.123 293.66-49.099 106.571 49.258 92.439z"/><path fill="#836b23" fill-rule="nonzero" d="m1121.632 157.768 9.115 23.076 25.28 68.646.221-106.126z"/><path fill="none" stroke="#836b23" stroke-linecap="round" stroke-linejoin="round" stroke-miterlimit="10" stroke-width="10.583" d="m1121.632 157.768 9.115 23.076 25.28 68.646.221-106.126z"/><path fill="#836b23" fill-rule="nonzero" d="m1280.922 507.132 69.588 85.855-69.588-15.41z"/><path fill="none" stroke="#836b23" stroke-linecap="round" stroke-linejoin="round" stroke-miterlimit="10" stroke-width="10.583" d="m1280.922 507.132 69.588 85.855-69.588-15.41z"/><path fill="none" stroke="#836b23" stroke-linecap="round" stroke-linejoin="round" stroke-miterlimit="10" stroke-width="11.76" d="M1280.981 602.258V163.777"/><path fill="none" stroke="#836b23" stroke-miterlimit="10" stroke-width="11.86" d="M1156.186 144.994v475.482M750.491 159.105l.162 442.616"/><path fill="none" stroke="#836b23" stroke-miterlimit="10" stroke-width="11.575" d="M1021.689 127.865v356.212"/><path fill="none" stroke="#836b23" stroke-linecap="round" stroke-linejoin="round" stroke-miterlimit="10" stroke-width="10.583" d="m382.252 210.971 208.728-27.34.224 74.596 41.21-79.237 229.485-34.892v120.385l78.934-131.409 81.594-9.719 83.267 12.32 49.748 108.669.806-100.98 253.194 36.012.069 256.866 43.511-.22-.069-250.473 51.284 24.712 108.61 23.475 31.157 46.891 102.561 256.467-100.177 15.124-35.277-87.533-29.986 33.369.296 63.5-32.928 4.554-197.983 26.879-68.378-15.423.151 25.283-72.622 10.673-187.586 28.326-81.532-13.56-55.562-118.477-22.931 23.227.297 85.252-274.877-34.83V400.599l-37.059-.303-.279 173.605-144.929-17.938-.151-155.881-69.595 1.093-.106-120.937z"/><path fill="#836b23" fill-rule="nonzero" d="m748.555 285.051-14.111 34.688-28.222 32.925 9.405 27.637 20.581 11.761.221 10.36-23.152 28.735 14.408 34.989 20.87 10.583z"/><path fill="none" stroke="#836b23" stroke-linecap="square" stroke-miterlimit="10" stroke-width="3.528" d="m748.555 285.051-14.111 34.688-28.222 32.925 9.405 27.637 20.581 11.761.221 10.36-23.152 28.735 14.408 34.989 20.87 10.583z"/><path fill="#836b23" fill-rule="nonzero" d="m625.348 191.086-34.144 67.141-.224-74.596z"/><path fill="none" stroke="#836b23" stroke-linecap="round" stroke-linejoin="round" stroke-miterlimit="10" stroke-width="10.583" d="m625.348 191.086-34.144 67.141-.224-74.596z"/>

</g>

</svg>
