<?xml version="1.0" encoding="utf-8"?>
<!-- Generator: Adobe Illustrator 27.0.0, SVG Export Plug-In . SVG Version: 6.00 Build 0)  -->
<svg version="1.1" id="Layer_1" xmlns="http://www.w3.org/2000/svg" xmlns:xlink="http://www.w3.org/1999/xlink" x="0px" y="0px"
	 viewBox="0 0 595.28 595.28" style="enable-background:new 0 0 595.28 595.28;" xml:space="preserve">
<style type="text/css">
	.st0{fill:#DAF1FF;}
	.st1{fill:#FFFFFF;}
	
		.st2{fill-rule:evenodd;clip-rule:evenodd;fill:#FFFFFF;stroke:#DAF1FF;stroke-width:4.602;stroke-linecap:round;stroke-linejoin:round;stroke-miterlimit:10;}
	.st3{fill-rule:evenodd;clip-rule:evenodd;fill:#FFFFFF;}
	
		.st4{fill-rule:evenodd;clip-rule:evenodd;fill:#DAF1FF;stroke:#FFFFFF;stroke-width:4.602;stroke-linecap:round;stroke-linejoin:round;stroke-miterlimit:10;}
	.st5{clip-path:url(#SVGID_00000137830270294689655030000013352905649778612124_);}
	.st6{clip-path:url(#SVGID_00000056415828493142174780000012190934823167520128_);fill-rule:evenodd;clip-rule:evenodd;}
	
		.st7{clip-path:url(#SVGID_00000056415828493142174780000012190934823167520128_);fill-rule:evenodd;clip-rule:evenodd;fill:#FFFFFF;}
	
		.st8{clip-path:url(#SVGID_00000056415828493142174780000012190934823167520128_);fill-rule:evenodd;clip-rule:evenodd;fill:#FF9400;}
	.st9{fill:#23333D;stroke:#FFFFFF;stroke-width:2.3559;stroke-miterlimit:10;}
</style>
<g>
	<g>
		<path class="st0" d="M576.38,297.64c0-153.95-124.8-278.75-278.74-278.75S18.9,143.69,18.9,297.64s124.79,278.74,278.74,278.74
			S576.38,451.59,576.38,297.64z"/>
		<path class="st1" d="M557.97,297.64c0-143.78-116.55-260.34-260.33-260.34c-143.77,0-260.33,116.55-260.33,260.34
			c0,143.78,116.55,260.33,260.33,260.33C441.42,557.97,557.97,441.42,557.97,297.64z"/>
		<path class="st0" d="M539.12,297.64c0-133.36-108.12-241.48-241.48-241.48S56.16,164.28,56.16,297.64s108.11,241.48,241.48,241.48
			S539.12,431,539.12,297.64z"/>
	</g>
	<g>
		<path class="st2" d="M143.74,326.86l2.42-111.47l-13.4-2.44l-4.75-13.96l12.16-2.61l2.83-4.93l9.12-0.86l0.02-26.23l-0.02,26.23
			l9.09,0.81l2.9,4.72l11.83,3.09l-4.41,13.73l-13.39,2.44l3.1,111.44"/>
		<g>
			<path class="st3" d="M77.5,353.57c-1.27,0-2.3-1.03-2.3-2.3v-50.03c0-1.27,1.03-2.3,2.3-2.3h49.95c1.27,0,2.3,1.03,2.3,2.3v50.03
				c0,1.27-1.03,2.3-2.3,2.3H77.5z"/>
			<path class="st0" d="M127.45,301.24v50.03H77.5v-50.03H127.45 M127.45,296.64H77.5c-2.54,0-4.6,2.06-4.6,4.6v50.03
				c0,2.54,2.06,4.6,4.6,4.6h49.95c2.54,0,4.6-2.06,4.6-4.6v-50.03C132.05,298.7,129.99,296.64,127.45,296.64L127.45,296.64z"/>
		</g>
		<g>
			<path class="st3" d="M177.74,353.57c-1.27,0-2.3-1.03-2.3-2.3V299.8c0-1.27,1.03-2.3,2.3-2.3h34.47c1.27,0,2.3,1.03,2.3,2.3
				v51.47c0,1.27-1.03,2.3-2.3,2.3H177.74z"/>
			<path class="st0" d="M212.2,299.8v51.47h-34.47V299.8H212.2 M212.2,295.2h-34.47c-2.54,0-4.6,2.06-4.6,4.6v51.47
				c0,2.54,2.06,4.6,4.6,4.6h34.47c2.54,0,4.6-2.06,4.6-4.6V299.8C216.8,297.26,214.74,295.2,212.2,295.2L212.2,295.2z"/>
		</g>
		<g>
			<path class="st3" d="M140.97,353.57c-1.27,0-2.3-1.03-2.3-2.3v-24.43c0-1.27,1.03-2.3,2.3-2.3h43.93c1.27,0,2.3,1.03,2.3,2.3
				v24.43c0,1.27-1.03,2.3-2.3,2.3H140.97z"/>
			<path class="st0" d="M184.9,326.83v24.43h-43.93v-24.43H184.9 M184.9,322.23h-43.93c-2.54,0-4.6,2.06-4.6,4.6v24.43
				c0,2.54,2.06,4.6,4.6,4.6h43.93c2.54,0,4.6-2.06,4.6-4.6v-24.43C189.51,324.29,187.45,322.23,184.9,322.23L184.9,322.23z"/>
		</g>
		<g>
			<path class="st3" d="M241,353.46c-1.27,0-2.3-1.03-2.3-2.3v-94.92c0-1.27,1.03-2.3,2.3-2.3h73.47c1.27,0,2.3,1.03,2.3,2.3v94.92
				c0,1.27-1.03,2.3-2.3,2.3H241z"/>
			<path class="st0" d="M314.47,256.24v94.92H241v-94.92H314.47 M314.47,251.64H241c-2.54,0-4.6,2.06-4.6,4.6v94.92
				c0,2.54,2.06,4.6,4.6,4.6h73.47c2.54,0,4.6-2.06,4.6-4.6v-94.92C319.07,253.7,317.01,251.64,314.47,251.64L314.47,251.64z"/>
		</g>
		<g>
			<path class="st3" d="M212.2,353.57c-1.27,0-2.3-1.03-2.3-2.3v-42.69c0-1.27,1.03-2.3,2.3-2.3h67.36c1.27,0,2.3,1.03,2.3,2.3
				v42.69c0,1.27-1.03,2.3-2.3,2.3H212.2z"/>
			<path class="st0" d="M279.56,308.58v42.69H212.2v-42.69H279.56 M279.56,303.98H212.2c-2.54,0-4.6,2.06-4.6,4.6v42.69
				c0,2.54,2.06,4.6,4.6,4.6h67.36c2.54,0,4.6-2.06,4.6-4.6v-42.69C284.16,306.04,282.1,303.98,279.56,303.98L279.56,303.98z"/>
		</g>
		<g>
			<path class="st3" d="M295.54,353.46c-1.27,0-2.3-1.03-2.3-2.3v-60.15c0-1.27,1.03-2.3,2.3-2.3h75.7c1.27,0,2.3,1.03,2.3,2.3
				v60.15c0,1.27-1.03,2.3-2.3,2.3H295.54z"/>
			<path class="st0" d="M371.25,291.01v60.15h-75.7v-60.15H371.25 M371.25,286.41h-75.7c-2.54,0-4.6,2.06-4.6,4.6v60.15
				c0,2.54,2.06,4.6,4.6,4.6h75.7c2.54,0,4.6-2.06,4.6-4.6v-60.15C375.85,288.47,373.79,286.41,371.25,286.41L371.25,286.41z"/>
		</g>
		<g>
			<path class="st3" d="M417.07,353.57c-1.27,0-2.3-1.03-2.3-2.3v-93.16c0-1.27,1.03-2.3,2.3-2.3h53.4c1.27,0,2.3,1.03,2.3,2.3
				v93.16c0,1.27-1.03,2.3-2.3,2.3H417.07z"/>
			<path class="st0" d="M470.47,258.11v93.16h-53.4v-93.16H470.47 M470.47,253.51h-53.4c-2.54,0-4.6,2.06-4.6,4.6v93.16
				c0,2.54,2.06,4.6,4.6,4.6h53.4c2.54,0,4.6-2.06,4.6-4.6v-93.16C475.07,255.57,473.01,253.51,470.47,253.51L470.47,253.51z"/>
		</g>
		<g>
			<path class="st3" d="M465.77,353.57c-1.27,0-2.3-1.03-2.3-2.3V303.7c0-1.27,1.03-2.3,2.3-2.3h48.41c1.27,0,2.3,1.03,2.3,2.3
				v47.57c0,1.27-1.03,2.3-2.3,2.3H465.77z"/>
			<path class="st0" d="M514.19,303.7v47.57h-48.41V303.7H514.19 M514.19,299.1h-48.41c-2.54,0-4.6,2.06-4.6,4.6v47.57
				c0,2.54,2.06,4.6,4.6,4.6h48.41c2.54,0,4.6-2.06,4.6-4.6V303.7C518.79,301.16,516.73,299.1,514.19,299.1L514.19,299.1z"/>
		</g>
		<g>
			<path class="st3" d="M389.1,353.57c-1.27,0-2.3-1.03-2.3-2.3v-64.65c0-1.27,1.03-2.3,2.3-2.3h45.28c1.27,0,2.3,1.03,2.3,2.3
				v64.65c0,1.27-1.03,2.3-2.3,2.3H389.1z"/>
			<path class="st0" d="M434.39,286.61v64.65H389.1v-64.65H434.39 M434.39,282.01H389.1c-2.54,0-4.6,2.06-4.6,4.6v64.65
				c0,2.54,2.06,4.6,4.6,4.6h45.28c2.54,0,4.6-2.06,4.6-4.6v-64.65C438.99,284.07,436.93,282.01,434.39,282.01L434.39,282.01z"/>
		</g>
		<line class="st4" x1="542.57" y1="351.27" x2="46.62" y2="351.27"/>
	</g>
	<path class="st1" d="M42.85,351.27c24.72,118.04,129.4,206.7,254.79,206.7c125.4,0,230.07-88.66,254.79-206.7H42.85z"/>
	<g>
		<g>
			<defs>
				<rect id="SVGID_1_" x="195.92" y="81.28" width="203.35" height="285.5"/>
			</defs>
			<clipPath id="SVGID_00000147914581933698980310000005119522609272210099_">
				<use xlink:href="#SVGID_1_"  style="overflow:visible;"/>
			</clipPath>
			<g style="clip-path:url(#SVGID_00000147914581933698980310000005119522609272210099_);">
				<defs>
					<rect id="SVGID_00000037668732736949811020000012193485979394519203_" x="195.92" y="81.28" width="203.35" height="285.5"/>
				</defs>
				<clipPath id="SVGID_00000040534382711233368270000006028490148792088227_">
					<use xlink:href="#SVGID_00000037668732736949811020000012193485979394519203_"  style="overflow:visible;"/>
				</clipPath>
				
					<path style="clip-path:url(#SVGID_00000040534382711233368270000006028490148792088227_);fill-rule:evenodd;clip-rule:evenodd;" d="
					M362.38,84.64c-0.09,3.99-3.42,6.05-5.85,8.38c-1.82,1.75-3.28,3.75-4.99,5.38c2.29,0.62,3.65-1.29,5.34-2.21
					c2.81-1.55,6.11-2.5,8.78-4.11c1.06-0.64,1.66-2.02,3.1-2.06c1.21,0.84,1.23,2.77,2.58,3.48c0,1.05,0.53,1.63,1.21,2.06
					c0.38,1.49,1.08,3.06,1.89,4.43c0.44,0.75,1.52,1.3,1.55,2.06c0.02,0.68-1.89,2.75-2.58,3.32c-2.86,2.38-7.34,3.58-11.02,5.54
					c-1.46,0.78-3.01,1.69-4.65,2.21c-2.05,0.66-4.65,0.92-6.89,1.58c-4.02,1.19-6.52,2.72-12.05,2.06
					c-1.54-0.18-3.37-0.56-4.65-0.95c-3.07-0.94-4.76-3.53-8.26-4.27c-1.96-0.42-4.27-0.06-6.89-0.32
					c-4.27-0.42-9.59-0.74-13.43-0.32c-4.69,0.52-11.12,3.39-14.8,5.54c-2.22,1.3-4.5,2.23-6.54,3.48
					c-4.13,2.55-9.91,4.95-8.43,12.02c2.79-0.08,5.54-0.46,7.75,0.32c3.85,1.35,6.34,7.07,4.82,11.71c-1.3,3.96-6.99,4.86-9.47,7.75
					c0.5,1.23,2.31,1.93,2.75,3.48c1.22,4.28-3.82,6.53-4.3,10.12c0.5,1.16,1.69,1.8,2.07,2.85c1.77,4.89-2.37,9.63-7.92,9.33
					c2.82,4.59,5.73,9.61,15.15,7.91c1.53-0.28,3.13-0.95,5.34-1.11c6.94-0.49,14.02,0.16,18.76,2.53c3.1,1.55,5.68,3.49,9.98,4.27
					c3.48,0.63,7.3,0.49,10.67,1.27c5.62,1.29,10.47,3.59,11.02,9.97c0.27,3.18-0.16,6.83,0,10.28c0.15,3.19,0.84,6.77,1.55,9.02
					c0.37,1.17,1.27,2.7,2.07,3.32c0.82,0.64,2,0.67,3.1,1.26c3.33,1.82,8.37,7.31,9.12,11.71c0.38,2.24,0.07,6.2-0.69,8.07
					c-0.84,2.09-5.14,6.14-8.61,3.01c-0.58,4.03-6.69,7.1-10.33,3.64c-4.96,3.98-14.26-0.52-11.88-7.91
					c-4.74-0.72-5.63-5.82-2.93-9.81c0.59-0.87,1.74-1.76,2.58-2.53c0.9-0.82,2.35-1.76,2.58-2.53c0.33-1.09,0.12-2.66,0-3.64
					c-0.61-5.02-4.43-8.97-3.44-15.5c-6.17,0.51-9.22-1.86-14.63-2.06c-0.05,2.37,0.01,4.06,0,6.64
					c-0.08,17.43,7.52,28.97,11.53,42.08c0.99,3.22,3.69,6.74,4.13,10.28c0.35,2.76-0.33,5.73-1.03,8.7
					c2.14,3.62,4.24,7.28,4.82,12.34c3.61-6.62,9.35-11.04,19.62-11.71c0.88-0.06,1.96,0.14,2.93,0c2.79-0.42,5.62-3.85,6.54-6.8
					c0.81-2.59,0.54-4.89,1.72-6.64c0.87-1.29,2.66-2.85,4.48-3.32c5.3-1.36,10.87,1.75,12.56,5.22c0.82,1.67,1.06,3.51,1.72,5.06
					c1.08,2.52,2.49,4.77,3.79,6.96c1.68,2.83,4.32,5.07,6.2,8.23c1.65,2.78,1.95,6.05,3.1,9.33c1.04,2.96,5.46,7.76,2.07,11.39
					c-1.03,1.1-3.06,1.73-5.51,1.27c-0.99,1.45-4.35,2.28-5.85,0.63c-1.83,2.24-5.7,1.18-6.71-1.11c-2.56,0.46-4.14-1.08-4.13-3.48
					c-7.48,0.79-1.43-13-6.88-15.34c-0.16-0.07-1.72-0.43-2.41-0.32c-1.37,0.22-2.16,2.01-3.1,3.01c-2.74,2.92-6.99,5.67-9.81,9.33
					c-2.82,3.67-5.55,7.51-9.47,9.49c-2.48,2.11-4.13,4.84-8.09,5.38c-4.27,0.58-9.46-0.23-12.57-1.74
					c-4.33-2.11-8.4-5.88-13.08-9.17c-1.14-0.8-2.36-1.43-3.44-2.21c-1.07-0.77-1.9-1.73-2.93-2.53c-3.31-2.59-6.47-4.48-8.61-7.91
					c-6.67,0.23-12.81-0.04-15.49-3.48c-1.65,4.29,1.87,5.99,3.79,8.54c1.3,1.74,2.6,3.69,3.44,5.22c1.45,2.65,3.29,6.71,2.58,11.23
					c-0.39,2.47-2.03,6.47-1.55,9.65c0.17,1.15,1.34,2.56,2.41,3.32c3.39,2.41,9.82,4.33,8.61,10.28c-0.23,1.15-1.84,2.94-2.93,4.43
					c-1.26,1.73-2.05,3.5-2.75,4.59c-0.4,0.61-1.16,1.09-1.55,1.74c-0.28,0.46-0.23,1.09-0.52,1.58c-0.87,1.48-2.51,3-3.96,4.43
					c-2.62,2.58-3.64,4.22-7.23,5.22c0.89,4.98-5.75,7.55-8.61,3.96c-1.17,1.33-4.46,1.4-6.02,0.32c-1.48,1.67-6.27,1.41-7.06-0.63
					c-4.32,3.08-12.47,0.86-11.19-5.06c0.35-1.63,2.29-2.47,4.3-3.95c3.35-2.46,6.18-4.65,9.64-6.96c1.71-1.14,3.56-1.99,5.16-3.01
					c1.3-0.83,2.27-1.96,3.61-2.85c2.39-1.57,4.96-2.52,4.48-6.64c-0.43-3.65-3.78-8.2-5.85-11.39c-2.41-3.7-4.95-6.98-7.06-10.28
					c-2.25-3.52-4.25-7.45-6.88-10.44c-2.8-3.18-5.52-6.49-7.23-9.96c-1.35-2.74-2.48-5.84-2.07-9.81
					c1.08-10.39,14.03-13.06,24.44-15.5c-2.94-7.48-4.55-16.17-10.5-20.88c-4.49,2.71-8.5,6.44-13.25,9.65
					c-4.53,3.06-9.36,6.7-15.84,7.28c-5.78,0.51-9.53-1.87-12.22-4.75c-4.11-4.39-1.73-12.65,0.34-18.03
					c1.27-3.3,2.71-6.5,4.13-9.96c3-7.29,5.2-14.86,7.75-20.41c3.07-6.68,9.79-9.79,16.01-13.6c-6.55-0.28-12.86,4.37-17.9,0.47
					c-2.52-1.94-4.36-5.67-3.61-10.12c-7.19,0.86-14.77-1.98-16.87-7.12c-2.27-5.54,1.6-11.23,5.68-13.29
					c-2.13-3.59-3.14-9.81-1.89-15.03c-1.14-0.25-1.93,2.02-3.44,1.42c-1.47-1.07-0.29-2.73-0.17-4.11
					c0.4-4.59-0.47-10.51-2.07-13.6c-1.53-2.97-4.44-3.29-4.3-7.75c0.13-4.35,3.77-7.81,6.37-9.97c3.13-2.59,8.33-4.7,12.39-6.64
					c3.69-1.77,8.42-3.9,12.05-5.54c0.18-2.02,1.89-3.43,4.65-3.01c1.38,0.21,2.18,1.56,3.62,1.58c0.98,0.02,2.23-1,3.27-1.27
					c3.29-0.84,7.64,0.26,11.02-0.16c1.06-0.13,1.86-1.05,2.93-1.27c1.67-0.33,3.97-0.32,5.85-0.47c3.24-0.26,6.79-0.14,8.95,0.63
					c1.8,0.65,6.27,3.56,7.57,4.9c2.68,2.77,5.65,9.78,2.58,14.24c3.77-2.47,7.76-4.34,12.05-6.33c4.07-1.88,8.68-4.41,14.11-4.75
					c5.49-0.34,11.59,0.58,17.21-0.16c1.28-0.17,2.56-0.93,3.61-1.74c2.43-1.86,4.42-4.42,7.06-6.49c2.41-1.89,5.27-3.8,8.78-4.75
					c1.75-0.47,3.78-0.28,5.51-0.79c5.02-1.48,9.92-5.39,11.36-10.12C360.28,83.76,362.29,83.86,362.38,84.64 M278.38,112
					c-0.34-1.93-2.32-3.06-2.58-5.06c-2.45-1.5-4.78-4.08-7.75-4.9c-3.12-0.87-6.03,0.06-9.12,0.32c-1.18,0.1-2.38-0.07-3.27,0.16
					c-1.12,0.29-1.95,1.16-3.1,1.27c-2.47,0.23-5.68-0.92-8.09-0.16c5.48,2.36,9.69,6.64,12.22,11.55c0.89,1.72,0.89,3.82,2.41,5.38
					c5.67-0.42,10.16,1.21,14.46,2.53C276.11,120.84,279.23,116.87,278.38,112 M250.67,112.32c-1.65-2.18-3.99-5.13-6.71-6.01
					c-0.8-0.26-3-0.56-4.82-0.79c-5.37-0.68-8.67,0.35-11.71,2.06c-1.06,0.6-2.23,0.76-3.44,1.27c-1.2,0.5-2.5,1.41-3.96,2.06
					c-3.58,1.58-6.97,3.26-9.98,5.22c-2.37,1.54-5.29,3.27-6.71,5.22c-1.25,1.71-2.51,5.22-1.55,7.75c0.34,0.9,1.5,1.52,2.24,2.37
					c0.8,0.92,1.19,1.94,2.24,2.53c2.51-0.66,4.32-2.55,6.54-3.96c2.11-1.33,4.63-2.49,7.06-3.64c4.69-2.22,10.52-4.3,16.18-5.22
					c6.16-1,12.95-0.72,19.11-0.79C254.04,117.48,252.59,114.85,250.67,112.32 M272.53,143.32c-1.48-0.34-0.38-2.13-0.69-3.8
					c-0.33-1.77-4.01-5.4-5.85-5.69c-3.01-0.48-8.37-0.48-11.36-0.47c-8.86,0.01-16.99,0.73-23.93,3.32
					c-5.5,2.05-10.89,4.44-14.8,7.75c-1.29,1.09-3.78,3.01-4.13,4.11c-1.42,4.46-1.31,10.57,1.03,15.19
					c1.58-0.19,2.6-0.88,4.13-1.11c-1.44-2.05-3.31-6.46-2.58-10.76c0.22-1.33,1.49-4.12,3.1-4.43c1.37-0.26,3.11,0.58,3.96,1.58
					c1.58,1.86,3.06,5.78,2.93,8.7c-0.08,1.77-0.79,2.96-1.03,4.59c0.87,0.62,2,0.5,1.89,1.74c-0.18,2.01-6.63,0.56-8.43,0.95
					c-4.34,0.94-12.17,6.24-9.12,13.13c1.27,2.88,6.34,5.31,10.16,5.38c5.09,0.1,8.46-2.28,11.36-3.95
					c1.97-1.14,3.84-2.26,5.51-3.64c1.06-0.87,2.83-3.87,4.65-3.32c2.12,0.64-0.28,2.58-0.86,3.16c-3.67,3.7-8.98,6.69-13.77,9.33
					c-0.57,4.25,0.82,9.21,4.82,9.97c4.07,0.77,6.72-1.48,10.16-1.74c5.32-0.4,12.06,1.03,17.21,0.63
					c6.71-0.51,7.32-5.97,8.95-11.07c0.6-1.87,0.94-3.83,1.38-5.7c-2.97-0.48-5.24-1.62-7.23-3c-2.79,2.97-5.13,5.3-8.43,7.75
					c-2.59,1.92-5.36,3.73-8.61,4.9c-1.55,0.56-11.88,3.14-11.53-0.32c0.19-1.95,3.85-1.03,6.2-1.27c3.48-0.35,7.6-2.13,10.33-3.95
					c5.47-3.64,9.54-8.14,13.6-12.97c2.68-3.19,4.75-6.28,5.68-10.44c-1.04-1.42-3.53-1.33-3.1-3.16c0.66-2.78,4.51,1.3,6.2,1.58
					c2.55,0.42,4.46-0.69,4.47,1.11c0.01,1.72-2.96,1.48-4.82,1.42c-0.42,0.88-0.49,2.08-0.86,3.01c2.5,0.24,4.61,0.82,6.2,1.9
					c-0.07-3.06,4.51-4.76,3.96-7.59c-0.14-0.74-2.11-2.38-3.1-2.85c-1.52-0.72-3.91-0.46-3.79-2.06c0.16-2.04,2.91-0.61,3.61-0.47
					c1.19-0.54,1.81-1.63,3.1-2.53c2.21-1.54,6.2-2.67,6.88-5.22c0.91-3.4-0.77-7.34-3.1-8.38c-2.32-1.04-5.95-0.31-8.09,1.11
					C274.05,137.17,275.31,143.96,272.53,143.32 M218.65,150.44c-2.45-0.26-2.25,4.43-1.21,5.85c1-0.97,3.12-0.9,4.13,0
					C221.34,153.67,220.28,151.79,218.65,150.44 M277.17,170.37c-0.11-3.46-4.98-6.41-9.47-6.17c-0.73,0.75-1.55,1.42-1.72,2.69
					c1.43,1.36,7.95,0.78,7.4,3.48c-0.36,1.76-2.17,0.47-3.27,0.16c-2.07-0.58-4.79-0.85-5.85-1.74c-0.97,1.06-1.93,2.12-2.75,3.32
					C264.71,175.65,277.39,177.29,277.17,170.37 M269.26,180.02c-3.33,10.58-3.14,17.28-16.35,16.29c-1.43-0.11-3.35-0.61-4.99-0.32
					c-0.68,0.12-2.2,1.23-3.44,1.9c-1.34,0.72-2.51,1.49-3.44,2.06c-1.99,1.21-5.17,2.67-6.71,4.11c-4.42,4.13-5.56,9.63-8.09,15.82
					c-1.27,3.11-2.35,6.42-3.61,9.49c-1.31,3.17-2.53,6.21-3.79,9.33c-1.81,4.48-5.08,12.29-1.72,16.92
					c1.82,2.51,5.11,4.71,9.81,4.27c4.41-0.42,9.38-3.13,12.39-5.22c1.26-0.88,2.62-1.46,3.61-2.21c2.29-1.76,4.25-3.53,6.54-5.06
					c1.2-0.8,2.27-1.62,3.44-2.37c1.28-0.81,2.15-1.91,3.27-2.69c1.19-0.83,2.18-1.3,3.79-2.53c1.28-0.98,2.7-2.51,3.79-2.53
					c0.77-0.02,1.9,1.06,2.75,1.27c6.4,1.57,13.72-1.51,16.52-4.59c1.5-1.65,3.13-5.1-0.17-5.85c-2.08-0.47-5.68,1.24-5.85-0.79
					c-0.13-1.47,2.4-2.2,3.79-3c1.39-0.81,3.24-2.22,2.75-4.11c-0.86-3.36-6.89,0.04-7.92-0.47c-2.02-1.02,0.78-2.77,1.38-3.64
					c1.89-2.76,2.44-8.8-2.93-8.07c-2.96,0.41-6.3,3.63-7.23,6.33c-0.51,1.48-0.4,3.15-1.72,3.16c-2.61,0.03-0.14-5.5-2.75-6.01
					c-3.98,0.75-4.81,3.7-4.65,7.59c0.09,2.2,1.81,5.29,1.38,6.96c-0.31,1.18-3.12,2.41-4.82,3.32c-2.1,1.13-3.82,2.13-5.34,3
					c-5,2.89-10,5.89-13.08,9.17c-0.55,0.59-2.32,4.19-3.96,3.8c-1.21-0.29-0.53-1.87-1.21-2.85c-1.58,0.24-3.66,1.25-3.79-0.47
					c-0.15-2.01,3.8-1.42,6.2-1.74c2.77-4.65,4.43-11.11,6.2-16.77c0.65-2.07,1.46-4.12,1.72-6.01c0.2-1.49-0.33-3.28,1.72-3.48
					c1.89,1.59,0.75,4.79,1.38,7.12c0.4,1.49,1.62,3.08,2.41,4.43c0.89,1.51,1.66,3.27,3.1,3.64c2.27-1.34,4.93-2.33,6.71-4.11
					c-2.23-4.99-1.89-13,2.75-15.34c2-1.01,5.2-0.75,6.54,1.27c2.58-2.57,6.56-7.01,12.22-5.22c3.48,1.1,3.73,6.99,2.07,10.28
					c7.25-0.42,7.53,7.08,3.27,9.81c2.83,0.67,5.19,2.79,4.3,5.85c-0.79,2.72-4.46,6.24-7.92,7.91c-4.82,2.32-11.12,2.04-16.01,0.47
					c-1.41,1.39-3.25,2.39-4.65,3.8c1.92,2.99,4.79,5.61,6.2,9.17c0.48,1.22,0.56,2.54,1.03,3.8c0.29,0.77,0.9,1.45,1.21,2.21
					c0.89,2.21,1.17,4.7,2.58,6.64c4.81-0.22,10.43-1.95,16.35-2.69c6.15-0.77,14.32-0.98,16.87-4.75c0.76-1.13,0.74-2.89,2.07-2.85
					c1.99,0.07,1.1,3,1.21,3.8c1.52-0.43,5.12-1.79,5.16,0.32c0.03,1.63-5.39,2.23-7.23,2.69c-2.88,0.72-5.8,1.74-7.92,2.06
					c-9.34,1.39-16.61,2.78-26.85,3.95c-2.16,0.25-4.97,0.93-7.57,1.42c-3.76,0.71-8.62,2.49-11.36,4.11
					c-5.71,3.38-6.88,10.36-3.79,16.77c2.34,4.84,6.24,8.05,9.29,12.65c2.05,3.09,4.11,6.37,6.2,9.65c2.03,3.19,4.56,5.94,6.54,9.33
					c1.93,3.3,4.63,7.07,5.16,10.6c0.85,5.59-2.51,7.39-5.51,9.65c-4.83,3.64-10.85,6.44-14.98,10.28c0.31,0.87,2.07,0.42,2.24,1.42
					c-0.63,1.64-3.12,3.87-5.34,3.64c-1.28-0.14-1.31-1.24-2.41-1.27c-2.6,2.64,0.72,5.27,4.3,4.59c0.77-0.15,2.16-1.26,2.75-2.06
					c0.85-1.14,0.75-3.07,2.41-2.85c2.57,0.35-0.58,3.17,0.52,4.75c4.48,1.86,2-4.4,4.65-4.43c2.53-0.03,0.56,4.71,2.93,4.75
					c1.88,0.03,0.81-3.81,2.75-3.96c2.39-0.17,1.51,4.47,4.13,4.43c3-0.04,1.56-4.18,2.24-5.54c3.75-0.12,6.36-2.39,8.26-4.59
					c3.2-3.69,5.19-7.72,7.92-11.71c1.42-2.08,3.77-4.13,2.58-6.8c-1.15-2.58-7.06-4.12-9.29-6.8c-3.47-4.17,0.69-11.29,0-16.93
					c-0.48-3.95-2.69-7.69-4.65-10.28c-1.57-2.07-4.24-3.9-5.16-6.33c-1.17-3.05,1.34-5.79,0.86-8.7c-0.15-0.93-2.24-2.59-1.38-3.8
					c1.43-1.99,3.68,2.02,3.96,3.16c0.2,0.8-0.01,1.6,0.17,2.06c1.01,2.57,4.63,3.59,7.57,3.8c6.05,0.42,12.41,0.73,16.87-0.16
					c2.27-0.45,4.63-1.71,6.71-2.85c3.92-2.13,6.93-3.61,9.81-6.33c1.21-1.14,2.65-2.18,3.44-3.32c4.42-6.38-0.88-13.75-2.41-18.67
					c-3.74-11.97-10.34-23.19-11.36-37.17c-0.3-4.06,0.1-7.77-0.52-12.18c-0.64-0.36-2.06-0.01-2.75-0.32
					c-0.77,2.27,2.02,2.46,1.72,3.95c-0.4,2-3.74,0.27-4.13-1.26c1.44-3.81-4.71-3.5-3.96-6.49c0.62-2.48,3.31,0.37,4.3,0.79
					c3,1.28,7.48,0.63,11.7,1.42c2.91,0.55,5.34,1.45,7.4,1.58c2.82,0.19,2.92-0.79,4.82-0.95c1.55,2.07,0.5,4.95,0.69,7.28
					c0.45,5.64,4.71,9.33,3.61,15.98c-1.2,2.22-4.37,3.49-5.85,5.69c-0.98,1.46-1.62,4.36,0,5.38c3.64,2.29,3.93-3.9,7.06-1.9
					c-0.23,2.89-2.63,2.16-3.62,4.43c-0.69,1.61-0.2,4.19,0.69,5.54c0.9,1.37,3.95,2.83,6.2,1.58c0.83-0.46,0.87-2.21,2.24-2.21
					c1.45,0,2.15,2.52,3.96,2.69c3.99,0.38,4.05-3.79,4.99-6.33c2.54-0.02,2.83,2.4,5.16,2.21c4.03-0.33,3.8-8.98,2.58-11.71
					c-1.22-2.75-4.69-6.38-7.06-7.75c-1.03-0.6-2.66-0.86-3.44-1.42c-2.16-1.55-2.8-4.24-3.44-6.96c-0.28-1.18-0.7-2.37-0.86-3.48
					c-0.68-4.74,0.36-9.98-0.34-14.71c-0.7-4.65-5.35-6.24-9.81-7.12c-2.71-0.54-5.55-0.64-8.95-0.95
					c-7.48-0.67-11.71-6.43-19.28-6.96c-3.43-0.24-8.04-0.43-11.7,0.16c-3.8,0.61-7.5,1.48-11.02,0.95
					c-4.55-0.69-6.94-5.39-9.64-8.23C269.17,179.56,269.32,179.82,269.26,180.02 M237.58,236.81c2.74-2.39,6.31-4.01,9.47-6.01
					c-1.72-2.64-3.48-5.24-4.99-8.07C240.57,227.32,239.03,232.71,237.58,236.81 M394.05,304.04c0.48-3.01-1.25-3.75-2.24-5.54
					c-1.32-2.38-1.72-5.16-2.58-7.75c-0.79-2.37-2.04-4.77-3.61-6.8c-3.35-4.32-6.52-8.43-8.26-12.81
					c-0.62-1.55-0.46-2.45-1.38-4.43c-1.75-3.77-9.83-6.92-12.74-1.9c-1.02,1.76-0.7,3.79-1.38,6.01c-1,3.3-4.4,7.74-8.26,8.38
					c-1.31,0.22-2.48-0.12-4.3,0c-5.14,0.34-9.75,2.41-13.08,5.38c-1.48,1.32-5.18,6.62-4.65,8.86c0.31,1.29,3.55,1.69,3.27,3.32
					c-0.31,1.85-2.76,0.22-3.27,0.47c-0.57,0.92,0.28,3.29-1.55,3.48c-2.53,0.27-1.43-5.12-1.55-7.43
					c-0.28-5.68-2.45-11.44-4.47-14.55c-3.81,3.87-7.73,6.63-12.91,9.49c-4.18,2.31-8.52,4.01-15.15,3.64
					c1.23,2.53,4.42,4.11,6.89,6.01c1.07,0.83,1.73,1.95,2.75,2.69c1.52,1.09,3.34,2.01,4.99,3.16c5.69,3.99,11.26,10.89,22.03,9.33
					c3.1-0.45,4.69-3.03,6.71-4.59c1.53-1.18,3.32-2.01,4.65-3.48c2.17-2.4,3.81-5.37,6.37-7.91c2.62-2.6,6.03-5.44,8.78-8.38
					c1.13-1.21,2.26-2.44,3.1-2.69c1.66-0.48,4.1-0.17,4.99,0.16c1.06,0.39,2.39,1.87,2.93,3.32c0.53,1.46,1.07,3.46,1.21,4.59
					c0.3,2.59-0.95,6.04,1.38,7.12c0.84-0.69,0.56-2.12,1.89-2.06c2.81,0.14-0.69,4.64,1.21,5.85c1.56,0.08,1.45-1.51,2.93-1.11
					c1.65,0.45-0.12,3.36,2.24,3.48c1.17-0.87,0.11-2.79,0.17-4.11c3.41-2.42,2.5,3.82,5.68,3.64c0.95-1.98-2.83-4.46,0.34-5.22
					C388.83,303.04,391.76,307.54,394.05,304.04"/>
				
					<path style="clip-path:url(#SVGID_00000040534382711233368270000006028490148792088227_);fill-rule:evenodd;clip-rule:evenodd;fill:#FFFFFF;" d="
					M273.56,123.08c-4.3-1.32-8.78-2.96-14.46-2.53c-1.52-1.56-1.52-3.66-2.41-5.38c-2.54-4.91-6.74-9.18-12.22-11.55
					c2.41-0.76,5.62,0.39,8.09,0.16c1.15-0.11,1.98-0.98,3.1-1.27c0.89-0.23,2.09-0.06,3.27-0.16c3.1-0.26,6-1.19,9.12-0.32
					c2.96,0.83,5.3,3.4,7.75,4.9c0.26,2,2.24,3.13,2.58,5.06C279.23,116.87,276.11,120.84,273.56,123.08"/>
				
					<path style="clip-path:url(#SVGID_00000040534382711233368270000006028490148792088227_);fill-rule:evenodd;clip-rule:evenodd;fill:#FFFFFF;" d="
					M255.14,120.39c-6.16,0.07-12.95-0.21-19.11,0.79c-5.66,0.92-11.49,3-16.18,5.22c-2.43,1.15-4.95,2.31-7.06,3.64
					c-2.22,1.4-4.03,3.29-6.54,3.96c-1.05-0.59-1.44-1.61-2.24-2.53c-0.74-0.85-1.9-1.47-2.24-2.37c-0.96-2.53,0.3-6.04,1.55-7.75
					c1.42-1.95,4.35-3.68,6.71-5.22c3.01-1.96,6.41-3.64,9.98-5.22c1.46-0.64,2.76-1.56,3.96-2.06c1.21-0.5,2.38-0.67,3.44-1.27
					c3.03-1.71,6.33-2.73,11.71-2.06c1.82,0.23,4.02,0.53,4.82,0.79c2.72,0.88,5.06,3.83,6.71,6.01
					C252.59,114.85,254.04,117.48,255.14,120.39"/>
				
					<path style="clip-path:url(#SVGID_00000040534382711233368270000006028490148792088227_);fill-rule:evenodd;clip-rule:evenodd;fill:#FF9400;" d="
					M274.76,135.73c2.14-1.42,5.78-2.15,8.09-1.11c2.33,1.05,4.01,4.99,3.1,8.38c-0.68,2.55-4.67,3.67-6.88,5.22
					c-1.29,0.9-1.91,1.99-3.1,2.53c-0.7-0.14-3.45-1.57-3.61,0.47c-0.13,1.6,2.27,1.34,3.79,2.06c0.99,0.47,2.96,2.11,3.1,2.85
					c0.55,2.83-4.03,4.53-3.96,7.59c-1.58-1.08-3.7-1.66-6.2-1.9c0.37-0.93,0.44-2.13,0.86-3.01c1.86,0.05,4.83,0.29,4.82-1.42
					c-0.01-1.8-1.93-0.69-4.47-1.11c-1.69-0.28-5.54-4.36-6.2-1.58c-0.43,1.84,2.05,1.74,3.1,3.16c-0.93,4.16-3,7.25-5.68,10.44
					c-4.06,4.83-8.13,9.33-13.6,12.97c-2.73,1.82-6.85,3.61-10.33,3.95c-2.35,0.23-6-0.69-6.2,1.27c-0.34,3.46,9.98,0.88,11.53,0.32
					c3.25-1.17,6.01-2.98,8.61-4.9c3.3-2.45,5.64-4.78,8.43-7.75c1.99,1.39,4.26,2.52,7.23,3c-0.44,1.87-0.78,3.82-1.38,5.7
					c-1.64,5.1-2.24,10.56-8.95,11.07c-5.15,0.39-11.9-1.03-17.21-0.63c-3.43,0.26-6.08,2.51-10.16,1.74
					c-4-0.76-5.39-5.72-4.82-9.97c4.79-2.64,10.1-5.63,13.77-9.33c0.58-0.58,2.98-2.53,0.86-3.16c-1.82-0.55-3.59,2.45-4.65,3.32
					c-1.67,1.38-3.54,2.5-5.51,3.64c-2.9,1.68-6.27,4.05-11.36,3.95c-3.82-0.07-8.88-2.5-10.16-5.38
					c-3.05-6.89,4.78-12.19,9.12-13.13c1.81-0.39,8.25,1.06,8.43-0.95c0.11-1.24-1.02-1.12-1.89-1.74c0.24-1.62,0.95-2.81,1.03-4.59
					c0.14-2.92-1.34-6.84-2.93-8.7c-0.85-1-2.59-1.84-3.96-1.58c-1.61,0.31-2.87,3.1-3.1,4.43c-0.72,4.3,1.14,8.7,2.58,10.76
					c-1.53,0.23-2.55,0.92-4.13,1.11c-2.34-4.61-2.45-10.73-1.03-15.19c0.35-1.1,2.84-3.02,4.13-4.11c3.92-3.31,9.3-5.7,14.8-7.75
					c6.94-2.59,15.07-3.32,23.93-3.32c2.99,0,8.35-0.01,11.36,0.47c1.84,0.29,5.53,3.93,5.85,5.69c0.31,1.66-0.79,3.46,0.69,3.8
					C275.31,143.96,274.05,137.17,274.76,135.73 M275.97,138.1c-2.22,1.99,0.39,4.55,1.72,5.69c0.29,5.23,5.12,0.24,2.24-2.21
					c-0.61-0.44-1.72-0.42-1.89-1.27c0.67-0.38,1.38-0.73,2.07-1.11c0.59,1.03,1.9,2.01,3.44,1.27c0.12-2.12-1.64-2.5-2.07-4.11
					C278.94,135.7,278.48,138.22,275.97,138.1 M226.4,149.65c0.32,4.06,4,13.27,9.29,12.02c3.11-0.73,3.5-8.52,2.24-12.34
					c-0.88-2.65-3.62-6.08-5.51-6.64c-0.84-0.25-2.71-0.24-2.93,0C227.08,143.44,226.14,146.35,226.4,149.65"/>
				
					<path style="clip-path:url(#SVGID_00000040534382711233368270000006028490148792088227_);fill-rule:evenodd;clip-rule:evenodd;" d="
					M281.48,136.36c0.43,1.61,2.19,2,2.07,4.11c-1.54,0.75-2.86-0.24-3.44-1.27c-0.68,0.38-1.39,0.72-2.07,1.11
					c0.17,0.85,1.28,0.83,1.89,1.27c2.89,2.45-1.95,7.44-2.24,2.21c-1.33-1.15-3.95-3.71-1.72-5.69
					C278.48,138.22,278.94,135.7,281.48,136.36"/>
				
					<path style="clip-path:url(#SVGID_00000040534382711233368270000006028490148792088227_);fill-rule:evenodd;clip-rule:evenodd;" d="
					M229.49,142.69c0.21-0.24,2.09-0.25,2.93,0c1.89,0.56,4.63,3.99,5.51,6.64c1.26,3.82,0.88,11.6-2.24,12.34
					c-5.29,1.25-8.98-7.96-9.29-12.02C226.14,146.35,227.08,143.44,229.49,142.69 M230.87,145.22c-3.6-0.15-1.35,6.98-0.69,8.86
					c0.96-1.56,2.76-3.27,5.51-2.21C235.15,149.86,233.15,145.31,230.87,145.22"/>
				
					<path style="clip-path:url(#SVGID_00000040534382711233368270000006028490148792088227_);fill-rule:evenodd;clip-rule:evenodd;fill:#FFFFFF;" d="
					M235.69,151.87c-2.75-1.05-4.55,0.66-5.51,2.21c-0.66-1.88-2.91-9,0.69-8.86C233.15,145.31,235.15,149.86,235.69,151.87"/>
				
					<path style="clip-path:url(#SVGID_00000040534382711233368270000006028490148792088227_);fill-rule:evenodd;clip-rule:evenodd;fill:#FFFFFF;" d="
					M221.58,156.29c-1.01-0.9-3.13-0.97-4.13,0c-1.04-1.43-1.25-6.11,1.21-5.85C220.28,151.79,221.34,153.67,221.58,156.29"/>
				
					<path style="clip-path:url(#SVGID_00000040534382711233368270000006028490148792088227_);fill-rule:evenodd;clip-rule:evenodd;fill:#FF9400;" d="
					M261.51,172.11c0.82-1.2,1.79-2.26,2.75-3.32c1.07,0.89,3.78,1.16,5.85,1.74c1.1,0.31,2.91,1.6,3.27-0.16
					c0.55-2.7-5.97-2.12-7.4-3.48c0.17-1.27,0.99-1.93,1.72-2.69c4.49-0.24,9.36,2.71,9.47,6.17
					C277.39,177.29,264.71,175.65,261.51,172.11"/>
				
					<path style="clip-path:url(#SVGID_00000040534382711233368270000006028490148792088227_);fill-rule:evenodd;clip-rule:evenodd;fill:#FF9400;" d="
					M269.43,179.55c2.7,2.84,5.09,7.54,9.64,8.23c3.52,0.53,7.21-0.33,11.02-0.95c3.67-0.59,8.28-0.4,11.7-0.16
					c7.57,0.53,11.8,6.29,19.28,6.96c3.4,0.31,6.24,0.41,8.95,0.95c4.46,0.88,9.11,2.47,9.81,7.12c0.71,4.73-0.33,9.98,0.34,14.71
					c0.16,1.11,0.59,2.3,0.86,3.48c0.64,2.72,1.28,5.41,3.44,6.96c0.79,0.57,2.41,0.83,3.44,1.42c2.36,1.37,5.83,5,7.06,7.75
					c1.21,2.72,1.45,11.38-2.58,11.71c-2.34,0.19-2.62-2.24-5.16-2.21c-0.94,2.54-1,6.71-4.99,6.33c-1.81-0.17-2.51-2.69-3.96-2.69
					c-1.37,0-1.41,1.75-2.24,2.21c-2.24,1.24-5.29-0.22-6.2-1.58c-0.89-1.34-1.38-3.93-0.69-5.54c0.98-2.27,3.38-1.54,3.62-4.43
					c-3.13-2-3.42,4.19-7.06,1.9c-1.62-1.02-0.98-3.92,0-5.38c1.49-2.2,4.66-3.47,5.85-5.69c1.09-6.65-3.17-10.33-3.61-15.98
					c-0.18-2.33,0.86-5.21-0.69-7.28c-1.9,0.16-2,1.13-4.82,0.95c-2.06-0.14-4.49-1.03-7.4-1.58c-4.23-0.8-8.71-0.14-11.7-1.42
					c-1-0.42-3.68-3.27-4.3-0.79c-0.75,2.99,5.4,2.68,3.96,6.49c0.39,1.53,3.73,3.26,4.13,1.26c0.3-1.5-2.49-1.69-1.72-3.95
					c0.69,0.31,2.11-0.04,2.75,0.32c0.62,4.41,0.22,8.12,0.52,12.18c1.02,13.98,7.62,25.2,11.36,37.17
					c1.53,4.92,6.83,12.28,2.41,18.67c-0.79,1.14-2.23,2.18-3.44,3.32c-2.88,2.72-5.9,4.2-9.81,6.33c-2.08,1.13-4.44,2.39-6.71,2.85
					c-4.46,0.89-10.82,0.58-16.87,0.16c-2.94-0.2-6.57-1.23-7.57-3.8c-0.18-0.46,0.02-1.25-0.17-2.06
					c-0.28-1.14-2.53-5.16-3.96-3.16c-0.86,1.2,1.22,2.86,1.38,3.8c0.48,2.91-2.03,5.65-0.86,8.7c0.93,2.43,3.6,4.26,5.16,6.33
					c1.96,2.59,4.17,6.33,4.65,10.28c0.69,5.64-3.47,12.76,0,16.93c2.24,2.69,8.15,4.22,9.29,6.8c1.19,2.67-1.16,4.72-2.58,6.8
					c-2.73,3.99-4.72,8.02-7.92,11.71c-1.91,2.2-4.51,4.46-8.26,4.59c-0.68,1.36,0.76,5.5-2.24,5.54c-2.62,0.04-1.74-4.6-4.13-4.43
					c-1.95,0.14-0.87,3.98-2.75,3.96c-2.37-0.03-0.4-4.78-2.93-4.75c-2.65,0.03-0.17,6.29-4.65,4.43c-1.1-1.58,2.06-4.4-0.52-4.75
					c-1.66-0.22-1.56,1.7-2.41,2.85c-0.59,0.8-1.98,1.91-2.75,2.06c-3.58,0.68-6.9-1.95-4.3-4.59c1.1,0.03,1.13,1.13,2.41,1.27
					c2.21,0.23,4.71-2,5.34-3.64c-0.16-1.01-1.93-0.55-2.24-1.42c4.13-3.84,10.14-6.64,14.98-10.28c3-2.26,6.36-4.06,5.51-9.65
					c-0.54-3.53-3.24-7.29-5.16-10.6c-1.98-3.39-4.51-6.14-6.54-9.33c-2.08-3.28-4.15-6.56-6.2-9.65c-3.05-4.6-6.96-7.82-9.29-12.65
					c-3.1-6.41-1.92-13.39,3.79-16.77c2.74-1.62,7.6-3.4,11.36-4.11c2.6-0.49,5.42-1.18,7.57-1.42c10.24-1.18,17.51-2.56,26.85-3.95
					c2.12-0.31,5.04-1.34,7.92-2.06c1.84-0.46,7.26-1.05,7.23-2.69c-0.04-2.11-3.64-0.75-5.16-0.32c-0.1-0.8,0.78-3.73-1.21-3.8
					c-1.33-0.04-1.3,1.72-2.07,2.85c-2.55,3.77-10.72,3.97-16.87,4.75c-5.92,0.74-11.54,2.47-16.35,2.69
					c-1.42-1.95-1.69-4.43-2.58-6.64c-0.31-0.76-0.92-1.45-1.21-2.21c-0.47-1.25-0.55-2.58-1.03-3.8c-1.41-3.57-4.28-6.18-6.2-9.17
					c1.4-1.4,3.24-2.41,4.65-3.8c4.89,1.57,11.19,1.84,16.01-0.47c3.46-1.66,7.13-5.19,7.92-7.91c0.89-3.07-1.47-5.19-4.3-5.85
					c4.26-2.72,3.98-10.23-3.27-9.81c1.67-3.29,1.42-9.18-2.07-10.28c-5.66-1.79-9.64,2.66-12.22,5.22
					c-1.34-2.01-4.54-2.27-6.54-1.27c-4.65,2.34-4.98,10.35-2.75,15.34c-1.79,1.79-4.45,2.77-6.71,4.11
					c-1.44-0.37-2.21-2.13-3.1-3.64c-0.79-1.35-2.01-2.94-2.41-4.43c-0.63-2.33,0.52-5.52-1.38-7.12c-2.05,0.2-1.52,1.99-1.72,3.48
					c-0.26,1.89-1.08,3.95-1.72,6.01c-1.77,5.66-3.43,12.11-6.2,16.77c-2.4,0.32-6.35-0.27-6.2,1.74c0.13,1.72,2.21,0.71,3.79,0.47
					c0.68,0.98,0,2.56,1.21,2.85c1.64,0.39,3.4-3.21,3.96-3.8c3.08-3.28,8.08-6.28,13.08-9.17c1.52-0.88,3.23-1.88,5.34-3
					c1.7-0.92,4.51-2.15,4.82-3.32c0.44-1.67-1.29-4.76-1.38-6.96c-0.16-3.89,0.66-6.84,4.65-7.59c2.61,0.51,0.15,6.04,2.75,6.01
					c1.32-0.02,1.21-1.68,1.72-3.16c0.93-2.7,4.26-5.92,7.23-6.33c5.36-0.73,4.82,5.31,2.93,8.07c-0.59,0.86-3.4,2.62-1.38,3.64
					c1.03,0.52,7.06-2.89,7.92,0.47c0.48,1.89-1.37,3.3-2.75,4.11c-1.39,0.81-3.91,1.53-3.79,3c0.17,2.03,3.77,0.32,5.85,0.79
					c3.3,0.75,1.67,4.2,0.17,5.85c-2.8,3.08-10.12,6.16-16.52,4.59c-0.85-0.21-1.99-1.28-2.75-1.27c-1.08,0.02-2.51,1.55-3.79,2.53
					c-1.61,1.23-2.59,1.71-3.79,2.53c-1.12,0.78-1.99,1.87-3.27,2.69c-1.17,0.75-2.25,1.57-3.44,2.37c-2.29,1.53-4.25,3.3-6.54,5.06
					c-0.99,0.76-2.35,1.34-3.61,2.21c-3.02,2.09-7.98,4.8-12.39,5.22c-4.71,0.44-8-1.76-9.81-4.27c-3.35-4.64-0.08-12.44,1.72-16.92
					c1.26-3.13,2.48-6.17,3.79-9.33c1.27-3.07,2.34-6.38,3.61-9.49c2.53-6.18,3.67-11.69,8.09-15.82c1.54-1.44,4.72-2.9,6.71-4.11
					c0.93-0.56,2.1-1.34,3.44-2.06c1.25-0.67,2.76-1.78,3.44-1.9c1.64-0.29,3.56,0.21,4.99,0.32c13.22,0.98,13.02-5.71,16.35-16.29
					C269.32,179.82,269.17,179.56,269.43,179.55 M285.09,259.27c0.77-0.11,0.4-0.58,1.21-1.42c0.89-0.94,2.07-0.91,2.58-1.58
					c1.19-1.55-1.46-1.82-2.41-2.53c-0.25-0.78-0.12-1.89-0.86-2.21c-1.94-0.04-1.99,1.65-4.13,1.42c-2.23,1.99,1.39,5.13,2.41,2.06
					c0.56,0.12,0.9,0.44,1.03,0.95C282.44,256.33,283.05,259.55,285.09,259.27 M289.57,333.93c-0.79-0.37-2.24-3.54-3.79-4.11
					c-1.97-0.72-3.92,0.48-2.75,1.9c2.19,0.26,2.95,1.82,3.96,3.16c-1.48,0.17-2.44,0.82-2.58,2.21c0.24,0.26,0.49,0.5,0.69,0.79
					C287.52,337.43,290,337.02,289.57,333.93"/>
				
					<path style="clip-path:url(#SVGID_00000040534382711233368270000006028490148792088227_);fill-rule:evenodd;clip-rule:evenodd;" d="
					M284.92,255.95c-0.13-0.51-0.48-0.83-1.03-0.95c-1.02,3.08-4.64-0.06-2.41-2.06c2.14,0.23,2.19-1.46,4.13-1.42
					c0.74,0.32,0.62,1.44,0.86,2.21c0.96,0.71,3.6,0.98,2.41,2.53c-0.51,0.67-1.69,0.64-2.58,1.58c-0.81,0.85-0.44,1.32-1.21,1.42
					C283.05,259.55,282.44,256.33,284.92,255.95"/>
				
					<path style="clip-path:url(#SVGID_00000040534382711233368270000006028490148792088227_);fill-rule:evenodd;clip-rule:evenodd;fill:#FF9400;" d="
					M387.16,301.66c-3.17,0.76,0.61,3.24-0.34,5.22c-3.18,0.18-2.27-6.06-5.68-3.64c-0.06,1.32,1,3.24-0.17,4.11
					c-2.36-0.12-0.59-3.03-2.24-3.48c-1.48-0.4-1.36,1.19-2.93,1.11c-1.89-1.21,1.6-5.71-1.21-5.85c-1.34-0.07-1.05,1.37-1.89,2.06
					c-2.33-1.08-1.07-4.53-1.38-7.12c-0.13-1.13-0.67-3.13-1.21-4.59c-0.53-1.46-1.86-2.93-2.93-3.32c-0.9-0.33-3.33-0.64-4.99-0.16
					c-0.84,0.24-1.96,1.47-3.1,2.69c-2.75,2.94-6.16,5.79-8.78,8.38c-2.56,2.54-4.2,5.51-6.37,7.91c-1.33,1.47-3.12,2.3-4.65,3.48
					c-2.03,1.56-3.62,4.14-6.71,4.59c-10.77,1.55-16.34-5.34-22.03-9.33c-1.65-1.16-3.47-2.07-4.99-3.16
					c-1.03-0.74-1.68-1.86-2.75-2.69c-2.47-1.9-5.66-3.48-6.89-6.01c6.63,0.38,10.97-1.33,15.15-3.64c5.18-2.86,9.1-5.62,12.91-9.49
					c2.02,3.11,4.19,8.87,4.47,14.55c0.12,2.32-0.98,7.7,1.55,7.43c1.83-0.19,0.98-2.56,1.55-3.48c0.51-0.26,2.96,1.38,3.27-0.47
					c0.28-1.63-2.96-2.04-3.27-3.32c-0.54-2.24,3.17-7.54,4.65-8.86c3.33-2.97,7.94-5.03,13.08-5.38c1.83-0.12,2.99,0.22,4.3,0
					c3.86-0.64,7.26-5.09,8.26-8.38c0.67-2.22,0.36-4.25,1.38-6.01c2.91-5.03,10.99-1.87,12.74,1.9c0.92,1.98,0.76,2.88,1.38,4.43
					c1.75,4.39,4.92,8.49,8.26,12.81c1.57,2.03,2.83,4.44,3.61,6.8c0.87,2.6,1.26,5.37,2.58,7.75c0.99,1.78,2.72,2.52,2.24,5.54
					C391.76,307.54,388.83,303.04,387.16,301.66 M365.65,270.82c-0.58,0.63-1.29,2.65,0.34,2.85c1.87,0.23,1.18-2.45,3.96-1.74
					c-0.2,2.43,1.05,4.28,3.44,3.8c-0.01-0.27,0.13-0.41,0.34-0.47c-0.41-1.68-1.59-2.65-1.38-4.9
					C370.56,268.9,366.96,269.39,365.65,270.82 M388.88,301.5c-0.01,0.91,2.1,2.75,2.75,2.69c2.15-0.21,1.01-4.43-0.86-4.59
					C390.16,300.45,388.9,300.4,388.88,301.5"/>
				
					<path style="clip-path:url(#SVGID_00000040534382711233368270000006028490148792088227_);fill-rule:evenodd;clip-rule:evenodd;" d="
					M372.36,270.34c-0.21,2.25,0.96,3.23,1.38,4.9c-0.21,0.07-0.35,0.2-0.34,0.47c-2.4,0.48-3.65-1.37-3.44-3.8
					c-2.78-0.71-2.09,1.97-3.96,1.74c-1.63-0.2-0.92-2.22-0.34-2.85C366.96,269.39,370.56,268.9,372.36,270.34"/>
				
					<path style="clip-path:url(#SVGID_00000040534382711233368270000006028490148792088227_);fill-rule:evenodd;clip-rule:evenodd;" d="
					M390.78,299.61c1.88,0.16,3.01,4.38,0.86,4.59c-0.66,0.06-2.77-1.78-2.75-2.69C388.9,300.4,390.16,300.45,390.78,299.61"/>
				
					<path style="clip-path:url(#SVGID_00000040534382711233368270000006028490148792088227_);fill-rule:evenodd;clip-rule:evenodd;" d="
					M285.09,337.89c-0.2-0.29-0.45-0.54-0.69-0.79c0.14-1.4,1.1-2.05,2.58-2.21c-1.01-1.34-1.77-2.91-3.96-3.16
					c-1.16-1.42,0.79-2.62,2.75-1.9c1.55,0.57,3,3.74,3.79,4.11C290,337.02,287.52,337.43,285.09,337.89"/>
			</g>
		</g>
	</g>
	<g>
		<path class="st9" d="M109.9,393.49c0-1.76-1.01-2.63-3.03-2.63H92.76c-1.92,0-3.02-0.96-3.02-2.63v-9.84
			c0-1.76,1.11-2.63,3.02-2.63h51.61c2.02,0,3.03,0.88,3.03,2.63v9.84c0,1.67-1.01,2.63-3.03,2.63h-14.11
			c-1.92,0-3.03,0.88-3.03,2.63v41.1c0,1.67-1.01,2.63-3.02,2.63h-11.29c-1.92,0-3.02-0.97-3.02-2.63V393.49z"/>
		<path class="st9" d="M167.14,375.75c2.02,0,3.02,0.88,3.02,2.63v34.42c0,6.76,0.5,10.89,7.96,10.89c7.46,0,7.97-4.13,7.97-10.89
			v-34.42c0-1.76,1.11-2.63,3.02-2.63h11.29c2.02,0,3.03,0.88,3.03,2.63v39.08c0,5.8-1.42,21.34-25.3,21.34s-25.3-15.54-25.3-21.34
			v-39.08c0-1.76,1.11-2.63,3.02-2.63H167.14z"/>
		<path class="st9" d="M266.02,432.48c1.41,2.28-0.21,4.74-3.33,4.74H251.2c-1.01,0-1.91-0.44-2.31-1.23l-10.48-17.65
			c-0.2-0.26-0.5-0.44-0.81-0.44h-4.04c-1.81,0-3.12,1.14-3.12,2.72v13.88c0,1.58-1.32,2.72-3.12,2.72h-11.29
			c-1.82,0-3.12-1.14-3.12-2.72v-56.03c0-1.58,1.31-2.72,3.12-2.72h22.07c17.94,0,25.2,6.67,25.2,21.08
			c0,8.17-2.32,13.88-7.66,17.21c-0.4,0.26-0.5,0.7-0.3,1.14L266.02,432.48z M233.56,390.85c-1.81,0-3.12,1.14-3.12,2.72v6.5
			c0,1.58,1.31,2.72,3.12,2.72h5.14c4.84,0,7.26-0.52,7.26-5.97c0-5.45-2.42-5.97-7.26-5.97H233.56z"/>
		<path class="st9" d="M284.06,375.75c1.82,0,2.92,0.79,3.33,2.28l8.87,33.72c0.2,0.8,1.01,0.8,1.21,0l8.88-33.72
			c0.4-1.5,1.51-2.28,3.32-2.28h11.99c2.12,0,3.13,1.05,2.62,2.9l-14.72,56.29c-0.4,1.49-1.51,2.28-3.33,2.28h-18.75
			c-1.81,0-2.92-0.79-3.33-2.28l-14.71-56.29c-0.5-1.85,0.51-2.9,2.62-2.9H284.06z"/>
		<path class="st9" d="M379.21,417.46c0,5.8-1.41,21.34-25.3,21.34c-23.89,0-25.29-15.54-25.29-21.34v-21.95
			c0-5.8,1.41-21.34,25.29-21.34c23.89,0,25.3,15.54,25.3,21.34V417.46z M361.87,400.16c0-6.76-0.5-10.89-7.97-10.89
			c-7.46,0-7.96,4.12-7.96,10.89v12.64c0,6.76,0.5,10.89,7.96,10.89c7.46,0,7.97-4.13,7.97-10.89V400.16z"/>
		<path class="st9" d="M444.92,434.06c1.42,1.76,0.5,3.17-1.92,3.17h-15.12c-1.61,0-2.72-0.53-3.62-1.76l-12.5-16.68
			c-0.4-0.53-1-0.53-1.41,0l-4.13,4.92c-0.3,0.35-0.4,0.7-0.4,1.14v9.75c0,1.67-1.01,2.63-3.02,2.63H391.3
			c-1.91,0-3.02-0.97-3.02-2.63v-56.21c0-1.76,1.11-2.63,3.02-2.63h11.49c2.01,0,3.02,0.88,3.02,2.63v17.65
			c0,0.88,0.7,1.05,1.21,0.35l15.82-18.96c0.91-1.14,2.02-1.67,3.63-1.67h14.91c2.52,0,3.33,1.4,1.92,3.25l-20.36,24.41
			c-0.3,0.44-0.4,0.79,0,1.23L444.92,434.06z"/>
		<path class="st9" d="M496.42,375.75c2.02,0,3.03,0.88,3.03,2.63v9.84c0,1.67-1.01,2.63-3.03,2.63h-24.39
			c-1.92,0-3.02,0.88-3.02,2.63v2.81c0,1.67,1.11,2.63,3.02,2.63h15.63c2.02,0,3.02,0.88,3.02,2.63v9.84c0,1.67-1.01,2.63-3.02,2.63
			h-15.63c-1.92,0-3.02,0.88-3.02,2.63v2.81c0,1.67,1.11,2.63,3.02,2.63h24.39c2.02,0,3.03,0.88,3.03,2.63v9.84
			c0,1.75-1.01,2.63-3.03,2.63h-42.33c-1.91,0-3.02-0.97-3.02-2.63v-56.21c0-1.76,1.11-2.63,3.02-2.63H496.42z"/>
	</g>
</g>
</svg>
